<?xml version="1.0" encoding="utf-8"?>
<!-- Generator: Adobe Illustrator 24.0.3, SVG Export Plug-In . SVG Version: 6.00 Build 0)  -->
<svg version="1.1" id="Capa_1" xmlns="http://www.w3.org/2000/svg" xmlns:xlink="http://www.w3.org/1999/xlink" x="0px" y="0px"
	 viewBox="0 0 22 12" style="enable-background:new 0 0 22 12;" xml:space="preserve">
<style type="text/css">
	.st0{fill-rule:evenodd;clip-rule:evenodd;fill:#FDC130;}
</style>
<title>global/icons/2ยบ/line/arrow-down</title>
<desc>Created with Sketch.</desc>
<g id="visual">
	<g id="landing-mobile-copy-2" transform="translate(-150.000000, -359.000000)">
		<g id="Group-19" transform="translate(49.000000, 335.000000)">
			<g transform="translate(101.000000, 24.000000)">
				<path class="st0" d="M0,0.7c0-0.1,0-0.2,0.1-0.3s0.1-0.2,0.2-0.3C0.4,0.1,0.5,0,0.7,0s0.4,0.1,0.5,0.2l9.8,10l9.7-9.8
					c0.1-0.1,0.3-0.2,0.5-0.2s0.4,0.1,0.5,0.2S22,0.7,22,0.9s-0.1,0.4-0.2,0.5L11.6,11.8c-0.1,0.1-0.3,0.2-0.5,0.2s-0.4-0.1-0.5-0.2
					L0.2,1.3C0.1,1.2,0.1,1.1,0.1,1C0,0.9,0,0.8,0,0.7z"/>
			</g>
		</g>
	</g>
</g>
</svg>
