<?xml version="1.0" encoding="UTF-8"?>
<svg width="248px" height="28px" viewBox="0 0 248 28" version="1.1" xmlns="http://www.w3.org/2000/svg" xmlns:xlink="http://www.w3.org/1999/xlink">
    <!-- Generator: Sketch 51.3 (57544) - http://www.bohemiancoding.com/sketch -->
    <title>Group 4</title>
    <desc>Created with Sketch.</desc>
    <defs>
        <polygon id="path-1" points="0.0492602935 0.110650954 2.46184211 0.110650954 2.46184211 3.22055839 0.0492602935 3.22055839"></polygon>
        <polygon id="path-3" points="0 27.6224816 91.7292985 27.6224816 91.7292985 0.0609428741 0 0.0609428741"></polygon>
    </defs>
    <g id="New-Landing" stroke="none" stroke-width="1" fill="none" fill-rule="evenodd" opacity="0.5">
        <g id="T-Landing-CA_apertura" transform="translate(-464.000000, -4814.000000)">
            <g id="Group-4" transform="translate(464.000000, 4814.000000)">
                <g id="Group-79" transform="translate(156.000000, 0.000000)">
                    <g id="Group-78">
                        <polygon id="Fill-1" fill="#FFFFFF" points="0 24.3391892 0 27.4797297 0.352925586 27.4797297 0.352925586 25.9631876 1.26126981 25.9631876 1.26126981 25.5980175 0.352925586 25.5980175 0.352925586 24.725954 1.59630958 24.725954 1.59630958 24.3391892"></polygon>
                        <path d="M2.74149231,26.467515 C2.74149231,27.0183544 2.94070209,27.2937121 3.33849126,27.2937121 C3.52206686,27.2937121 3.66844823,27.2200109 3.77233991,27.071989 C3.87913149,26.924215 3.92981651,26.7228062 3.92981651,26.467515 C3.92981651,25.9232406 3.73275012,25.6496171 3.33849126,25.6496171 C3.15617648,25.6496171 3.01206459,25.7222035 2.90312962,25.8675002 C2.79608588,26.0115583 2.74149231,26.2132148 2.74149231,26.467515 M2.32365608,26.467515 C2.32365608,26.1265074 2.41607429,25.8537509 2.60355844,25.645901 C2.78839486,25.4364409 3.03438113,25.3340023 3.33849126,25.3340023 C3.65760516,25.3340023 3.90523049,25.4317339 4.0831324,25.6323994 C4.25901699,25.8344276 4.34828315,26.1115194 4.34828315,26.467515 C4.34828315,26.8209094 4.25838658,27.0997354 4.0760718,27.3049841 C3.89703515,27.5091179 3.64890549,27.6127951 3.33849126,27.6127951 C3.01748612,27.6127951 2.76923038,27.5087463 2.59195888,27.3013919 C2.41267008,27.0960194 2.32365608,26.8179365 2.32365608,26.467515" id="Fill-2" fill="#FFFFFF"></path>
                        <path d="M6.14288595,27.5714357 L6.14288595,26.2932456 C6.14288595,26.0576494 6.10783511,25.8951351 6.03458138,25.8005002 C5.96271456,25.7068563 5.84255828,25.6602821 5.6743647,25.6602821 C5.58408988,25.6602821 5.48902395,25.6869136 5.39030163,25.7411676 C5.29145323,25.7939352 5.21504745,25.8600805 5.16360594,25.9371262 L5.16360594,27.5714357 L4.76594285,27.5714357 L4.76594285,25.3727853 L5.03651513,25.3727853 L5.16360594,25.656566 C5.2930923,25.4395499 5.50856668,25.3340147 5.80347281,25.3340147 C6.29330194,25.3340147 6.53966645,25.623865 6.53966645,26.2108737 L6.53966645,27.5714357 L6.14288595,27.5714357 Z" id="Fill-4" fill="#FFFFFF"></path>
                        <path d="M8.52071953,25.8813238 C8.42199721,25.7347884 8.28418942,25.660344 8.11082648,25.660344 C7.8959825,25.660344 7.72451079,25.738009 7.59325928,25.8950731 C7.46213385,26.0497838 7.3946799,26.2483436 7.3946799,26.4895139 C7.3946799,27.0184287 7.64003575,27.2842486 8.13024313,27.2842486 C8.19404069,27.2842486 8.26994214,27.263315 8.35593016,27.2247922 C8.44431375,27.1865171 8.49840299,27.1445259 8.52071953,27.1001813 L8.52071953,25.8813238 Z M8.52071953,27.5686487 L8.52071953,27.4066298 C8.38366824,27.5426365 8.18344979,27.6098966 7.92056852,27.6098966 C7.64003575,27.6098966 7.41245748,27.5109264 7.23972495,27.3152155 C7.06535334,27.1167796 6.97873491,26.8545518 6.97873491,26.5258071 C6.97873491,26.1970624 7.07808764,25.915759 7.27830608,25.6816492 C7.47902885,25.4502645 7.71820668,25.3339528 7.99546131,25.3339528 C8.22593947,25.3339528 8.4015719,25.3849862 8.52071953,25.4920079 L8.52071953,24.4715863 L8.91926518,24.4715863 L8.91926518,27.5686487 L8.52071953,27.5686487 Z" id="Fill-6" fill="#FFFFFF"></path>
                        <path d="M9.75752231,26.467515 C9.75752231,27.0183544 9.9567321,27.2937121 10.3537648,27.2937121 C10.538349,27.2937121 10.6838478,27.2200109 10.7886221,27.071989 C10.8947832,26.924215 10.9464769,26.7228062 10.9464769,26.467515 C10.9464769,25.9232406 10.7494105,25.6496171 10.3537648,25.6496171 C10.1730891,25.6496171 10.0278424,25.7222035 9.92130302,25.8675002 C9.81262021,26.0115583 9.75752231,26.2132148 9.75752231,26.467515 M9.34119908,26.467515 C9.34119908,26.1265074 9.43273471,25.8537509 9.62034494,25.645901 C9.8049292,25.4364409 10.0500329,25.3340023 10.3537648,25.3340023 C10.6742656,25.3340023 10.9228996,25.4317339 11.0987842,25.6323994 C11.2756774,25.8344276 11.3643132,26.1115194 11.3643132,26.467515 C11.3643132,26.8209094 11.2740383,27.0997354 11.0931105,27.3049841 C10.9125608,27.5091179 10.6649355,27.6127951 10.3537648,27.6127951 C10.0357856,27.6127951 9.78639512,27.5087463 9.60773673,27.3013919 C9.42970874,27.0960194 9.34119908,26.8179365 9.34119908,26.467515" id="Fill-8" fill="#FFFFFF"></path>
                        <path d="M14.4902803,25.8813238 C14.3897929,25.7347884 14.2508504,25.660344 14.0778657,25.660344 C13.8645347,25.660344 13.6928108,25.738009 13.5601724,25.8950731 C13.4300556,26.0497838 13.3649972,26.2483436 13.3649972,26.4895139 C13.3649972,27.0184287 13.6085879,27.2842486 14.0989214,27.2842486 C14.1603234,27.2842486 14.2358466,27.263315 14.3251127,27.2247922 C14.4118573,27.1865171 14.4678377,27.1445259 14.4902803,27.1001813 L14.4902803,25.8813238 Z M14.4902803,27.5686487 L14.4902803,27.4066298 C14.3512117,27.5426365 14.1513715,27.6098966 13.886473,27.6098966 C13.6079575,27.6098966 13.3812618,27.5109264 13.206638,27.3152155 C13.033149,27.1167796 12.9446393,26.8545518 12.9446393,26.5258071 C12.9446393,26.1970624 13.0463876,25.915759 13.2468582,25.6816492 C13.4485897,25.4502645 13.6849937,25.3339528 13.9621222,25.3339528 C14.1937351,25.3339528 14.3697458,25.3849862 14.4902803,25.4920079 L14.4902803,24.4715863 L14.8855479,24.4715863 L14.8855479,27.5686487 L14.4902803,27.5686487 Z" id="Fill-10" fill="#FFFFFF"></path>
                        <path d="M16.3765953,25.6603192 C16.1986934,25.6603192 16.0501686,25.7153164 15.9306428,25.8286553 C15.8171688,25.9355531 15.75148,26.0685869 15.7366023,26.2273852 L16.9758637,26.2273852 C16.9758637,26.0699495 16.9260613,25.9376588 16.8241869,25.8343532 C16.7144954,25.7189086 16.5652142,25.6603192 16.3765953,25.6603192 M17.3386021,26.510175 L15.7263897,26.510175 C15.7263897,26.7674481 15.7980043,26.9647692 15.9418641,27.1020146 C16.0687027,27.2235287 16.2305922,27.2842238 16.4304324,27.2842238 C16.6567498,27.2842238 16.8465034,27.2191933 16.9985585,27.0888846 L17.1661217,27.3700641 C17.103711,27.4285296 17.0101581,27.4827837 16.8843281,27.5253941 C16.7257168,27.5823732 16.5476888,27.6128447 16.3521354,27.6128447 C16.0718548,27.6128447 15.8334334,27.5175905 15.6371235,27.3309219 C15.416858,27.1239391 15.3090578,26.846104 15.3090578,26.4970451 C15.3090578,26.1355993 15.4206405,25.8443865 15.6446885,25.6248931 C15.8445287,25.4291822 16.0837065,25.333928 16.3568004,25.333928 C16.6759143,25.333928 16.9266917,25.4197683 17.1071152,25.5957842 C17.2827477,25.7663499 17.3698704,25.9912935 17.3698704,26.272473 C17.3698704,26.357694 17.3599099,26.4374647 17.3386021,26.510175" id="Fill-12" fill="#FFFFFF"></path>
                        <g id="Group-16" transform="translate(18.912322, 24.401923)">
                            <mask id="mask-2" fill="white">
                                <use xlink:href="#path-1"></use>
                            </mask>
                            <g id="Clip-15"></g>
                            <path d="M2.31596507,0.370277507 L2.14285429,0.711656697 C1.93280144,0.557565365 1.7261528,0.481386772 1.52517787,0.481386772 C1.20354232,0.481386772 0.950999785,0.590638022 0.764524294,0.812732683 C0.579687872,1.03445574 0.488530482,1.32913683 0.488530482,1.69417474 C0.488530482,2.04088024 0.579057461,2.32082108 0.76074183,2.53251086 C0.94305661,2.74420064 1.18942112,2.85060294 1.50349174,2.85060294 C1.7261528,2.85060294 1.90758501,2.78520083 2.04564496,2.65427274 L2.04564496,1.95045687 L1.62036989,1.95045687 L1.62036989,1.60127402 L2.46184211,1.60127402 L2.46184211,2.90956393 C2.35126807,3.00481814 2.19480013,3.07864325 1.996599,3.13438368 C1.79801963,3.19024798 1.60322271,3.22059555 1.41510816,3.22059555 C0.994119878,3.22059555 0.660632608,3.07926258 0.417672317,2.79783533 C0.171307809,2.5162842 0.0492602935,2.1431949 0.0492602935,1.67807195 C0.0492602935,1.21270126 0.183916023,0.835028857 0.451840578,0.544930866 C0.720017298,0.256319288 1.08174697,0.110650954 1.53652526,0.110650954 C1.855387,0.110650954 2.11536838,0.198349237 2.31596507,0.370277507" id="Fill-14" fill="#FFFFFF" mask="url(#mask-2)"></path>
                        </g>
                        <path d="M23.1958615,26.4923133 C23.0706619,26.4638238 22.9845478,26.4500745 22.9332324,26.4500745 C22.73314,26.4500745 22.5677203,26.5007363 22.4422685,26.6019362 C22.3158081,26.7036315 22.251128,26.8226683 22.251128,26.9610284 C22.251128,27.1896881 22.3881793,27.3043895 22.6635427,27.3043895 C22.8633829,27.3043895 23.0421674,27.2107456 23.1958615,27.0237054 L23.1958615,26.4923133 Z M23.2341905,27.3187581 C23.0750748,27.514469 22.8321145,27.6128199 22.5039227,27.6128199 C22.3285424,27.6128199 22.1768656,27.5501429 22.0496487,27.4239218 C21.9189016,27.2999303 21.8558605,27.1439809 21.8558605,26.957684 C21.8558605,26.73497 21.9537002,26.5452048 22.1530361,26.3929715 C22.3512372,26.239004 22.6040319,26.1607197 22.9125549,26.1607197 C22.9950127,26.1607197 23.0890699,26.1795475 23.1958615,26.2132395 C23.1958615,25.859102 23.0352329,25.6809803 22.7113278,25.6809803 C22.4637025,25.6809803 22.2731924,25.7465063 22.1397975,25.8775583 L21.9708474,25.5512909 C22.0496487,25.4920822 22.1510188,25.4395623 22.2842876,25.3955893 C22.4161695,25.3537221 22.5450255,25.3339032 22.6660643,25.3339032 C22.9908519,25.3339032 23.2258691,25.4037646 23.3721243,25.5494329 C23.51901,25.6938626 23.5936507,25.9252473 23.5936507,26.2412336 L23.5936507,27.0294034 C23.5936507,27.2216459 23.6516485,27.3509637 23.7682744,27.4151272 L23.7682744,27.6098471 C23.6067632,27.6098471 23.4866069,27.588418 23.4055361,27.542587 C23.3274913,27.4968798 23.2684848,27.4233024 23.2341905,27.3187581 Z" id="Fill-17" fill="#FFFFFF"></path>
                        <path d="M25.4328361,25.7482528 C25.3473524,25.6885486 25.260734,25.6603068 25.1727287,25.6603068 C25.0321471,25.6603068 24.9094691,25.7226122 24.803308,25.8509391 C24.6975251,25.9775318 24.6445706,26.1318709 24.6445706,26.3109835 L24.6445706,27.5714605 L24.249303,27.5714605 L24.249303,25.3728101 L24.6445706,25.3728101 L24.6445706,25.7226122 C24.7905737,25.4626141 25.0056698,25.3339156 25.2916241,25.3339156 C25.361978,25.3339156 25.4647349,25.3439489 25.5980037,25.3687224 L25.4328361,25.7482528 Z" id="Fill-19" fill="#FFFFFF"></path>
                        <path d="M27.1062488,26.4923133 C26.9819318,26.4638238 26.8927917,26.4500745 26.8419806,26.4500745 C26.6421404,26.4500745 26.4783597,26.5007363 26.3526558,26.6019362 C26.2259432,26.7036315 26.1615153,26.8226683 26.1615153,26.9610284 C26.1615153,27.1896881 26.2981883,27.3043895 26.5745604,27.3043895 C26.7737702,27.3043895 26.9512938,27.2107456 27.1062488,27.0237054 L27.1062488,26.4923133 Z M27.1425604,27.3187581 C26.9864707,27.514469 26.74288,27.6128199 26.41431,27.6128199 C26.2385515,27.6128199 26.0872529,27.5501429 25.9594056,27.4239218 C25.8292888,27.2999303 25.7652391,27.1439809 25.7652391,26.957684 C25.7652391,26.73497 25.8643396,26.5452048 26.0634234,26.3929715 C26.2613723,26.239004 26.5146713,26.1607197 26.8221857,26.1607197 C26.9066607,26.1607197 27.0000876,26.1795475 27.1062488,26.2132395 C27.1062488,25.859102 26.9446115,25.6809803 26.6217151,25.6809803 C26.3740898,25.6809803 26.1828231,25.7465063 26.0495543,25.8775583 L25.8828737,25.5512909 C25.9562535,25.4920822 26.0620365,25.4395623 26.1951792,25.3955893 C26.3275654,25.3537221 26.4554127,25.3339032 26.5751908,25.3339032 C26.9003566,25.3339032 27.1368867,25.4037646 27.2841507,25.5494329 C27.4300277,25.6938626 27.5040379,25.9252473 27.5040379,26.2412336 L27.5040379,27.0294034 C27.5040379,27.2216459 27.562414,27.3509637 27.6784095,27.4151272 L27.6784095,27.6098471 C27.5171505,27.6098471 27.3969942,27.588418 27.3159234,27.542587 C27.2372481,27.4968798 27.1786199,27.4233024 27.1425604,27.3187581 Z" id="Fill-21" fill="#FFFFFF"></path>
                        <path d="M29.5045203,27.5714357 L29.5045203,26.2932456 C29.5045203,26.0576494 29.4692173,25.8951351 29.3973504,25.8005002 C29.3259879,25.7068563 29.2055795,25.6602821 29.0362512,25.6602821 C28.9467329,25.6602821 28.851793,25.6869136 28.7529446,25.7411676 C28.6534658,25.7939352 28.5775643,25.8600805 28.5247359,25.9371262 L28.5247359,27.5714357 L28.1268207,27.5714357 L28.1268207,25.3727853 L28.399032,25.3727853 L28.5247359,25.656566 C28.6561135,25.4395499 28.8689402,25.3340147 29.1662419,25.3340147 C29.6561971,25.3340147 29.9015529,25.623865 29.9015529,26.2108737 L29.9015529,27.5714357 L29.5045203,27.5714357 Z" id="Fill-23" fill="#FFFFFF"></path>
                        <path d="M30.6054065,25.6810051 L30.3485772,25.6810051 L30.3485772,25.3728224 L30.6054065,25.3728224 L30.6054065,24.9127781 L31.0035739,24.7627744 L31.0035739,25.3728224 L31.6193591,25.3728224 L31.6193591,25.6810051 L31.0035739,25.6810051 L31.0035739,26.773146 C31.0035739,26.9577088 31.0367335,27.0888846 31.0995224,27.166178 C31.1623113,27.2442146 31.2658248,27.2842238 31.4055238,27.2842238 C31.505633,27.2842238 31.613055,27.258831 31.7202248,27.2077975 L31.7791052,27.5501676 C31.6139376,27.5905485 31.4347748,27.6128447 31.2379606,27.6128447 C31.0619499,27.6128447 30.9117861,27.5473187 30.7891082,27.4182486 C30.6689519,27.2891786 30.6054065,27.1264165 30.6054065,26.9282283 L30.6054065,25.6810051 Z" id="Fill-25" fill="#FFFFFF"></path>
                        <path d="M33.0072461,24.2504702 L32.5354467,24.9334763 L32.2423058,24.9334763 L32.595714,24.2504702 L33.0072461,24.2504702 Z M32.3537624,27.5714853 L32.3537624,25.6999692 L32.046248,25.6999692 L32.046248,25.3728348 L32.7570991,25.3728348 L32.7570991,27.5714853 L32.3537624,27.5714853 Z" id="Fill-27" fill="#FFFFFF"></path>
                        <path d="M34.6076572,26.4923133 C34.4824576,26.4638238 34.3949566,26.4500745 34.3452803,26.4500745 C34.1448097,26.4500745 33.979516,26.5007363 33.8540642,26.6019362 C33.7267213,26.7036315 33.6635541,26.8226683 33.6635541,26.9610284 C33.6635541,27.1896881 33.8003532,27.3043895 34.0740776,27.3043895 C34.2755568,27.3043895 34.4539631,27.2107456 34.6076572,27.0237054 L34.6076572,26.4923133 Z M34.6449775,27.3187581 C34.4868705,27.514469 34.2439102,27.6128199 33.9167271,27.6128199 C33.7413468,27.6128199 33.5876527,27.5501429 33.4600575,27.4239218 C33.3306972,27.2999303 33.2656389,27.1439809 33.2656389,26.957684 C33.2656389,26.73497 33.3652438,26.5452048 33.5648318,26.3929715 C33.7630329,26.239004 34.0160798,26.1607197 34.3227116,26.1607197 C34.4074388,26.1607197 34.5004874,26.1795475 34.6076572,26.2132395 C34.6076572,25.859102 34.4457677,25.6809803 34.1224931,25.6809803 C33.8751199,25.6809803 33.6846098,25.7465063 33.5507106,25.8775583 L33.3850387,25.5512909 C33.4600575,25.4920822 33.5634449,25.4395623 33.6958311,25.3955893 C33.8279652,25.3537221 33.9561908,25.3339032 34.0786165,25.3339032 C34.4010086,25.3339032 34.6375387,25.4037646 34.7830375,25.5494329 C34.9314361,25.6938626 35.0054464,25.9252473 35.0054464,26.2412336 L35.0054464,27.0294034 C35.0054464,27.2216459 35.0640746,27.3509637 35.1800701,27.4151272 L35.1800701,27.6098471 C35.0198197,27.6098471 34.8977722,27.588418 34.8177101,27.542587 C34.7380261,27.4968798 34.6802805,27.4233024 34.6449775,27.3187581 Z" id="Fill-29" fill="#FFFFFF"></path>
                        <path d="M35.4823521,27.4407925 L35.6231858,27.0706761 C35.8447122,27.2122568 36.0226141,27.2842238 36.1580263,27.2842238 C36.4022474,27.2842238 36.5255557,27.1809182 36.5255557,26.9805004 C36.5255557,26.8352037 36.4072907,26.7112122 36.169878,26.6066679 C35.9878154,26.5236766 35.8653896,26.4616189 35.8023486,26.4199994 C35.7389292,26.3761502 35.6824444,26.3288328 35.637307,26.275322 C35.5897741,26.2208202 35.5556058,26.1637173 35.5322806,26.1036415 C35.5084511,26.0410883 35.4965994,25.9769249 35.4965994,25.9076829 C35.4965994,25.7273316 35.5638011,25.5851316 35.6978265,25.483684 C35.8318518,25.3828557 36.005593,25.333928 36.222076,25.333928 C36.3839655,25.333928 36.5902359,25.3828557 36.8369786,25.483684 L36.7250177,25.8446342 C36.5675411,25.722253 36.4100645,25.6603192 36.2508227,25.6603192 C36.1580263,25.6603192 36.0770815,25.6816244 36.0124014,25.7273316 C35.9482256,25.7695705 35.9151921,25.8263018 35.9151921,25.8913323 C35.9151921,26.032913 35.9973976,26.1393153 36.1596653,26.2132643 L36.4436023,26.3391138 C36.6160827,26.4171504 36.7445604,26.5057158 36.8236139,26.6066679 C36.9026674,26.7071246 36.9427615,26.832107 36.9427615,26.9817391 C36.9427615,27.1780693 36.8726599,27.3341425 36.7327087,27.4438892 C36.5925053,27.5564849 36.3968259,27.6128447 36.1469311,27.6128447 C35.9109053,27.6128447 35.6900094,27.5557417 35.4823521,27.4407925" id="Fill-31" fill="#FFFFFF"></path>
                        <path d="M40.0678462,25.8813238 C39.9677369,25.7347884 39.8303074,25.660344 39.6565662,25.660344 C39.4437396,25.660344 39.2706288,25.738009 39.1392512,25.8950731 C39.0079997,26.0497838 38.9429413,26.2483436 38.9429413,26.4895139 C38.9429413,27.0184287 39.1867841,27.2842486 39.6769915,27.2842486 C39.7404108,27.2842486 39.8166905,27.263315 39.903309,27.2247922 C39.9896752,27.1865171 40.0447731,27.1445259 40.0678462,27.1001813 L40.0678462,25.8813238 Z M40.0678462,27.5686487 L40.0678462,27.4066298 C39.9306688,27.5426365 39.7289374,27.6098966 39.4656778,27.6098966 C39.1867841,27.6098966 38.9592059,27.5109264 38.7860951,27.3152155 C38.6104627,27.1167796 38.5251051,26.8545518 38.5251051,26.5258071 C38.5251051,26.1970624 38.626349,25.915759 38.8254327,25.6816492 C39.0264077,25.4502645 39.264829,25.3339528 39.5415793,25.3339528 C39.7710488,25.3339528 39.947942,25.3849862 40.0678462,25.4920079 L40.0678462,24.4715863 L40.4639963,24.4715863 L40.4639963,27.5686487 L40.0678462,27.5686487 Z" id="Fill-33" fill="#FFFFFF"></path>
                        <path d="M41.9544007,25.6603192 C41.7770031,25.6603192 41.6299913,25.7153164 41.5107176,25.8286553 C41.3959829,25.9355531 41.3300419,26.0685869 41.314786,26.2273852 L42.5527865,26.2273852 C42.5527865,26.0699495 42.5039927,25.9376588 42.4023705,25.8343532 C42.2924269,25.7189086 42.1447847,25.6603192 41.9544007,25.6603192 M42.9161553,26.510175 L41.3045733,26.510175 C41.3045733,26.7674481 41.3765662,26.9647692 41.5200477,27.1020146 C41.6466342,27.2235287 41.8087758,27.2842238 42.0089942,27.2842238 C42.2346813,27.2842238 42.4251914,27.2191933 42.5767421,27.0888846 L42.7430445,27.3700641 C42.6815164,27.4285296 42.5880895,27.4827837 42.4618813,27.5253941 C42.3028917,27.5823732 42.1256202,27.6128447 41.9305711,27.6128447 C41.6487776,27.6128447 41.411617,27.5175905 41.2142985,27.3309219 C40.9969329,27.1239391 40.8872414,26.846104 40.8872414,26.4970451 C40.8872414,26.1355993 40.9979415,25.8443865 41.2226199,25.6248931 C41.4240992,25.4291822 41.6608814,25.333928 41.9357405,25.333928 C42.2544762,25.333928 42.5039927,25.4197683 42.6844163,25.5957842 C42.8621921,25.7663499 42.9486845,25.9912935 42.9486845,26.272473 C42.9486845,26.357694 42.937211,26.4374647 42.9161553,26.510175" id="Fill-35" fill="#FFFFFF"></path>
                        <mask id="mask-4" fill="white">
                            <use xlink:href="#path-3"></use>
                        </mask>
                        <g id="Clip-38"></g>
                        <polygon id="Fill-37" fill="#FFFFFF" mask="url(#mask-4)" points="44.7600436 27.5714481 45.1772494 27.5714481 45.1772494 24.563075 44.7600436 24.563075"></polygon>
                        <path d="M47.2212805,27.5714357 L47.2212805,26.2932456 C47.2212805,26.0576494 47.1874905,25.8951351 47.1141107,25.8005002 C47.0427482,25.7068563 46.924357,25.6602821 46.7540201,25.6602821 C46.6634931,25.6602821 46.5691836,25.6869136 46.4703352,25.7411676 C46.3708564,25.7939352 46.2954593,25.8600805 46.2431352,25.9371262 L46.2431352,27.5714357 L45.8461025,27.5714357 L45.8461025,25.3727853 L46.1166748,25.3727853 L46.2431352,25.656566 C46.3728737,25.4395499 46.5863308,25.3340147 46.8846412,25.3340147 C47.3749746,25.3340147 47.6197001,25.623865 47.6197001,26.2108737 L47.6197001,27.5714357 L47.2212805,27.5714357 Z" id="Fill-39" fill="#FFFFFF" mask="url(#mask-4)"></path>
                        <path d="M48.0379902,27.4407925 L48.1769327,27.0706761 C48.3980808,27.2122568 48.5772435,27.2842238 48.7124036,27.2842238 C48.9564986,27.2842238 49.0782939,27.1809182 49.0782939,26.9805004 C49.0782939,26.8352037 48.9610376,26.7112122 48.7245075,26.6066679 C48.5421927,26.5236766 48.4186322,26.4616189 48.355465,26.4199994 C48.2922979,26.3761502 48.2374521,26.3288328 48.189667,26.275322 C48.1437731,26.2208202 48.1099831,26.1637173 48.0864057,26.1036415 C48.0627023,26.0410883 48.0526157,25.9769249 48.0526157,25.9076829 C48.0526157,25.7273316 48.1183045,25.5851316 48.2520777,25.483684 C48.3853465,25.3828557 48.5612311,25.333928 48.7767055,25.333928 C48.938721,25.333928 49.1446132,25.3828557 49.3919863,25.483684 L49.2791428,25.8446342 C49.1210358,25.722253 48.9649461,25.6603192 48.8062087,25.6603192 C48.7124036,25.6603192 48.6314588,25.6816244 48.5658961,25.7273316 C48.5014681,25.7695705 48.4701998,25.8263018 48.4701998,25.8913323 C48.4701998,26.032913 48.550388,26.1393153 48.7149252,26.2132643 L48.9973492,26.3391138 C49.1727295,26.4171504 49.2983073,26.5057158 49.3786216,26.6066679 C49.4570447,26.7071246 49.4971388,26.832107 49.4971388,26.9817391 C49.4971388,27.1780693 49.4276676,27.3341425 49.2874642,27.4438892 C49.1446132,27.5564849 48.9489337,27.6128447 48.702317,27.6128447 C48.4657869,27.6128447 48.2438823,27.5557417 48.0379902,27.4407925" id="Fill-40" fill="#FFFFFF" mask="url(#mask-4)"></path>
                        <path d="M50.0581287,25.6810051 L49.7975169,25.6810051 L49.7975169,25.3728224 L50.0581287,25.3728224 L50.0581287,24.9127781 L50.4533962,24.7627744 L50.4533962,25.3728224 L51.0679206,25.3728224 L51.0679206,25.6810051 L50.4533962,25.6810051 L50.4533962,26.773146 C50.4533962,26.9577088 50.4840342,27.0888846 50.5484622,27.166178 C50.6133945,27.2442146 50.7147645,27.2842238 50.8543375,27.2842238 C50.9550771,27.2842238 51.0616165,27.258831 51.1711819,27.2077975 L51.2298101,27.5501676 C51.0647686,27.5905485 50.8837146,27.6128447 50.6886655,27.6128447 C50.511394,27.6128447 50.3622389,27.5473187 50.2398131,27.4182486 C50.1167569,27.2891786 50.0581287,27.1264165 50.0581287,26.9282283 L50.0581287,25.6810051 Z" id="Fill-41" fill="#FFFFFF" mask="url(#mask-4)"></path>
                        <path d="M52.0197904,24.5417574 C52.0880008,24.5417574 52.146629,24.5651683 52.1950445,24.6133528 C52.2421993,24.6600509 52.2670374,24.7157914 52.2670374,24.7824322 C52.2670374,24.8487013 52.2421993,24.9050611 52.1950445,24.9521308 C52.146629,25.0010585 52.0880008,25.0237263 52.0197904,25.0237263 C51.9534712,25.0237263 51.8954734,25.0010585 51.8476882,24.9521308 C51.7991466,24.9050611 51.7761997,24.8487013 51.7761997,24.7824322 C51.7761997,24.715172 51.7991466,24.6581929 51.8469317,24.6127335 C51.8942125,24.5651683 51.9515799,24.5417574 52.0197904,24.5417574 Z M51.8029291,27.5714357 L51.8029291,25.7000436 L51.4964234,25.7000436 L51.4964234,25.3727853 L52.2002139,25.3727853 L52.2002139,27.5714357 L51.8029291,27.5714357 Z" id="Fill-42" fill="#FFFFFF" mask="url(#mask-4)"></path>
                        <path d="M52.9727949,25.6810051 L52.7139482,25.6810051 L52.7139482,25.3728224 L52.9727949,25.3728224 L52.9727949,24.9127781 L53.370584,24.7627744 L53.370584,25.3728224 L53.9839736,25.3728224 L53.9839736,25.6810051 L53.370584,25.6810051 L53.370584,26.773146 C53.370584,26.9577088 53.4005916,27.0888846 53.4648935,27.166178 C53.5273041,27.2442146 53.6306915,27.2842238 53.7708948,27.2842238 C53.8728953,27.2842238 53.9775435,27.258831 54.085848,27.2077975 L54.1444762,27.5501676 C53.9813259,27.5905485 53.8009024,27.6128447 53.6032056,27.6128447 C53.4266906,27.6128447 53.2775354,27.5473187 53.1563705,27.4182486 C53.0339447,27.2891786 52.9727949,27.1264165 52.9727949,26.9282283 L52.9727949,25.6810051 Z" id="Fill-43" fill="#FFFFFF" mask="url(#mask-4)"></path>
                        <path d="M54.9031881,25.3727853 L54.9031881,26.7753385 C54.9031881,27.113621 55.0528476,27.2843106 55.3506536,27.2843106 C55.4844268,27.2843106 55.6030701,27.2454161 55.7113747,27.1724581 C55.819301,27.0988807 55.8919243,27.013412 55.9262186,26.9166714 L55.9262186,25.3727853 L56.3235035,25.3727853 L56.3235035,27.5714357 L55.9262186,27.5714357 L55.9262186,27.2663497 C55.882342,27.353181 55.7930759,27.4323324 55.6579158,27.5046711 C55.5221254,27.5757711 55.3921347,27.6128075 55.2645395,27.6128075 C55.0185533,27.6128075 54.8310691,27.5426984 54.7015828,27.4035951 C54.5703313,27.2663497 54.5060294,27.0706389 54.5060294,26.8163386 L54.5060294,25.3727853 L54.9031881,25.3727853 Z" id="Fill-44" fill="#FFFFFF" mask="url(#mask-4)"></path>
                        <path d="M58.551438,25.5513281 L58.3563889,25.8263142 C58.3162948,25.7876675 58.2436715,25.7492686 58.1402841,25.7135947 C58.0395445,25.6790356 57.9394353,25.6603316 57.8407129,25.6603316 C57.6233473,25.6603316 57.4523799,25.734776 57.3268021,25.8832933 C57.1993331,26.0313152 57.1361659,26.2345819 57.1361659,26.4932175 C57.1361659,26.7513577 57.1993331,26.9460776 57.3307107,27.0825797 C57.4608274,27.2159852 57.6379729,27.2842362 57.8707205,27.2842362 C58.0472355,27.2842362 58.2263982,27.2144988 58.4080826,27.0819604 L58.5648027,27.4088471 C58.3513456,27.5438628 58.08796,27.6128571 57.7725025,27.6128571 C57.467762,27.6128571 57.2159759,27.510914 57.0170183,27.3096291 C56.8181868,27.1092113 56.7180775,26.8364548 56.7180775,26.4932175 C56.7180775,26.1444063 56.8213388,25.8619881 57.0278614,25.649679 C57.2362751,25.4369983 57.5181948,25.3339404 57.877655,25.3339404 C57.9930202,25.3339404 58.1167068,25.3549979 58.2545145,25.4031824 C58.3876573,25.4513669 58.4883969,25.5012856 58.551438,25.5513281" id="Fill-45" fill="#FFFFFF" mask="url(#mask-4)"></path>
                        <path d="M59.391662,24.5417574 C59.4598724,24.5417574 59.5192571,24.5651683 59.5657814,24.6133528 C59.614197,24.6600509 59.6384048,24.7157914 59.6384048,24.7824322 C59.6384048,24.8487013 59.614197,24.9050611 59.5657814,24.9521308 C59.5192571,25.0010585 59.4598724,25.0237263 59.391662,25.0237263 C59.3259732,25.0237263 59.2674711,25.0010585 59.2195599,24.9521308 C59.1705139,24.9050611 59.147567,24.8487013 59.147567,24.7824322 C59.147567,24.715172 59.1705139,24.6581929 59.2182991,24.6127335 C59.2654538,24.5651683 59.3234516,24.5417574 59.391662,24.5417574 Z M59.1749268,27.5714357 L59.1749268,25.7000436 L58.8676646,25.7000436 L58.8676646,25.3727853 L59.572842,25.3727853 L59.572842,27.5714357 L59.1749268,27.5714357 Z" id="Fill-46" fill="#FFFFFF" mask="url(#mask-4)"></path>
                        <path d="M60.4741907,26.467515 C60.4741907,27.0183544 60.6717614,27.2937121 61.0689201,27.2937121 C61.254387,27.2937121 61.3998858,27.2200109 61.5062991,27.071989 C61.60893,26.924215 61.6618845,26.7228062 61.6618845,26.467515 C61.6618845,25.9232406 61.4654485,25.6496171 61.0689201,25.6496171 C60.8872358,25.6496171 60.7438804,25.7222035 60.6354497,25.8675002 C60.528406,26.0115583 60.4741907,26.2132148 60.4741907,26.467515 M60.0561023,26.467515 C60.0561023,26.1265074 60.1496552,25.8537509 60.3351221,25.645901 C60.5213454,25.4364409 60.7649361,25.3340023 61.0689201,25.3340023 C61.3903035,25.3340023 61.6376767,25.4317339 61.8154525,25.6323994 C61.992724,25.8344276 62.0806033,26.1115194 62.0806033,26.467515 C62.0806033,26.8209094 61.9900763,27.0997354 61.8077615,27.3049841 C61.627338,27.5091179 61.3805952,27.6127951 61.0689201,27.6127951 C60.7501845,27.6127951 60.502307,27.5087463 60.3237747,27.3013919 C60.1458728,27.0960194 60.0561023,26.8179365 60.0561023,26.467515" id="Fill-47" fill="#FFFFFF" mask="url(#mask-4)"></path>
                        <path d="M63.8752061,27.5714357 L63.8752061,26.2932456 C63.8752061,26.0576494 63.8388944,25.8951351 63.7669015,25.8005002 C63.6941521,25.7068563 63.5762653,25.6602821 63.4079456,25.6602821 C63.3160318,25.6602821 63.221218,25.6869136 63.1228739,25.7411676 C63.0228908,25.7939352 62.9471154,25.8600805 62.8941609,25.9371262 L62.8941609,27.5714357 L62.4962457,27.5714357 L62.4962457,25.3727853 L62.7703482,25.3727853 L62.8941609,25.656566 C63.0261689,25.4395499 63.2389956,25.3340147 63.5366755,25.3340147 C64.0268829,25.3340147 64.2717344,25.623865 64.2717344,26.2108737 L64.2717344,27.5714357 L63.8752061,27.5714357 Z" id="Fill-48" fill="#FFFFFF" mask="url(#mask-4)"></path>
                        <path d="M65.7564651,25.6603192 C65.5793197,25.6603192 65.4312993,25.7153164 65.312656,25.8286553 C65.1979212,25.9355531 65.1323585,26.0685869 65.1182373,26.2273852 L66.3557336,26.2273852 C66.3557336,26.0699495 66.3065615,25.9376588 66.2053176,25.8343532 C66.0968869,25.7189086 65.9464709,25.6603192 65.7564651,25.6603192 M66.7197327,26.510175 L65.1062595,26.510175 C65.1062595,26.7674481 65.1795132,26.9647692 65.3223643,27.1020146 C65.4490769,27.2235287 65.6118489,27.2842238 65.8113109,27.2842238 C66.0388891,27.2842238 66.2281384,27.2191933 66.3786805,27.0888846 L66.5463698,27.3700641 C66.4844634,27.4285296 66.3907844,27.4827837 66.2652066,27.5253941 C66.1052083,27.5823732 65.9285673,27.6128447 65.7328878,27.6128447 C65.4529854,27.6128447 65.2139337,27.5175905 65.0176238,27.3309219 C64.7996277,27.1239391 64.6905667,26.846104 64.6905667,26.4970451 C64.6905667,26.1355993 64.8021494,25.8443865 65.0265756,25.6248931 C65.2274245,25.4291822 65.4638285,25.333928 65.7385615,25.333928 C66.0574232,25.333928 66.3065615,25.4197683 66.4890024,25.5957842 C66.6623653,25.7663499 66.7516315,25.9912935 66.7516315,26.272473 C66.7516315,26.357694 66.740158,26.4374647 66.7197327,26.510175" id="Fill-49" fill="#FFFFFF" mask="url(#mask-4)"></path>
                        <path d="M67.022582,27.4407925 L67.1620289,27.0706761 C67.3839334,27.2122568 67.5624658,27.2842238 67.696365,27.2842238 C67.9418469,27.2842238 68.0649031,27.1809182 68.0649031,26.9805004 C68.0649031,26.8352037 67.9462598,26.7112122 67.7097297,26.6066679 C67.5267845,26.5236766 67.4049892,26.4616189 67.3419481,26.4199994 C67.2768897,26.3761502 67.2226744,26.3288328 67.1767805,26.275322 C67.1296258,26.2208202 67.0952053,26.1637173 67.071628,26.1036415 C67.0480506,26.0410883 67.036451,25.9769249 67.036451,25.9076829 C67.036451,25.7273316 67.1040311,25.5851316 67.2380564,25.483684 C67.3719556,25.3828557 67.5472098,25.333928 67.7626842,25.333928 C67.9245737,25.333928 68.129205,25.3828557 68.377839,25.483684 L68.2656259,25.8446342 C68.1075189,25.722253 67.9500423,25.6603192 67.7914309,25.6603192 C67.696365,25.6603192 67.6166811,25.6816244 67.5516227,25.7273316 C67.4878251,25.7695705 67.455422,25.8263018 67.455422,25.8913323 C67.455422,26.032913 67.5356103,26.1393153 67.7001475,26.2132643 L67.9825715,26.3391138 C68.1585821,26.4171504 68.2841599,26.5057158 68.3644743,26.6066679 C68.4435278,26.7071246 68.4823611,26.832107 68.4823611,26.9817391 C68.4823611,27.1780693 68.4109986,27.3341425 68.2720561,27.4438892 C68.1324831,27.5564849 67.9360471,27.6128447 67.6861523,27.6128447 C67.4515135,27.6128447 67.229735,27.5557417 67.022582,27.4407925" id="Fill-50" fill="#FFFFFF" mask="url(#mask-4)"></path>
                        <polygon id="Fill-51" fill="#FFFFFF" mask="url(#mask-4)" points="70.6383279 24.9334392 70.6383279 25.7689264 71.7138086 25.7689264 71.7138086 26.1187285 70.6383279 26.1187285 70.6383279 27.5714481 70.2207438 27.5714481 70.2207438 24.563075 72.1110934 24.563075 72.1110934 24.9334392"></polygon>
                        <path d="M72.8447654,24.5417574 C72.9129759,24.5417574 72.9709736,24.5651683 73.0187588,24.6133528 C73.06667,24.6600509 73.0901213,24.7157914 73.0901213,24.7824322 C73.0901213,24.8487013 73.06667,24.9050611 73.0187588,24.9521308 C72.9709736,25.0010585 72.9129759,25.0237263 72.8447654,25.0237263 C72.776555,25.0237263 72.719818,25.0010585 72.6720329,24.9521308 C72.6241217,24.9050611 72.5986531,24.8487013 72.5986531,24.7824322 C72.5986531,24.715172 72.6241217,24.6581929 72.6714025,24.6127335 C72.7185572,24.5651683 72.776555,24.5417574 72.8447654,24.5417574 Z M72.6272737,27.5714357 L72.6272737,25.7000436 L72.3195072,25.7000436 L72.3195072,25.3727853 L73.0239281,25.3727853 L73.0239281,27.5714357 L72.6272737,27.5714357 Z" id="Fill-52" fill="#FFFFFF" mask="url(#mask-4)"></path>
                        <path d="M75.0313828,27.5714357 L75.0313828,26.2932456 C75.0313828,26.0576494 74.9950712,25.8951351 74.9230783,25.8005002 C74.8515897,25.7068563 74.7324421,25.6602821 74.5633659,25.6602821 C74.4728389,25.6602821 74.3767643,25.6869136 74.2790507,25.7411676 C74.1803284,25.7939352 74.1031661,25.8600805 74.0509681,25.9371262 L74.0509681,27.5714357 L73.6543136,27.5714357 L73.6543136,25.3727853 L73.9253903,25.3727853 L74.0509681,25.656566 C74.1834804,25.4395499 74.3970636,25.3340147 74.6934827,25.3340147 C75.1830596,25.3340147 75.4272808,25.623865 75.4272808,26.2108737 L75.4272808,27.5714357 L75.0313828,27.5714357 Z" id="Fill-53" fill="#FFFFFF" mask="url(#mask-4)"></path>
                        <path d="M77.2186054,26.4923133 C77.0930276,26.4638238 77.0043919,26.4500745 76.9559763,26.4500745 C76.754497,26.4500745 76.5912207,26.5007363 76.4645081,26.6019362 C76.3376695,26.7036315 76.2738719,26.8226683 76.2738719,26.9610284 C76.2738719,27.1896881 76.412184,27.3043895 76.6850258,27.3043895 C76.8857486,27.3043895 77.0636505,27.2107456 77.2186054,27.0237054 L77.2186054,26.4923133 Z M77.2555475,27.3187581 C77.0961797,27.514469 76.8533454,27.6128199 76.5262884,27.6128199 C76.3516646,27.6128199 76.1992313,27.5501429 76.0692406,27.4239218 C75.9416455,27.2999303 75.8773436,27.1439809 75.8773436,26.957684 C75.8773436,26.73497 75.9766963,26.5452048 76.1756539,26.3929715 C76.3739811,26.239004 76.6263976,26.1607197 76.9342902,26.1607197 C77.018387,26.1607197 77.1134529,26.1795475 77.2186054,26.2132395 C77.2186054,25.859102 77.0567159,25.6809803 76.7334413,25.6809803 C76.4855638,25.6809803 76.2942972,25.7465063 76.1610284,25.8775583 L75.9939696,25.5512909 C76.0692406,25.4920822 76.1725019,25.4395623 76.3070315,25.3955893 C76.4401743,25.3537221 76.5663825,25.3339032 76.6888082,25.3339032 C77.010822,25.3339032 77.2478565,25.4037646 77.3946161,25.5494329 C77.5423844,25.6938626 77.6157642,25.9252473 77.6157642,26.2412336 L77.6157642,27.0294034 C77.6157642,27.2216459 77.6743924,27.3509637 77.7917748,27.4151272 L77.7917748,27.6098471 C77.6297593,27.6098471 77.50809,27.588418 77.42828,27.542587 C77.3473353,27.4968798 77.2918591,27.4233024 77.2555475,27.3187581 Z" id="Fill-54" fill="#FFFFFF" mask="url(#mask-4)"></path>
                        <path d="M79.6168769,27.5714357 L79.6168769,26.2932456 C79.6168769,26.0576494 79.5798088,25.8951351 79.5092028,25.8005002 C79.4356969,25.7068563 79.3179361,25.6602821 79.1482296,25.6602821 C79.0589634,25.6602821 78.9633932,25.6869136 78.8639143,25.7411676 C78.7664529,25.7939352 78.6911818,25.8600805 78.6364622,25.9371262 L78.6364622,27.5714357 L78.2398077,27.5714357 L78.2398077,25.3727853 L78.5113887,25.3727853 L78.6364622,25.656566 C78.7684702,25.4395499 78.9812968,25.3340147 79.2777159,25.3340147 C79.7685537,25.3340147 80.0127748,25.623865 80.0127748,26.2108737 L80.0127748,27.5714357 L79.6168769,27.5714357 Z" id="Fill-55" fill="#FFFFFF" mask="url(#mask-4)"></path>
                        <path d="M82.2649802,25.5513281 L82.0699311,25.8263142 C82.0292066,25.7876675 81.9572137,25.7492686 81.8550871,25.7135947 C81.7537171,25.6790356 81.6536079,25.6603316 81.5529943,25.6603316 C81.3368895,25.6603316 81.1652917,25.734776 81.0390835,25.8832933 C80.9116144,26.0313152 80.8492038,26.2345819 80.8492038,26.4932175 C80.8492038,26.7513577 80.9135057,26.9460776 81.042992,27.0825797 C81.1723523,27.2159852 81.351515,27.2842362 81.5822454,27.2842362 C81.7607777,27.2842362 81.9405708,27.2144988 82.1214987,27.0819604 L82.2783449,27.4088471 C82.0655182,27.5438628 81.8002414,27.6128571 81.486549,27.6128571 C81.1805477,27.6128571 80.929392,27.510914 80.7299301,27.3096291 C80.5310985,27.1092113 80.4296024,26.8364548 80.4296024,26.4932175 C80.4296024,26.1444063 80.5336202,25.8619881 80.7407731,25.649679 C80.9491869,25.4369983 81.2309805,25.3339404 81.5904407,25.3339404 C81.7059319,25.3339404 81.8308794,25.3549979 81.9666698,25.4031824 C82.1011995,25.4513669 82.2013087,25.5012856 82.2649802,25.5513281" id="Fill-56" fill="#FFFFFF" mask="url(#mask-4)"></path>
                        <path d="M83.1045738,24.5417574 C83.1727842,24.5417574 83.2327993,24.5651683 83.2793236,24.6133528 C83.3277392,24.6600509 83.3506861,24.7157914 83.3506861,24.7824322 C83.3506861,24.8487013 83.3277392,24.9050611 83.2793236,24.9521308 C83.2327993,25.0010585 83.1727842,25.0237263 83.1045738,25.0237263 C83.0383807,25.0237263 82.9810133,25.0010585 82.9318412,24.9521308 C82.8840561,24.9050611 82.8598483,24.8487013 82.8598483,24.7824322 C82.8598483,24.715172 82.8840561,24.6581929 82.9318412,24.6127335 C82.9783656,24.5651683 83.0363633,24.5417574 83.1045738,24.5417574 Z M82.8878386,27.5714357 L82.8878386,25.7000436 L82.5818372,25.7000436 L82.5818372,25.3727853 L83.2849973,25.3727853 L83.2849973,27.5714357 L82.8878386,27.5714357 Z" id="Fill-57" fill="#FFFFFF" mask="url(#mask-4)"></path>
                        <path d="M84.8359968,25.6603192 C84.6607426,25.6603192 84.5115875,25.7153164 84.3918094,25.8286553 C84.2764443,25.9355531 84.2126467,26.0685869 84.1978951,26.2273852 L85.4358957,26.2273852 C85.4358957,26.0699495 85.3854628,25.9376588 85.2854797,25.8343532 C85.1757882,25.7189086 85.026633,25.6603192 84.8359968,25.6603192 M85.8005252,26.510175 L84.1864216,26.510175 C84.1864216,26.7674481 84.2577841,26.9647692 84.401896,27.1020146 C84.5282303,27.2235287 84.6913806,27.2842238 84.8895817,27.2842238 C85.11716,27.2842238 85.3077962,27.2191933 85.459473,27.0888846 L85.6259014,27.3700641 C85.5646255,27.4285296 85.4709465,27.4827837 85.3434774,27.5253941 C85.1853704,27.5823732 85.0094858,27.6128447 84.8143107,27.6128447 C84.5326432,27.6128447 84.2928349,27.5175905 84.0971555,27.3309219 C83.8791594,27.1239391 83.769468,26.846104 83.769468,26.4970451 C83.769468,26.1355993 83.8816811,25.8443865 84.1054769,25.6248931 C84.3056953,25.4291822 84.5441167,25.333928 84.8180931,25.333928 C85.1363245,25.333928 85.3862193,25.4197683 85.5679037,25.5957842 C85.7437882,25.7663499 85.8312893,25.9912935 85.8312893,26.272473 C85.8312893,26.357694 85.8203201,26.4374647 85.8005252,26.510175" id="Fill-58" fill="#FFFFFF" mask="url(#mask-4)"></path>
                        <path d="M87.4643808,25.7482528 C87.3777624,25.6885486 87.2922787,25.6603068 87.2042734,25.6603068 C87.0621788,25.6603068 86.9403834,25.7226122 86.8339701,25.8509391 C86.7286915,25.9775318 86.6764935,26.1318709 86.6764935,26.3109835 L86.6764935,27.5714605 L86.2805956,27.5714605 L86.2805956,25.3728101 L86.6764935,25.3728101 L86.6764935,25.7226122 C86.8211097,25.4626141 87.0365841,25.3339156 87.3215298,25.3339156 C87.3936487,25.3339156 87.4956492,25.3439489 87.6295484,25.3687224 L87.4643808,25.7482528 Z" id="Fill-59" fill="#FFFFFF" mask="url(#mask-4)"></path>
                        <path d="M89.1384239,26.4923133 C89.0122157,26.4638238 88.9243364,26.4500745 88.8732731,26.4500745 C88.6731808,26.4500745 88.5100305,26.5007363 88.3844527,26.6019362 C88.2568575,26.7036315 88.1936904,26.8226683 88.1936904,26.9610284 C88.1936904,27.1896881 88.3301113,27.3043895 88.6049703,27.3043895 C88.8056931,27.3043895 88.9829646,27.2107456 89.1384239,27.0237054 L89.1384239,26.4923133 Z M89.1748616,27.3187581 C89.0153677,27.514469 88.7726596,27.6128199 88.4468633,27.6128199 C88.2708527,27.6128199 88.1184193,27.5501429 87.9898156,27.4239218 C87.8609596,27.2999303 87.7952708,27.1439809 87.7952708,26.957684 C87.7952708,26.73497 87.8966409,26.5452048 88.0943377,26.3929715 C88.2931692,26.239004 88.5449552,26.1607197 88.8528478,26.1607197 C88.9369446,26.1607197 89.0313801,26.1795475 89.1384239,26.2132395 C89.1384239,25.859102 88.9765344,25.6809803 88.6532598,25.6809803 C88.4047519,25.6809803 88.2147461,25.7465063 88.0808469,25.8775583 L87.913788,25.5512909 C87.9884287,25.4920822 88.0929507,25.4395623 88.2269761,25.3955893 C88.3575972,25.3537221 88.486327,25.3339032 88.6067355,25.3339032 C88.9325317,25.3339032 89.1684314,25.4037646 89.3138041,25.5494329 C89.4616985,25.6938626 89.5355826,25.9252473 89.5355826,26.2412336 L89.5355826,27.0294034 C89.5355826,27.2216459 89.5924457,27.3509637 89.7097021,27.4151272 L89.7097021,27.6098471 C89.5476865,27.6098471 89.4272781,27.588418 89.3475942,27.542587 C89.2691711,27.4968798 89.2097864,27.4233024 89.1748616,27.3187581 Z" id="Fill-60" fill="#FFFFFF" mask="url(#mask-4)"></path>
                        <path d="M90.0131188,27.4407925 L90.1533221,27.0706761 C90.3745963,27.2122568 90.5512373,27.2842238 90.6876582,27.2842238 C90.9323837,27.2842238 91.0554398,27.1809182 91.0554398,26.9805004 C91.0554398,26.8352037 90.937553,26.7112122 90.7003925,26.6066679 C90.5174473,26.5236766 90.3931303,26.4616189 90.331224,26.4199994 C90.2669221,26.3761502 90.2133372,26.3288328 90.1655521,26.275322 C90.1202886,26.2208202 90.0844812,26.1637173 90.0616604,26.1036415 C90.0385873,26.0410883 90.0271139,25.9769249 90.0271139,25.9076829 C90.0271139,25.7273316 90.0946939,25.5851316 90.2285931,25.483684 C90.3624924,25.3828557 90.5364857,25.333928 90.7506993,25.333928 C90.9151104,25.333928 91.1211286,25.3828557 91.3685018,25.483684 L91.2555322,25.8446342 C91.0994425,25.722253 90.9400747,25.6603192 90.7807068,25.6603192 C90.6876582,25.6603192 90.6079743,25.6816244 90.541529,25.7273316 C90.4759663,25.7695705 90.4453283,25.8263018 90.4453283,25.8913323 C90.4453283,26.032913 90.5262731,26.1393153 90.6908103,26.2132643 L90.9731082,26.3391138 C91.147858,26.4171504 91.2754532,26.5057158 91.3545067,26.6066679 C91.4328037,26.7071246 91.4736543,26.832107 91.4736543,26.9817391 C91.4736543,27.1780693 91.4022918,27.3341425 91.2625928,27.4438892 C91.121759,27.5564849 90.9259535,27.6128447 90.6755543,27.6128447 C90.4409155,27.6128447 90.2215325,27.5557417 90.0131188,27.4407925" id="Fill-61" fill="#FFFFFF" mask="url(#mask-4)"></path>
                        <path d="M4.6636398,3.42293332 C4.6636398,4.68526835 3.61967965,5.71076846 2.33225488,5.71076846 C1.04382146,5.71076846 -1.26090056e-05,4.68526835 -1.26090056e-05,3.42293332 C-1.26090056e-05,2.1556436 1.04382146,1.12853321 2.33225488,1.12853321 C3.61967965,1.12853321 4.6636398,2.1556436 4.6636398,3.42293332" id="Fill-62" fill="#FFFFFF" mask="url(#mask-4)"></path>
                        <path d="M10.4115734,3.42293332 C10.4115734,4.68526835 9.36534381,5.71076846 8.07829728,5.71076846 C6.79049427,5.71076846 5.7466602,4.68526835 5.7466602,3.42293332 C5.7466602,2.1556436 6.79049427,1.12853321 8.07829728,1.12853321 C9.36534381,1.12853321 10.4115734,2.1556436 10.4115734,3.42293332" id="Fill-63" fill="#FFFFFF" mask="url(#mask-4)"></path>
                        <path d="M16.1573006,3.42293332 C16.1573006,4.68526835 15.1130883,5.71076846 13.8230158,5.71076846 C12.538617,5.71076846 11.4911266,4.68526835 11.4911266,3.42293332 C11.4911266,2.1556436 12.538617,1.12853321 13.8230158,1.12853321 C15.1130883,1.12853321 16.1573006,2.1556436 16.1573006,3.42293332" id="Fill-64" fill="#FFFFFF" mask="url(#mask-4)"></path>
                        <path d="M4.6636398,8.96129043 C4.6636398,10.2248641 3.61967965,11.2528416 2.33225488,11.2528416 C1.04382146,11.2528416 -1.26090056e-05,10.2248641 -1.26090056e-05,8.96129043 C-1.26090056e-05,7.69424844 1.04382146,6.66837672 2.33225488,6.66837672 C3.61967965,6.66837672 4.6636398,7.69424844 4.6636398,8.96129043" id="Fill-65" fill="#FFFFFF" mask="url(#mask-4)"></path>
                        <path d="M10.4115734,8.96129043 C10.4115734,10.2248641 9.36534381,11.2528416 8.07829728,11.2528416 C6.79049427,11.2528416 5.7466602,10.2248641 5.7466602,8.96129043 C5.7466602,7.69424844 6.79049427,6.66837672 8.07829728,6.66837672 C9.36534381,6.66837672 10.4115734,7.69424844 10.4115734,8.96129043" id="Fill-66" fill="#FFFFFF" mask="url(#mask-4)"></path>
                        <path d="M16.1573006,8.96129043 C16.1573006,10.2248641 15.1130883,11.2528416 13.8230158,11.2528416 C12.538617,11.2528416 11.4911266,10.2248641 11.4911266,8.96129043 C11.4911266,7.69424844 12.538617,6.66837672 13.8230158,6.66837672 C15.1130883,6.66837672 16.1573006,7.69424844 16.1573006,8.96129043" id="Fill-67" fill="#FFFFFF" mask="url(#mask-4)"></path>
                        <path d="M4.6636398,14.5021868 C4.6636398,15.7666276 3.61967965,16.7934902 2.33225488,16.7934902 C1.04382146,16.7934902 -1.26090056e-05,15.7666276 -1.26090056e-05,14.5021868 C-1.26090056e-05,13.2351448 1.04382146,12.2086538 2.33225488,12.2086538 C3.61967965,12.2086538 4.6636398,13.2351448 4.6636398,14.5021868" id="Fill-68" fill="#FFFFFF" mask="url(#mask-4)"></path>
                        <path d="M10.4115734,14.5021868 C10.4115734,15.7666276 9.36534381,16.7934902 8.07829728,16.7934902 C6.79049427,16.7934902 5.7466602,15.7666276 5.7466602,14.5021868 C5.7466602,13.2351448 6.79049427,12.2086538 8.07829728,12.2086538 C9.36534381,12.2086538 10.4115734,13.2351448 10.4115734,14.5021868" id="Fill-69" fill="#FFFFFF" mask="url(#mask-4)"></path>
                        <path d="M16.1573006,14.5021868 C16.1573006,15.7666276 15.1130883,16.7934902 13.8230158,16.7934902 C12.538617,16.7934902 11.4911266,15.7666276 11.4911266,14.5021868 C11.4911266,13.2351448 12.538617,12.2086538 13.8230158,12.2086538 C15.1130883,12.2086538 16.1573006,13.2351448 16.1573006,14.5021868" id="Fill-70" fill="#FFFFFF" mask="url(#mask-4)"></path>
                        <polygon id="Fill-71" fill="#FFFFFF" mask="url(#mask-4)" points="20.9799426 1.15605659 30.7201665 1.15605659 30.7201665 4.06645044 24.5827399 4.06645044 24.5827399 7.65266607 30.317334 7.65266607 30.317334 10.5374193 24.5827399 10.5374193 24.5827399 16.8467409 20.9799426 16.8467409"></polygon>
                        <path d="M42.9753634,11.0268203 C42.9753634,15.1952138 39.9651523,17.1019083 36.8608838,17.1019083 C33.4735609,17.1019083 30.8645431,14.9149014 30.8645431,11.237643 C30.8645431,7.53610663 33.3290708,5.18249779 37.072954,5.18249779 C40.6033801,5.18249779 42.9753634,7.58094671 42.9753634,11.0268203 M34.5863619,11.1427604 C34.5863619,13.0994974 35.4143434,14.5648514 36.9539324,14.5648514 C38.376139,14.5648514 39.2549315,13.1900446 39.2549315,11.1214552 C39.2549315,9.44391587 38.5904786,7.7202978 36.9539324,7.7202978 C35.248041,7.7202978 34.5863619,9.46769846 34.5863619,11.1427604" id="Fill-72" fill="#FFFFFF" mask="url(#mask-4)"></path>
                        <path d="M55.2996534,15.1952014 C55.2996534,17.3830754 54.8482793,19.1737059 53.5222734,20.3147745 C52.2658649,21.3873443 50.5343788,21.7117536 48.831009,21.7117536 C47.2888983,21.7117536 45.7032893,21.4090211 44.6578162,20.8528555 L45.3704324,18.1513024 C46.1061218,18.5689841 47.3608912,19.0134211 48.7348084,19.0134211 C50.442591,19.0134211 51.7443891,18.1271482 51.7443891,16.0083924 L51.7443891,15.2874828 L51.6964779,15.2874828 C51.0099606,16.2185958 49.8956467,16.753704 48.5690103,16.753704 C45.7032893,16.753704 43.6632802,14.4714429 43.6632802,11.2143435 C43.6632802,7.53460783 46.0566976,5.20725893 48.924562,5.20725893 C50.5120623,5.20725893 51.507859,5.88208978 52.1006973,6.8359944 L52.1465912,6.8359944 L52.2658649,5.46341719 L55.3933325,5.46341719 C55.3461777,6.20711844 55.2996534,7.16325268 55.2996534,8.8629643 L55.2996534,15.1952014 Z M51.6964779,10.0942085 C51.6964779,9.88573933 51.673531,9.65485006 51.6257458,9.44390349 C51.365008,8.51105636 50.6778603,7.88441002 49.6826939,7.88441002 C48.3560576,7.88441002 47.3131061,9.04963282 47.3131061,11.1214428 C47.3131061,12.8209067 48.1666822,14.1474051 49.6591166,14.1474051 C50.6057413,14.1474051 51.342061,13.5414447 51.5785911,12.7244138 C51.673531,12.4471981 51.6964779,12.0749758 51.6964779,11.7721195 L51.6964779,10.0942085 Z" id="Fill-73" fill="#FFFFFF" mask="url(#mask-4)"></path>
                        <path d="M66.6534387,14.1001001 C66.6534387,15.1708119 66.7012238,16.2186082 66.8434445,16.84575 L63.5940555,16.84575 L63.3842548,15.7062917 L63.3122619,15.7062917 C62.5542561,16.6143653 61.3698404,17.1019083 59.9941581,17.1019083 C57.6481477,17.1019083 56.2493924,15.4268463 56.2493924,13.6121855 C56.2493924,10.6550936 58.9524675,9.25687575 63.0502632,9.25687575 L63.0502632,9.11727693 C63.0502632,8.49025899 62.7200541,7.62764481 60.9407829,7.62764481 C59.7563672,7.62764481 58.5012195,8.02154388 57.7424571,8.49025899 L57.080778,6.20713083 C57.8853082,5.76653366 59.472052,5.18249779 61.5820366,5.18249779 C65.4446892,5.18249779 66.6534387,7.41806078 66.6534387,10.1183751 L66.6534387,14.1001001 Z M63.1687804,11.4690278 C61.2735136,11.4690278 59.8049088,11.91235 59.8049088,13.261764 C59.8049088,14.1683512 60.4194332,14.6111779 61.2263589,14.6111779 C62.102882,14.6111779 62.8622747,14.0311058 63.0981744,13.3090814 C63.14659,13.1220413 63.1687804,12.9119618 63.1687804,12.7034926 L63.1687804,11.4690278 Z" id="Fill-74" fill="#FFFFFF" mask="url(#mask-4)"></path>
                        <path d="M68.7418003,16.84575 L68.7418003,8.07071932 L67.2009504,8.07071932 L67.2009504,5.46342957 L68.7418003,5.46342957 L68.7418003,5.02060279 C68.7418003,3.64591983 69.1689666,2.1333722 70.1870799,1.20275469 C71.1101273,0.364046966 72.3424542,0.0609428741 73.4094873,0.0609428741 C74.191827,0.0609428741 74.8063514,0.177502314 75.3048802,0.293690152 L75.1627856,3.01902576 C74.8535061,2.92401928 74.4755119,2.85366247 74.0018213,2.85366247 C72.8179099,2.85366247 72.3201376,3.76433729 72.3201376,4.88063237 L72.3201376,5.46342957 L74.6418142,5.46342957 L74.6418142,8.07071932 L72.3424542,8.07071932 L72.3424542,16.84575 L68.7418003,16.84575 Z" id="Fill-75" fill="#FFFFFF" mask="url(#mask-4)"></path>
                        <path d="M75.7090491,16.84575 L79.3114681,16.84575 L79.3114681,5.46342957 L75.7090491,5.46342957 L75.7090491,16.84575 Z M81.3489556,0.504760594 L78.4585224,4.04328719 L75.9946252,4.04328719 L78.0313561,0.504760594 L81.3489556,0.504760594 Z" id="Fill-76" fill="#FFFFFF" mask="url(#mask-4)"></path>
                        <path d="M80.733763,9.09441097 C80.733763,7.67426859 80.6878691,6.48674961 80.6407143,5.46347912 L83.7662907,5.46347912 L83.9320887,7.04601197 L84.0028208,7.04601197 C84.4796635,6.3008243 85.6386105,5.20732086 87.5822929,5.20732086 C89.9531415,5.20732086 91.7292606,6.76619499 91.7292606,10.1184247 L91.7292606,16.8457995 L88.1279764,16.8457995 L88.1279764,10.5379643 C88.1279764,9.07087612 87.6066267,8.070645 86.3035677,8.070645 C85.307771,8.070645 84.7141762,8.7464668 84.4548253,9.39689572 C84.3598854,9.63013847 84.336182,9.95591034 84.336182,10.2813106 L84.336182,16.8457995 L80.733763,16.8457995 L80.733763,9.09441097 Z" id="Fill-77" fill="#FFFFFF" mask="url(#mask-4)"></path>
                    </g>
                </g>
                <g id="_Grupo_" fill="#FFFFFF" fill-rule="nonzero">
                    <g id="_Grupo_2" transform="translate(0.000000, 10.711409)">
                        <g id="_Grupo_3">
                            <path d="M16.5614733,1.00348993 C16.0201198,0.471948407 15.2856489,0.173298757 14.519779,0.173298757 C13.7539091,0.173298757 13.0194382,0.471948407 12.4780847,1.00348993 L0,13.2314094 L4.07381215,17.234094 L14.4967956,6.98872483 C15.5790028,5.92471887 17.0481319,5.32678199 18.5801842,5.32678199 C20.1122364,5.32678199 21.5813655,5.92471887 22.6635727,6.98872483 L16.5614733,1.00348993 Z" id="_Trazado_"></path>
                        </g>
                    </g>
                    <g id="_Grupo_4" transform="translate(13.215470, 0.000000)">
                        <g id="_Grupo_5">
                            <g id="_Grupo_6">
                                <g id="_Grupo_7">
                                    <g id="_Grupo_8">
                                        <path d="M3.50880295,3.54979866 L7.59985267,3.54979866 C7.59985267,3.64751678 7.59985267,3.76590604 7.59985267,3.92563758 C7.62620103,4.91942575 7.25018216,5.88297691 6.55410681,6.60536913 C5.86547618,7.31198603 4.90311959,7.69801037 3.90718232,7.66711409 C1.79161643,7.6733412 0.071466403,5.99570107 0.0651197053,3.92 C0.0587730077,1.84429893 1.768633,0.156562674 3.8841989,0.15033557 C5.5160221,0.15033557 6.83756906,0.937718121 7.36810313,2.24751678 L6.58666667,2.51624161 C6.06762431,1.49020134 5.08508287,0.948993289 3.8841989,0.948993289 C3.09254999,0.935198716 2.33171318,1.24976587 1.78887661,1.81530201 C0.658194386,2.99653851 0.66323555,4.83816237 1.80036832,6.01342282 C2.35919453,6.57385136 3.12932668,6.88262862 3.92825046,6.86657718 C4.64195363,6.88731009 5.3351252,6.63066491 5.85694291,6.15248322 C6.38007478,5.67437374 6.70589357,5.02431479 6.77244936,4.32590604 L3.51646409,4.32590604 L3.50880295,3.54979866 Z" id="_Trazado_compuesto_"></path>
                                        <path d="M14.1233149,2.18738255 L14.0581952,2.9766443 C13.9513298,2.96564928 13.8438199,2.96188199 13.7364273,2.96536913 C12.3363536,2.96536913 11.5549171,3.97073826 11.5549171,5.47409396 L11.5549171,7.52805369 L10.7064457,7.52805369 L10.7064457,2.19865772 L11.5549171,2.19865772 L11.5549171,3.51409396 C12.0656599,2.60456376 12.79283,2.14979866 13.7364273,2.14979866 C13.8665882,2.14291628 13.9970567,2.15559054 14.1233149,2.18738255 Z" id="_Trazado_compuesto_2"></path>
                                        <path d="M21.7174217,2.19865772 L21.7174217,7.51677852 L20.8766114,7.51677852 L20.8766114,6.65234899 C20.4131123,7.32134228 19.7293554,7.65646532 18.8253407,7.65771812 C18.2288448,7.68153502 17.6506293,7.45296464 17.2375691,7.03006711 C16.8284984,6.57965269 16.6147794,5.99035825 16.6419153,5.38765101 L16.6419153,2.19302013 L17.4903867,2.19302013 L17.4903867,5.22979866 C17.4903867,6.22389262 18.0975322,6.88348993 18.9900552,6.88348993 C20.1392265,6.88348993 20.8766114,6.10550336 20.8766114,4.75436242 L20.8766114,2.19865772 L21.7174217,2.19865772 Z" id="_Trazado_compuesto_3"></path>
                                        <path d="M30.0699816,2.85825503 C30.6131613,3.38783473 30.9055762,4.11634109 30.8763168,4.86711409 C30.9041998,5.62154045 30.6122755,6.35358701 30.0699816,6.88912752 C29.5686156,7.39708099 28.8752867,7.67871033 28.1546961,7.66711409 C27.2181215,7.66711409 26.5018048,7.34389262 25.9942541,6.6842953 L25.9942541,9.36590604 L25.1668508,9.36590604 L25.1668508,2.19865772 L26.0038306,2.19865772 L26.0038306,3.05181208 C26.5113812,2.39221477 27.227698,2.06711409 28.1642726,2.06711409 C28.8844704,2.05698202 29.5759093,2.34402775 30.0699816,2.85825503 Z M29.4762431,6.3704698 C30.2565886,5.51445709 30.2565886,4.2197711 29.4762431,3.36375839 C28.8777571,2.79386007 27.986769,2.63709373 27.2237456,2.96743912 C26.4607223,3.29778451 25.978178,4.04921172 26.0038306,4.86711409 C25.984644,5.40754565 26.1895889,5.93251997 26.5718374,6.32208572 C26.9540859,6.71165146 27.4809757,6.93252111 28.0321179,6.93422819 C28.5721615,6.94990725 29.0947943,6.74588158 29.4762431,6.3704698 Z" id="_Trazado_compuesto_4"></path>
                                        <path d="M38.2731492,2.86765101 C38.8314916,3.38082073 39.1366298,4.10565544 39.1101289,4.85583893 C39.1358705,5.6130262 38.8314344,6.34507904 38.2731492,6.86845638 C37.7301047,7.3915473 36.9941416,7.67631714 36.2333702,7.65771812 C35.4659248,7.67559433 34.7231079,7.39137499 34.1706077,6.86845638 C33.6200051,6.34082043 33.3204998,5.61059828 33.3451197,4.85583893 C33.319637,4.10809345 33.619834,3.38506905 34.1706077,2.86765101 C34.7221609,2.34328335 35.4656219,2.05881755 36.2333702,2.07838926 C36.9942981,2.05892188 37.7305944,2.34382062 38.2731492,2.86765101 Z M37.6774954,6.34979866 C38.0852989,5.9579392 38.3057464,5.4154998 38.2846409,4.85583893 C38.2949192,4.31540503 38.0834116,3.79359005 37.6976603,3.40768644 C37.311909,3.02178284 36.7842791,2.80416853 36.2333702,2.80375839 C35.6835808,2.79418876 35.1536469,3.0052904 34.7662615,3.38818792 C34.359582,3.76990715 34.1386333,4.30400599 34.159116,4.85583893 C34.1418813,5.40455372 34.3534177,5.93644212 34.7448785,6.3286833 C35.1363393,6.72092448 35.6738784,6.93960495 36.2333702,6.93422819 C36.7761568,6.94246089 37.2984593,6.73108796 37.6774954,6.34979866 Z" id="_Trazado_compuesto_5"></path>
                                    </g>
                                </g>
                            </g>
                        </g>
                    </g>
                    <path d="M22.9566114,18.0083221 C20.6807462,15.9830954 17.1857628,16.0657648 15.0120074,18.1962416 L24.9236096,27.9361074 L28.9974217,23.9334228 L22.9566114,18.0083221 Z" id="_Trazado_2"></path>
                    <g id="_Grupo_9" transform="translate(33.517495, 10.711409)">
                        <g id="_Grupo_10">
                            <path d="M6.25723757,16.4034899 C6.79859104,16.9350315 7.53306197,17.2336811 8.29893186,17.2336811 C9.06480175,17.2336811 9.79927268,16.9350315 10.3406262,16.4034899 L22.8187109,4.17557047 L18.7448987,0.172885906 L8.32191529,10.418255 C7.23970808,11.482261 5.77057894,12.0801979 4.2385267,12.0801979 C2.70647446,12.0801979 1.23734533,11.482261 0.155138122,10.418255 L6.25723757,16.4034899 Z" id="_Trazado_3"></path>
                        </g>
                    </g>
                    <path d="M33.3795948,20.8195973 C35.6550947,22.8457871 39.1508557,22.7630994 41.3241989,20.6316779 L31.4106814,10.8842953 L27.3368692,14.8869799 L33.3795948,20.8195973 Z" id="_Trazado_4"></path>
                    <g id="_Grupo_11" transform="translate(54.011050, 10.711409)">
                        <g id="_Grupo_12">
                            <path d="M16.572965,1.00348993 C16.0316115,0.471948407 15.2971406,0.173298757 14.5312707,0.173298757 C13.7654008,0.173298757 13.0309299,0.471948407 12.4895764,1.00348993 L0.0114917127,13.2314094 L4.08338858,17.234094 L14.5082873,6.98872483 C15.5902441,5.92425671 17.059467,5.32600041 18.5916759,5.32600041 C20.1238847,5.32600041 21.5931077,5.92425671 22.6750645,6.98872483 L16.572965,1.00348993 Z" id="_Trazado_5"></path>
                        </g>
                    </g>
                    <path d="M76.9791529,18.0083221 C74.7032876,15.9830954 71.2083042,16.0657648 69.0345488,18.1962416 L78.946151,27.9361074 L83.0199632,23.9334228 L76.9791529,18.0083221 Z" id="_Trazado_6"></path>
                    <g id="_Grupo_13" transform="translate(85.996317, 16.536913)">
                        <g id="_Grupo_14">
                            <path d="M0.145561694,8.55785235 C0.145561694,10.122931 1.43867547,11.3916779 3.03381215,11.3916779 L17.9366483,11.3916779 L17.9366483,5.73718121 L5.91440147,5.74845638 C4.38226266,5.75045474 2.91229052,5.15416867 1.82890382,4.09119685 C0.745517117,3.02822502 0.137779094,1.58595241 0.139810735,0.0826845638 L0.145561694,8.55785235 Z" id="_Trazado_7"></path>
                        </g>
                    </g>
                    <path d="M86.1552855,16.2080537 C86.3094006,19.2184688 88.8424492,21.5814622 91.9145488,21.5806711 L91.9241252,10.8824161 L86.1610313,10.8824161 L86.1552855,16.2080537 Z" id="_Trazado_8"></path>
                </g>
                <path d="M129,2 L129,26" id="Path-20" stroke="#FFFFFF" fill-rule="nonzero"></path>
            </g>
        </g>
    </g>
</svg>