<?xml version="1.0" encoding="UTF-8"?>
<svg width="117px" height="29px" viewBox="0 0 117 29" version="1.1" xmlns="http://www.w3.org/2000/svg" xmlns:xlink="http://www.w3.org/1999/xlink">
    <!-- Generator: Sketch 51.3 (57544) - http://www.bohemiancoding.com/sketch -->
    <title>Group 2 Copy 2</title>
    <desc>Created with Sketch.</desc>
    <defs></defs>
    <g id="New-Landing" stroke="none" stroke-width="1" fill="none" fill-rule="evenodd">
        <g id="Group-2-Copy-2" transform="translate(-9.000000, -6.000000)">
            <g id="Group-6" transform="translate(0.000000, 0.000200)">
                <path d="M129.9999,-0.0001 L4.9999,-0.0001 C2.2499,-0.0001 -0.0001,2.2499 -0.0001,4.9999 L-0.0001,34.9999 C-0.0001,37.7499 2.2499,39.9999 4.9999,39.9999 L129.9999,39.9999 C132.7499,39.9999 134.9999,37.7499 134.9999,34.9999 L134.9999,4.9999 C134.9999,2.2499 132.7499,-0.0001 129.9999,-0.0001" id="Fill-4"></path>
            </g>
            <path d="M106.936,30.0002 L108.801,30.0002 L108.801,17.4992 L106.936,17.4992 L106.936,30.0002 Z M123.743,22.0022 L121.604,27.4222 L121.54,27.4222 L119.32,22.0022 L117.31,22.0022 L120.64,29.5772 L118.741,33.7912 L120.687,33.7912 L125.818,22.0022 L123.743,22.0022 Z M113.16,28.5802 C112.55,28.5802 111.697,28.2742 111.697,27.5182 C111.697,26.5542 112.759,26.1832 113.676,26.1832 C114.495,26.1832 114.882,26.3612 115.38,26.6012 C115.235,27.7602 114.238,28.5802 113.16,28.5802 Z M113.386,21.7282 C112.035,21.7282 110.636,22.3242 110.057,23.6422 L111.713,24.3342 C112.067,23.6422 112.726,23.4172 113.418,23.4172 C114.383,23.4172 115.364,23.9962 115.38,25.0252 L115.38,25.1542 C115.042,24.9612 114.318,24.6722 113.434,24.6722 C111.648,24.6722 109.831,25.6532 109.831,27.4862 C109.831,29.1592 111.295,30.2372 112.935,30.2372 C114.189,30.2372 114.882,29.6742 115.315,29.0142 L115.38,29.0142 L115.38,29.9792 L117.182,29.9792 L117.182,25.1862 C117.182,22.9672 115.524,21.7282 113.386,21.7282 Z M101.854,23.5242 L99.2,23.5242 L99.2,19.2392 L101.854,19.2392 C103.249,19.2392 104.041,20.3932 104.041,21.3812 C104.041,22.3502 103.249,23.5242 101.854,23.5242 Z M101.806,17.4982 L97.335,17.4982 L97.335,30.0002 L99.2,30.0002 L99.2,25.2642 L101.806,25.2642 C103.874,25.2642 105.907,23.7662 105.907,21.3812 C105.907,18.9962 103.874,17.4982 101.806,17.4982 Z M77.425,28.5822 C76.136,28.5822 75.057,27.5032 75.057,26.0212 C75.057,24.5222 76.136,23.4272 77.425,23.4272 C78.697,23.4272 79.696,24.5222 79.696,26.0212 C79.696,27.5032 78.697,28.5822 77.425,28.5822 Z M79.567,22.7022 L79.503,22.7022 C79.084,22.2032 78.278,21.7512 77.264,21.7512 C75.137,21.7512 73.187,23.6202 73.187,26.0212 C73.187,28.4052 75.137,30.2582 77.264,30.2582 C78.278,30.2582 79.084,29.8072 79.503,29.2912 L79.567,29.2912 L79.567,29.9032 C79.567,31.5312 78.697,32.4002 77.296,32.4002 C76.152,32.4002 75.443,31.5792 75.153,30.8862 L73.526,31.5632 C73.993,32.6902 75.233,34.0762 77.296,34.0762 C79.487,34.0762 81.34,32.7872 81.34,29.6452 L81.34,22.0092 L79.567,22.0092 L79.567,22.7022 Z M82.629,30.0002 L84.497,30.0002 L84.497,17.4992 L82.629,17.4992 L82.629,30.0002 Z M87.252,25.8762 C87.204,24.2322 88.525,23.3952 89.475,23.3952 C90.217,23.3952 90.845,23.7662 91.055,24.2972 L87.252,25.8762 Z M93.052,24.4582 C92.697,23.5082 91.618,21.7512 89.411,21.7512 C87.22,21.7512 85.399,23.4752 85.399,26.0052 C85.399,28.3892 87.204,30.2582 89.62,30.2582 C91.569,30.2582 92.697,29.0662 93.165,28.3732 L91.715,27.4062 C91.231,28.1152 90.571,28.5822 89.62,28.5822 C88.67,28.5822 87.993,28.1472 87.559,27.2932 L93.245,24.9412 L93.052,24.4582 Z M47.744,23.0572 L47.744,24.8612 L52.061,24.8612 C51.933,25.8762 51.594,26.6172 51.079,27.1322 C50.45,27.7612 49.467,28.4542 47.744,28.4542 C45.085,28.4542 43.007,26.3112 43.007,23.6532 C43.007,20.9952 45.085,18.8512 47.744,18.8512 C49.178,18.8512 50.225,19.4152 50.998,20.1412 L52.271,18.8682 C51.191,17.8372 49.758,17.0472 47.744,17.0472 C44.102,17.0472 41.041,20.0122 41.041,23.6532 C41.041,27.2932 44.102,30.2582 47.744,30.2582 C49.709,30.2582 51.191,29.6132 52.351,28.4052 C53.543,27.2132 53.914,25.5372 53.914,24.1842 C53.914,23.7662 53.882,23.3792 53.817,23.0572 L47.744,23.0572 Z M58.822,28.5822 C57.534,28.5822 56.422,27.5192 56.422,26.0052 C56.422,24.4742 57.534,23.4272 58.822,23.4272 C60.111,23.4272 61.223,24.4742 61.223,26.0052 C61.223,27.5192 60.111,28.5822 58.822,28.5822 Z M58.822,21.7512 C56.47,21.7512 54.553,23.5402 54.553,26.0052 C54.553,28.4542 56.47,30.2582 58.822,30.2582 C61.175,30.2582 63.092,28.4542 63.092,26.0052 C63.092,23.5402 61.175,21.7512 58.822,21.7512 Z M68.136,28.5822 C66.847,28.5822 65.735,27.5192 65.735,26.0052 C65.735,24.4742 66.847,23.4272 68.136,23.4272 C69.425,23.4272 70.536,24.4742 70.536,26.0052 C70.536,27.5192 69.425,28.5822 68.136,28.5822 Z M68.136,21.7512 C65.784,21.7512 63.867,23.5402 63.867,26.0052 C63.867,28.4542 65.784,30.2582 68.136,30.2582 C70.488,30.2582 72.405,28.4542 72.405,26.0052 C72.405,23.5402 70.488,21.7512 68.136,21.7512 Z" id="Fill-7" fill="#FFFFFF"></path>
            <path d="M42.0507,12.2628 L43.1147,12.2628 C43.8077,12.2628 44.3567,12.0648 44.7617,11.6678 C45.1667,11.2708 45.3687,10.7148 45.3687,9.9998 C45.3687,9.2908 45.1667,8.7368 44.7617,8.3368 C44.3567,7.9378 43.8077,7.7378 43.1147,7.7378 L42.0507,7.7378 L42.0507,12.2628 Z M41.2797,12.9998 L41.2797,6.9998 L43.1147,6.9998 C44.0367,6.9998 44.7747,7.2778 45.3277,7.8338 C45.8807,8.3898 46.1567,9.1118 46.1567,9.9998 C46.1567,10.8878 45.8807,11.6108 45.3277,12.1658 C44.7747,12.7218 44.0367,12.9998 43.1147,12.9998 L41.2797,12.9998 Z" id="Fill-30" fill="#FFFFFF"></path>
            <path d="M42.0507,12.2628 L43.1147,12.2628 C43.8077,12.2628 44.3567,12.0648 44.7617,11.6678 C45.1667,11.2708 45.3687,10.7148 45.3687,9.9998 C45.3687,9.2908 45.1667,8.7368 44.7617,8.3368 C44.3567,7.9378 43.8077,7.7378 43.1147,7.7378 L42.0507,7.7378 L42.0507,12.2628 Z M41.2797,12.9998 L41.2797,6.9998 L43.1147,6.9998 C44.0367,6.9998 44.7747,7.2778 45.3277,7.8338 C45.8807,8.3898 46.1567,9.1118 46.1567,9.9998 C46.1567,10.8878 45.8807,11.6108 45.3277,12.1658 C44.7747,12.7218 44.0367,12.9998 43.1147,12.9998 L41.2797,12.9998 Z" id="Stroke-32" stroke="#FFFFFF" stroke-width="0.2"></path>
            <polygon id="Fill-34" fill="#FFFFFF" points="47.239 13.0002 48.01 13.0002 48.01 7.0002 47.239 7.0002"></polygon>
            <polygon id="Stroke-36" stroke="#FFFFFF" stroke-width="0.2" points="47.239 13.0002 48.01 13.0002 48.01 7.0002 47.239 7.0002"></polygon>
            <path d="M51.0761,13.1339 C50.6401,13.1339 50.2151,12.9919 49.7991,12.7069 C49.3821,12.4219 49.1091,12.0229 48.9811,11.5089 L49.6851,11.2239 C49.7691,11.5529 49.9401,11.8309 50.2001,12.0569 C50.4611,12.2829 50.7521,12.3969 51.0761,12.3969 C51.4111,12.3969 51.6981,12.3089 51.9351,12.1329 C52.1731,11.9569 52.2911,11.7179 52.2911,11.4159 C52.2911,11.0809 52.1731,10.8229 51.9351,10.6409 C51.6981,10.4599 51.3221,10.2909 50.8081,10.1339 C50.2771,9.9669 49.8751,9.7499 49.6011,9.4849 C49.3281,9.2189 49.1901,8.8799 49.1901,8.4669 C49.1901,8.0359 49.3611,7.6619 49.7021,7.3439 C50.0431,7.0259 50.4871,6.8659 51.0341,6.8659 C51.5431,6.8659 51.9561,6.9929 52.2741,7.2469 C52.5931,7.5019 52.8001,7.7799 52.8941,8.0809 L52.1911,8.3739 C52.1401,8.1849 52.0161,8.0089 51.8181,7.8459 C51.6201,7.6849 51.3641,7.6039 51.0511,7.6039 C50.7551,7.6039 50.5021,7.6859 50.2931,7.8509 C50.0831,8.0159 49.9781,8.2209 49.9781,8.4669 C49.9781,8.6899 50.0751,8.8789 50.2671,9.0319 C50.4611,9.1859 50.7441,9.3239 51.1181,9.4469 C51.4141,9.5419 51.6611,9.6339 51.8601,9.7239 C52.0581,9.8129 52.2601,9.9319 52.4631,10.0799 C52.6671,10.2279 52.8201,10.4119 52.9241,10.6329 C53.0271,10.8539 53.0791,11.1089 53.0791,11.3999 C53.0791,11.6899 53.0191,11.9499 52.8991,12.1789 C52.7791,12.4079 52.6191,12.5899 52.4211,12.7239 C52.2221,12.8579 52.0101,12.9599 51.7801,13.0299 C51.5511,13.0989 51.3161,13.1339 51.0761,13.1339" id="Fill-37" fill="#FFFFFF"></path>
            <path d="M51.0761,13.1339 C50.6401,13.1339 50.2151,12.9919 49.7991,12.7069 C49.3821,12.4219 49.1091,12.0229 48.9811,11.5089 L49.6851,11.2239 C49.7691,11.5529 49.9401,11.8309 50.2001,12.0569 C50.4611,12.2829 50.7521,12.3969 51.0761,12.3969 C51.4111,12.3969 51.6981,12.3089 51.9351,12.1329 C52.1731,11.9569 52.2911,11.7179 52.2911,11.4159 C52.2911,11.0809 52.1731,10.8229 51.9351,10.6409 C51.6981,10.4599 51.3221,10.2909 50.8081,10.1339 C50.2771,9.9669 49.8751,9.7499 49.6011,9.4849 C49.3281,9.2189 49.1901,8.8799 49.1901,8.4669 C49.1901,8.0359 49.3611,7.6619 49.7021,7.3439 C50.0431,7.0259 50.4871,6.8659 51.0341,6.8659 C51.5431,6.8659 51.9561,6.9929 52.2741,7.2469 C52.5931,7.5019 52.8001,7.7799 52.8941,8.0809 L52.1911,8.3739 C52.1401,8.1849 52.0161,8.0089 51.8181,7.8459 C51.6201,7.6849 51.3641,7.6039 51.0511,7.6039 C50.7551,7.6039 50.5021,7.6859 50.2931,7.8509 C50.0831,8.0159 49.9781,8.2209 49.9781,8.4669 C49.9781,8.6899 50.0751,8.8789 50.2671,9.0319 C50.4611,9.1859 50.7441,9.3239 51.1181,9.4469 C51.4141,9.5419 51.6611,9.6339 51.8601,9.7239 C52.0581,9.8129 52.2601,9.9319 52.4631,10.0799 C52.6671,10.2279 52.8201,10.4119 52.9241,10.6329 C53.0271,10.8539 53.0791,11.1089 53.0791,11.3999 C53.0791,11.6899 53.0191,11.9499 52.8991,12.1789 C52.7791,12.4079 52.6191,12.5899 52.4211,12.7239 C52.2221,12.8579 52.0101,12.9599 51.7801,13.0299 C51.5511,13.0989 51.3161,13.1339 51.0761,13.1339 Z" id="Stroke-38" stroke="#FFFFFF" stroke-width="0.2"></path>
            <path d="M54.956,9.8321 L56.247,9.8321 C56.571,9.8321 56.831,9.7241 57.026,9.5061 C57.222,9.2881 57.319,9.0481 57.319,8.7851 C57.319,8.5221 57.222,8.2821 57.026,8.0641 C56.831,7.8461 56.571,7.7371 56.247,7.7371 L54.956,7.7371 L54.956,9.8321 Z M54.956,13.0001 L54.185,13.0001 L54.185,7.0001 L56.23,7.0001 C56.738,7.0001 57.179,7.1691 57.55,7.5071 C57.922,7.8451 58.107,8.2711 58.107,8.7851 C58.107,9.2991 57.922,9.7251 57.55,10.0621 C57.179,10.4011 56.738,10.5701 56.23,10.5701 L54.956,10.5701 L54.956,13.0001 Z" id="Fill-39" fill="#FFFFFF"></path>
            <path d="M54.956,9.8321 L56.247,9.8321 C56.571,9.8321 56.831,9.7241 57.026,9.5061 C57.222,9.2881 57.319,9.0481 57.319,8.7851 C57.319,8.5221 57.222,8.2821 57.026,8.0641 C56.831,7.8461 56.571,7.7371 56.247,7.7371 L54.956,7.7371 L54.956,9.8321 Z M54.956,13.0001 L54.185,13.0001 L54.185,7.0001 L56.23,7.0001 C56.738,7.0001 57.179,7.1691 57.55,7.5071 C57.922,7.8451 58.107,8.2711 58.107,8.7851 C58.107,9.2991 57.922,9.7251 57.55,10.0621 C57.179,10.4011 56.738,10.5701 56.23,10.5701 L54.956,10.5701 L54.956,13.0001 Z" id="Stroke-40" stroke="#FFFFFF" stroke-width="0.2"></path>
            <path d="M60.1552,11.7223 C60.5992,12.1723 61.1422,12.3963 61.7852,12.3963 C62.4272,12.3963 62.9712,12.1723 63.4152,11.7223 C63.8592,11.2723 64.0822,10.6983 64.0822,10.0003 C64.0822,9.3023 63.8592,8.7273 63.4152,8.2783 C62.9712,7.8283 62.4272,7.6033 61.7852,7.6033 C61.1422,7.6033 60.5992,7.8283 60.1552,8.2783 C59.7122,8.7273 59.4892,9.3023 59.4892,10.0003 C59.4892,10.6983 59.7122,11.2723 60.1552,11.7223 M63.9852,12.2243 C63.3952,12.8313 62.6622,13.1343 61.7852,13.1343 C60.9082,13.1343 60.1752,12.8313 59.5862,12.2243 C58.9962,11.6183 58.7022,10.8773 58.7022,10.0003 C58.7022,9.1233 58.9962,8.3813 59.5862,7.7753 C60.1752,7.1693 60.9082,6.8663 61.7852,6.8663 C62.6572,6.8663 63.3882,7.1703 63.9812,7.7793 C64.5732,8.3883 64.8692,9.1283 64.8692,10.0003 C64.8692,10.8773 64.5742,11.6183 63.9852,12.2243" id="Fill-41" fill="#FFFFFF"></path>
            <path d="M60.1552,11.7223 C60.5992,12.1723 61.1422,12.3963 61.7852,12.3963 C62.4272,12.3963 62.9712,12.1723 63.4152,11.7223 C63.8592,11.2723 64.0822,10.6983 64.0822,10.0003 C64.0822,9.3023 63.8592,8.7273 63.4152,8.2783 C62.9712,7.8283 62.4272,7.6033 61.7852,7.6033 C61.1422,7.6033 60.5992,7.8283 60.1552,8.2783 C59.7122,8.7273 59.4892,9.3023 59.4892,10.0003 C59.4892,10.6983 59.7122,11.2723 60.1552,11.7223 Z M63.9852,12.2243 C63.3952,12.8313 62.6622,13.1343 61.7852,13.1343 C60.9082,13.1343 60.1752,12.8313 59.5862,12.2243 C58.9962,11.6183 58.7022,10.8773 58.7022,10.0003 C58.7022,9.1233 58.9962,8.3813 59.5862,7.7753 C60.1752,7.1693 60.9082,6.8663 61.7852,6.8663 C62.6572,6.8663 63.3882,7.1703 63.9812,7.7793 C64.5732,8.3883 64.8692,9.1283 64.8692,10.0003 C64.8692,10.8773 64.5742,11.6183 63.9852,12.2243 Z" id="Stroke-42" stroke="#FFFFFF" stroke-width="0.2"></path>
            <polygon id="Fill-43" fill="#FFFFFF" points="65.9511 13.0001 65.9511 7.0001 66.8891 7.0001 69.8051 11.6671 69.8391 11.6671 69.8051 10.5111 69.8051 7.0001 70.5771 7.0001 70.5771 13.0001 69.7721 13.0001 66.7221 8.1061 66.6881 8.1061 66.7221 9.2631 66.7221 13.0001"></polygon>
            <polygon id="Stroke-44" stroke="#FFFFFF" stroke-width="0.2" points="65.9511 13.0001 65.9511 7.0001 66.8891 7.0001 69.8051 11.6671 69.8391 11.6671 69.8051 10.5111 69.8051 7.0001 70.5771 7.0001 70.5771 13.0001 69.7721 13.0001 66.7221 8.1061 66.6881 8.1061 66.7221 9.2631 66.7221 13.0001"></polygon>
            <polygon id="Fill-45" fill="#FFFFFF" points="71.951 13.0002 72.722 13.0002 72.722 7.0002 71.951 7.0002"></polygon>
            <polygon id="Stroke-46" stroke="#FFFFFF" stroke-width="0.2" points="71.951 13.0002 72.722 13.0002 72.722 7.0002 71.951 7.0002"></polygon>
            <path d="M74.8661,12.2628 L76.4171,12.2628 C76.7131,12.2628 76.9531,12.1588 77.1371,11.9518 C77.3221,11.7458 77.4141,11.5198 77.4141,11.2738 C77.4141,11.0278 77.3191,10.8038 77.1291,10.5988 C76.9391,10.3958 76.6901,10.2928 76.3831,10.2928 L74.8661,10.2928 L74.8661,12.2628 Z M74.8661,9.5728 L76.2651,9.5728 C76.5561,9.5728 76.7901,9.4768 76.9661,9.2838 C77.1411,9.0908 77.2291,8.8798 77.2291,8.6508 C77.2291,8.4218 77.1441,8.2118 76.9731,8.0228 C76.8031,7.8328 76.5791,7.7378 76.3001,7.7378 L74.8661,7.7378 L74.8661,9.5728 Z M74.0951,12.9998 L74.0951,6.9998 L76.2651,6.9998 C76.7351,6.9998 77.1411,7.1558 77.4851,7.4648 C77.8291,7.7758 78.0011,8.1648 78.0011,8.6338 C78.0011,8.9188 77.9271,9.1708 77.7781,9.3878 C77.6311,9.6068 77.4331,9.7708 77.1871,9.8828 L77.1871,9.9158 C77.4831,10.0168 77.7261,10.1898 77.9171,10.4358 C78.1061,10.6818 78.2021,10.9668 78.2021,11.2908 C78.2021,11.7828 78.0211,12.1898 77.6611,12.5138 C77.3011,12.8378 76.8751,12.9998 76.3831,12.9998 L74.0951,12.9998 Z" id="Fill-47" fill="#FFFFFF"></path>
            <path d="M74.8661,12.2628 L76.4171,12.2628 C76.7131,12.2628 76.9531,12.1588 77.1371,11.9518 C77.3221,11.7458 77.4141,11.5198 77.4141,11.2738 C77.4141,11.0278 77.3191,10.8038 77.1291,10.5988 C76.9391,10.3958 76.6901,10.2928 76.3831,10.2928 L74.8661,10.2928 L74.8661,12.2628 Z M74.8661,9.5728 L76.2651,9.5728 C76.5561,9.5728 76.7901,9.4768 76.9661,9.2838 C77.1411,9.0908 77.2291,8.8798 77.2291,8.6508 C77.2291,8.4218 77.1441,8.2118 76.9731,8.0228 C76.8031,7.8328 76.5791,7.7378 76.3001,7.7378 L74.8661,7.7378 L74.8661,9.5728 Z M74.0951,12.9998 L74.0951,6.9998 L76.2651,6.9998 C76.7351,6.9998 77.1411,7.1558 77.4851,7.4648 C77.8291,7.7758 78.0011,8.1648 78.0011,8.6338 C78.0011,8.9188 77.9271,9.1708 77.7781,9.3878 C77.6311,9.6068 77.4331,9.7708 77.1871,9.8828 L77.1871,9.9158 C77.4831,10.0168 77.7261,10.1898 77.9171,10.4358 C78.1061,10.6818 78.2021,10.9668 78.2021,11.2908 C78.2021,11.7828 78.0211,12.1898 77.6611,12.5138 C77.3011,12.8378 76.8751,12.9998 76.3831,12.9998 L74.0951,12.9998 Z" id="Stroke-48" stroke="#FFFFFF" stroke-width="0.2"></path>
            <polygon id="Fill-49" fill="#FFFFFF" points="79.2411 13.0001 79.2411 7.0001 80.0121 7.0001 80.0121 12.2631 82.6091 12.2631 82.6091 13.0001"></polygon>
            <polygon id="Stroke-50" stroke="#FFFFFF" stroke-width="0.2" points="79.2411 13.0001 79.2411 7.0001 80.0121 7.0001 80.0121 12.2631 82.6091 12.2631 82.6091 13.0001"></polygon>
            <polygon id="Fill-51" fill="#FFFFFF" points="87.0849 7.7374 84.3529 7.7374 84.3529 9.6394 86.8159 9.6394 86.8159 10.3604 84.3529 10.3604 84.3529 12.2624 87.0849 12.2624 87.0849 13.0004 83.5819 13.0004 83.5819 7.0004 87.0849 7.0004"></polygon>
            <polygon id="Stroke-52" stroke="#FFFFFF" stroke-width="0.2" points="87.0849 7.7374 84.3529 7.7374 84.3529 9.6394 86.8159 9.6394 86.8159 10.3604 84.3529 10.3604 84.3529 12.2624 87.0849 12.2624 87.0849 13.0004 83.5819 13.0004 83.5819 7.0004 87.0849 7.0004"></polygon>
            <polygon id="Fill-53" fill="#FFFFFF" points="93.8056 7.7374 91.0736 7.7374 91.0736 9.6394 93.5366 9.6394 93.5366 10.3604 91.0736 10.3604 91.0736 12.2624 93.8056 12.2624 93.8056 13.0004 90.3026 13.0004 90.3026 7.0004 93.8056 7.0004"></polygon>
            <polygon id="Stroke-54" stroke="#FFFFFF" stroke-width="0.2" points="93.8056 7.7374 91.0736 7.7374 91.0736 9.6394 93.5366 9.6394 93.5366 10.3604 91.0736 10.3604 91.0736 12.2624 93.8056 12.2624 93.8056 13.0004 90.3026 13.0004 90.3026 7.0004 93.8056 7.0004"></polygon>
            <polygon id="Fill-55" fill="#FFFFFF" points="95.0116 13.0001 95.0116 7.0001 95.9496 7.0001 98.8656 11.6671 98.8996 11.6671 98.8656 10.5111 98.8656 7.0001 99.6376 7.0001 99.6376 13.0001 98.8326 13.0001 95.7826 8.1061 95.7486 8.1061 95.7826 9.2631 95.7826 13.0001"></polygon>
            <polygon id="Stroke-56" stroke="#FFFFFF" stroke-width="0.2" points="95.0116 13.0001 95.0116 7.0001 95.9496 7.0001 98.8656 11.6671 98.8996 11.6671 98.8656 10.5111 98.8656 7.0001 99.6376 7.0001 99.6376 13.0001 98.8326 13.0001 95.7826 8.1061 95.7486 8.1061 95.7826 9.2631 95.7826 13.0001"></polygon>
            <g id="Group-11" transform="translate(10.000000, 7.000000)" fill="#FFFFFF" stroke="#0040A8">
                <path d="M0.463,0.3976 C0.172,0.7056 0,1.1836 0,1.8026 L0,23.9186 C0,24.5386 0.172,25.0156 0.463,25.3236 L0.537,25.3956 L12.926,13.0066 L12.926,12.8606 L12.926,12.7146 L0.537,0.3246 L0.463,0.3976 Z" id="Fill-1"></path>
                <path d="M17.0552,17.1378 L12.9262,13.0068 L12.9262,12.8608 L12.9262,12.7148 L17.0562,8.5838 L17.1492,8.6368 L22.0422,11.4168 C23.4392,12.2108 23.4392,13.5108 22.0422,14.3048 L17.1492,17.0848 L17.0552,17.1378 Z" id="Fill-3"></path>
                <path d="M17.1495,17.0846 L12.9255,12.8606 L0.4625,25.3236 C0.9235,25.8116 1.6845,25.8716 2.5415,25.3846 L17.1495,17.0846" id="Fill-5"></path>
                <path d="M17.1495,8.6363 L2.5415,0.3363 C1.6845,-0.1507 0.9235,-0.0907 0.4625,0.3973 L12.9255,12.8603 L17.1495,8.6363 Z" id="Fill-8"></path>
            </g>
        </g>
    </g>
</svg>