<?xml version="1.0" encoding="UTF-8"?>
<svg width="101px" height="26px" viewBox="0 0 101 26" version="1.1" xmlns="http://www.w3.org/2000/svg" xmlns:xlink="http://www.w3.org/1999/xlink">
    <!-- Generator: Sketch 51.3 (57544) - http://www.bohemiancoding.com/sketch -->
    <title>Group 4 Copy 2</title>
    <desc>Created with Sketch.</desc>
    <defs></defs>
    <g id="New-Landing" stroke="none" stroke-width="1" fill="none" fill-rule="evenodd">
        <g id="Group-4-Copy-2" transform="translate(-17.000000, -7.000000)">
            <g id="Download_on_the_App_Store_Badge_ES_RGB_blk_100217" transform="translate(16.666667, 6.666667)" fill="#FFFFFF" fill-rule="nonzero">
                <g id="Group">
                    <g id="_Group_" transform="translate(0.698770, 0.500000)">
                        <g id="_Group_2">
                            <g id="_Group_3">
                                <path d="M14.9678599,12.30068 C14.9897617,10.6042091 15.8809702,9.03718611 17.329249,8.14862 C16.4114447,6.84051277 14.9292931,6.04087835 13.3299104,5.99094 C11.6472293,5.81468 10.0159433,6.99577 9.15847982,6.99577 C8.28442238,6.99577 6.96422259,6.00844 5.54258536,6.03763 C3.67208146,6.09793842 1.97053773,7.13352548 1.06049954,8.7655 C-0.877463579,12.11392 0.568082548,17.03497 2.42448888,19.74158 C3.35328827,21.06693 4.4387881,22.54738 5.85914271,22.49488 C7.24904505,22.43735 7.76814661,21.6104 9.44587755,21.6104 C11.1080366,21.6104 11.5950626,22.49488 13.0442362,22.4615 C14.5356661,22.43734 15.4753377,21.13026 16.3715505,19.79236 C17.0388913,18.8479997 17.552409,17.8042759 17.893082,16.69985 C16.1217161,15.9521813 14.9699274,14.2200343 14.9678599,12.30068 Z" id="_Path_"></path>
                                <path d="M12.2306323,4.21089 C13.0438219,3.23668191 13.4444495,1.98450245 13.3474362,0.72027 C12.1050634,0.850490487 10.9574589,1.44304968 10.1332833,2.37988 C9.31944772,3.30418903 8.90716051,4.51343268 8.98722962,5.74127 C10.2462612,5.75420677 11.441685,5.19015322 12.2306323,4.21089 Z" id="_Path_2"></path>
                            </g>
                        </g>
                        <g id="Group" transform="translate(24.217896, 9.833333)">
                            <path d="M8.31928285,9.30631667 L3.57618326,9.30631667 L2.43713391,12.6627667 L0.428145553,12.6627667 L4.92073285,0.244766667 L7.00800129,0.244766667 L11.5005886,12.6627667 L9.45734016,12.6627667 L8.31928285,9.30631667 Z M4.06741783,7.75748667 L7.82710635,7.75748667 L5.97370617,2.31021667 L5.9218401,2.31021667 L4.06741783,7.75748667 Z" id="Shape"></path>
                            <path d="M21.20305,8.13639667 C21.20305,10.9498767 19.6941042,12.7574867 17.4169876,12.7574867 C16.2399658,12.8189313 15.1312757,12.2036974 14.5625202,11.1734867 L14.5194321,11.1734867 L14.5194321,15.6578667 L12.6572239,15.6578667 L12.6572239,3.60904667 L14.4597701,3.60904667 L14.4597701,5.11490667 L14.4940201,5.11490667 C15.0880432,4.09115458 16.1979289,3.4761855 17.3827375,3.51431667 C19.6852561,3.51432667 21.20305,5.33072667 21.20305,8.13639667 Z M19.2889758,8.13639667 C19.2889758,6.30339667 18.3397646,5.09830667 16.8914929,5.09830667 C15.4686633,5.09830667 14.5116261,6.32877667 14.5116261,8.13639667 C14.5116261,9.96061667 15.4686633,11.1822967 16.8914929,11.1822967 C18.3397747,11.1822967 19.2889758,9.98600667 19.2889758,8.13639667 Z" id="Shape"></path>
                            <path d="M31.1883098,8.13639667 C31.1883098,10.9498767 29.679364,12.7574867 27.4022473,12.7574867 C26.2252256,12.8189313 25.1165355,12.2036974 24.54778,11.1734867 L24.5046918,11.1734867 L24.5046918,15.6578667 L22.6424836,15.6578667 L22.6424836,3.60904667 L24.4449898,3.60904667 L24.4449898,5.11490667 L24.4792398,5.11490667 C25.0732672,4.0911552 26.1831571,3.47618974 27.3679672,3.51432667 C29.670556,3.51432667 31.1883098,5.33072667 31.1883098,8.13639667 Z M29.2742355,8.13639667 C29.2742355,6.30339667 28.3250244,5.09830667 26.8767527,5.09830667 C25.453923,5.09830667 24.4968859,6.32877667 24.4968859,8.13639667 C24.4968859,9.96061667 25.453923,11.1822967 26.8767527,11.1822967 C28.3250344,11.1822967 29.2742455,9.98600667 29.2742455,8.13639667 L29.2742355,8.13639667 Z" id="Shape"></path>
                            <path d="M37.7877456,9.20279667 C37.9257277,10.4342467 39.1244792,11.2427967 40.7625791,11.2427967 C42.3321989,11.2427967 43.4614582,10.4342067 43.4614582,9.32384667 C43.4614582,8.35997667 42.7803754,7.78284667 41.1677075,7.38732667 L39.5550397,6.99962667 C37.270097,6.44884667 36.2093277,5.38243667 36.2093277,3.65196667 C36.2093277,1.50938667 38.0803439,0.0377066667 40.737137,0.0377066667 C43.3665141,0.0377066667 45.1690502,1.50938667 45.2297243,3.65196667 L43.3498801,3.65196667 C43.2373499,2.41270667 42.2108307,1.66466667 40.710693,1.66466667 C39.2105552,1.66466667 38.184046,2.42150667 38.184046,3.52306667 C38.184046,4.40099667 38.8396868,4.91759667 40.4435466,5.31306667 L41.8145102,5.64900667 C44.3675812,6.25154667 45.4283505,7.27500667 45.4283505,9.09138667 C45.4283505,11.4146267 43.5739683,12.8697067 40.6245768,12.8697067 C37.8650236,12.8697067 36.0018434,11.4488067 35.8814773,9.20270667 L37.7877456,9.20279667 Z" id="Shape"></path>
                            <path d="M49.4473293,1.46646667 L49.4473293,3.60904667 L51.1725373,3.60904667 L51.1725373,5.08072667 L49.4473293,5.08072667 L49.4473293,10.0719367 C49.4473293,10.8473267 49.7927657,11.2086567 50.5511466,11.2086567 C50.7559569,11.2050926 50.9604357,11.1907393 51.1637293,11.1656567 L51.1637293,12.6285467 C50.8227603,12.6921262 50.4761941,12.7209212 50.1293841,12.7144867 C48.2926279,12.7144867 47.5763131,12.0260067 47.5763131,10.2701467 L47.5763131,5.08072667 L46.2572155,5.08072667 L46.2572155,3.60904667 L47.576293,3.60904667 L47.576293,1.46646667 L49.4473293,1.46646667 Z" id="Shape"></path>
                            <path d="M52.1716906,8.13639667 C52.1716906,5.28776667 53.8528585,3.49772667 56.4744397,3.49772667 C59.1048187,3.49772667 60.7781607,5.28772667 60.7781607,8.13639667 C60.7781607,10.9928467 59.1136268,12.7750667 56.4744397,12.7750667 C53.8361844,12.7750667 52.1716906,10.9928367 52.1716906,8.13639667 Z M58.8807205,8.13639667 C58.8807205,6.18229667 57.9833754,5.02897667 56.4744296,5.02897667 C54.9654839,5.02897667 54.0691208,6.19108667 54.0691208,8.13639667 C54.0691208,10.0983067 54.9654839,11.2428467 56.4744296,11.2428467 C57.9833754,11.2428467 58.8806804,10.0983067 58.8806804,8.13639667 L58.8807205,8.13639667 Z" id="Shape"></path>
                            <path d="M62.3134905,3.60904667 L64.0895825,3.60904667 L64.0895825,5.15004667 L64.1326707,5.15004667 C64.3803532,4.15803507 65.2911723,3.47529822 66.3148632,3.51430667 C66.5294661,3.5135589 66.7434769,3.53681741 66.952888,3.58364667 L66.952888,5.32192667 C66.6819649,5.23930999 66.3993456,5.20137796 66.1161769,5.20962667 C65.5687055,5.18746211 65.0388747,5.4052014 64.6658024,5.80567264 C64.29273,6.20614388 64.1136884,6.74933741 64.1756886,7.29262667 L64.1756886,12.6627467 L62.3134804,12.6627467 L62.3134905,3.60904667 Z" id="Shape"></path>
                            <path d="M75.538776,10.0035767 C75.2882637,11.6471267 73.6843938,12.7750567 71.6323474,12.7750567 C68.9931603,12.7750567 67.3550504,11.0104067 67.3550504,8.17935667 C67.3550504,5.33951667 69.0019683,3.49771667 71.5540673,3.49771667 C74.0640803,3.49771667 75.6425082,5.21841667 75.6425082,7.96353667 L75.6425082,8.60025667 L69.2348746,8.60025667 L69.2348746,8.71255667 C69.1750497,9.38658829 69.4082708,10.0537861 69.875214,10.5444366 C70.3421572,11.0350871 70.9978173,11.3019 71.6754155,11.2770067 C72.5791058,11.3615063 73.4311089,10.8436443 73.77052,10.0035667 L75.538776,10.0035767 Z M69.243665,7.30143667 L73.779318,7.30142667 C73.8131125,6.69576416 73.5921918,6.10348975 73.1697815,5.66729821 C72.7473712,5.23110668 72.1617709,4.99054708 71.5540673,5.00357667 C70.9415565,4.9999289 70.3529618,5.2406013 69.9191094,5.67209991 C69.485257,6.10359853 69.2420957,6.69016959 69.243665,7.30143667 Z" id="Shape"></path>
                        </g>
                    </g>
                </g>
                <g id="_Group_4" transform="translate(25.918716, 0.500000)">
                    <g id="Group">
                        <path d="M0.428626537,3.71631 C0.428626537,1.78125 1.46003576,0.58594 3.12163371,0.58594 C4.36337606,0.524565194 5.44473733,1.4238546 5.60816865,2.65381 L4.68342756,2.65381 C4.52330073,1.92829039 3.86550419,1.42135377 3.12163371,1.4502 C2.04814844,1.4502 1.37685566,2.32276 1.37685566,3.71631 C1.37685566,5.10596 2.04814844,5.97803 3.12555172,5.97803 C3.84182555,6.03152743 4.49537618,5.5702257 4.68342756,4.87842 L5.60816865,4.87842 C5.42109731,6.0793506 4.33987522,6.93464954 3.12555172,6.84229 C1.46399385,6.84229 0.428626537,5.64746 0.428626537,3.71631 Z" id="Shape"></path>
                        <path d="M6.62391584,4.44434 C6.54654474,3.63722505 6.93435435,2.85611193 7.62469836,2.42859737 C8.31504237,2.0010828 9.18856232,2.0010828 9.87890633,2.42859737 C10.5692503,2.85611193 10.9570599,3.63722505 10.8796889,4.44434 C10.958532,5.25232226 10.5710764,6.03495038 9.88012029,6.4633853 C9.18916418,6.89182022 8.31444052,6.89182022 7.62348441,6.4633853 C6.93252829,6.03495038 6.54507267,5.25232226 6.62391584,4.44434 Z M9.96374576,4.44434 C9.96374576,3.46827 9.52436723,2.89747 8.75327035,2.89747 C7.97922744,2.89747 7.54379699,3.46827 7.54379699,4.44435 C7.54379699,5.42824 7.9792575,5.99464 8.75327035,5.99464 C9.52437725,5.99463 9.96375578,5.42432 9.96375578,4.44434 L9.96374576,4.44434 Z" id="Shape"></path>
                        <path d="M12.0745123,2.19482 L12.9317353,2.19482 L12.9317353,2.91015 L12.9982814,2.91015 C13.2296894,2.38347794 13.7704232,2.06130747 14.3447849,2.1079 C14.7895112,2.07453177 15.2253115,2.2447899 15.5291377,2.57060207 C15.8329639,2.89641424 15.9718453,3.34242376 15.9065688,3.7827 L15.9065688,6.6977 L15.0160777,6.6977 L15.0160777,4.00586 C15.0160777,3.28223 14.7009834,2.92236 14.0424066,2.92236 C13.7407555,2.90833912 13.4480112,3.02648257 13.2409222,3.24581678 C13.0338331,3.465151 12.933053,3.76380101 12.9650033,4.06347 L12.9650033,6.69775 L12.0745123,6.69775 L12.0745123,2.19482 Z" id="Shape"></path>
                        <path d="M18.9332683,2.10791 C19.9480435,2.10791 20.6115003,2.5791 20.6985984,3.37305 L19.8443114,3.37305 C19.7621434,3.04248 19.4382109,2.83155 18.9332683,2.83155 C18.4361618,2.83155 18.0584794,3.0669 18.0584794,3.41846 C18.0584794,3.68746 18.2864857,3.85694 18.7757662,3.96875 L19.525299,4.14209 C20.3835041,4.34082 20.7856865,4.70898 20.7856865,5.37061 C20.7856865,6.21827 19.9940677,6.78467 18.9166343,6.78467 C17.8431491,6.78467 17.1434782,6.30078 17.0642161,5.50293 L17.9557193,5.50293 C18.1138246,5.89376623 18.5193191,6.12595019 18.9372164,6.06493 C19.4920611,6.06493 19.8864275,5.81693 19.8864275,5.45702 C19.8864275,5.18847 19.6750553,5.01464 19.2229608,4.90722 L18.4361918,4.72509 C17.5779868,4.52245 17.1806943,4.13818 17.1806943,3.46825 C17.1806643,2.66992 17.9136332,2.10791 18.9332683,2.10791 Z" id="Shape"></path>
                        <path d="M21.9100558,1.44189 L22.9502731,0.01953 L23.9944083,0.01953 L22.8299069,1.44189 L21.9100558,1.44189 Z M22.002044,2.19482 L22.888627,2.19482 L22.888627,6.69775 L22.002044,6.69775 L22.002044,2.19482 Z" id="Shape"></path>
                        <path d="M24.2752526,7.14844 L25.1862957,7.14844 C25.2616498,7.4751 25.6383902,7.68604 26.239229,7.68604 C26.9809758,7.68604 27.4203543,7.33448 27.4203543,6.73926 L27.4203543,5.875 L27.3538083,5.875 C27.0690106,6.36829156 26.53104,6.66049601 25.9613106,6.63135 C24.8095453,6.63135 24.0971484,5.74268 24.0971484,4.39453 C24.0971484,3.02153 24.8173713,2.12012 25.9701186,2.12012 C26.5539726,2.09983016 27.1004647,2.40604072 27.3870763,2.91407 L27.4575304,2.91407 L27.4575304,2.19483 L28.3108354,2.19483 L28.3108354,6.73483 C28.3108354,7.76462 27.5025424,8.41794 26.2264929,8.41794 C25.0991976,8.418 24.3701667,7.91357 24.2752526,7.14844 Z M27.4369884,4.39014 C27.4369884,3.49314 26.9721678,2.91846 26.2137869,2.91846 C25.44757,2.91846 25.0169995,3.49317 25.0169995,4.39014 C25.0169995,5.2876 25.44757,5.86231 26.2137869,5.86231 C26.9770678,5.8623 27.4369884,5.292 27.4369884,4.39014 Z" id="Shape"></path>
                        <path d="M33.5339265,6.69775 L32.6757215,6.69775 L32.6757215,5.98242 L32.6052674,5.98242 C32.3713172,6.51479426 31.8221856,6.83797577 31.2421298,6.78467 C30.8000936,6.81597931 30.3675991,6.64600204 30.0656609,6.32229884 C29.7637226,5.99859564 29.6247694,5.5559328 29.687681,5.11817 L29.687681,2.19482 L30.5796451,2.19482 L30.5796451,4.88671 C30.5796451,5.61425 30.8732455,5.96191 31.5278742,5.96191 C31.8352783,5.9910217 32.1394397,5.88019759 32.3557325,5.66027195 C32.5720252,5.44034631 32.6773687,5.13478741 32.6424535,4.82861 L32.6424535,2.19482 L33.5339265,2.19482 L33.5339265,6.69775 Z" id="Shape"></path>
                        <path d="M38.7682807,5.48193 C38.5185771,6.33130948 37.6949347,6.88010304 36.8131124,6.78466 C36.211444,6.80051066 35.633207,6.55162983 35.2318227,6.10405194 C34.8304383,5.65647405 34.6464849,5.05544753 34.72877,4.46044 C34.6486736,3.86378048 34.8319392,3.26179373 35.2310881,2.81043696 C35.6302369,2.35908018 36.2059929,2.10276675 36.8091944,2.1079 C38.0646919,2.1079 38.8221008,2.9639 38.8221008,4.3779 L38.8221008,4.688 L35.635875,4.688 L35.635875,4.7378 C35.6076794,5.07194014 35.7220319,5.40244775 35.9508098,5.6480407 C36.1795877,5.89363365 36.5015632,6.03152392 36.8375524,6.0278 C37.2732152,6.07999468 37.6973031,5.86433304 37.9110377,5.4819 L38.7682807,5.48193 Z M35.635875,4.03076 L37.9149457,4.03076 C37.937645,3.72516044 37.8299704,3.42420507 37.6184563,3.20205909 C37.4069422,2.97991311 37.1112596,2.85723623 36.8042744,2.86426 C36.4931266,2.86035347 36.1935848,2.9820134 35.973599,3.20164165 C35.7536131,3.42126989 35.6318297,3.72025022 35.635875,4.03076 Z" id="Shape"></path>
                        <polygon id="Shape" points="40.0589902 0.437 40.9494813 0.437 40.9494813 6.69774 40.0589902 6.69774"></polygon>
                        <path d="M42.1873627,4.44434 C42.1099916,3.63722505 42.4978012,2.85611193 43.1881452,2.42859737 C43.8784893,2.0010828 44.7520092,2.0010828 45.4423532,2.42859737 C46.1326972,2.85611193 46.5205068,3.63722505 46.4431357,4.44434 C46.5219789,5.25232226 46.1345233,6.03495038 45.4435672,6.4633853 C44.7526111,6.89182022 43.8778874,6.89182022 43.1869313,6.4633853 C42.4959752,6.03495038 42.1085196,5.25232226 42.1873627,4.44434 Z M45.5271926,4.44434 C45.5271926,3.46827 45.0878141,2.89747 44.3167172,2.89747 C43.5426743,2.89747 43.1072439,3.46827 43.1072439,4.44435 C43.1072439,5.42824 43.5427044,5.99464 44.3167172,5.99464 C45.0878342,5.99463 45.5272027,5.42432 45.5272027,4.44434 L45.5271926,4.44434 Z" id="Shape"></path>
                        <path d="M53.9017485,5.48193 C53.6520449,6.33130948 52.8284024,6.88010304 51.9465802,6.78466 C51.3449117,6.80051066 50.7666748,6.55162983 50.3652904,6.10405194 C49.9639061,5.65647405 49.7799527,5.05544753 49.8622378,4.46044 C49.7821414,3.86378048 49.965407,3.26179373 50.3645558,2.81043696 C50.7637047,2.35908018 51.3394607,2.10276675 51.9426622,2.1079 C53.1981597,2.1079 53.9555686,2.9639 53.9555686,4.3779 L53.9555686,4.688 L50.7693728,4.688 L50.7693728,4.7378 C50.7411772,5.07194014 50.8555298,5.40244775 51.0843077,5.6480407 C51.3130856,5.89363365 51.6350611,6.03152392 51.9710503,6.0278 C52.406713,6.07999468 52.830801,5.86433304 53.0445355,5.4819 L53.9017485,5.48193 Z M50.7693428,4.03076 L53.0484836,4.03076 C53.0711829,3.72516044 52.9635083,3.42420507 52.7519942,3.20205909 C52.5404801,2.97991311 52.2447976,2.85723623 51.9378123,2.86426 C51.6266576,2.8603426 51.3271054,2.98199772 51.1071108,3.20162717 C50.8871162,3.42125663 50.7653274,3.7202432 50.7693728,4.03076 L50.7693428,4.03076 Z" id="Shape"></path>
                        <path d="M55.151374,2.19482 L56.008597,2.19482 L56.008597,2.91015 L56.0751431,2.91015 C56.3065512,2.38347794 56.847285,2.06130747 57.4216467,2.1079 C57.8663729,2.07453177 58.3021732,2.2447899 58.6059994,2.57060207 C58.9098257,2.89641424 59.0487071,3.34242376 58.9834305,3.7827 L58.9834305,6.6977 L58.0929395,6.6977 L58.0929395,4.00586 C58.0929395,3.28223 57.7778451,2.92236 57.1192683,2.92236 C56.8176173,2.90833912 56.524873,3.02648257 56.3177839,3.24581678 C56.1106948,3.465151 56.0099147,3.76380101 56.041865,4.06347 L56.041865,6.69775 L55.151374,6.69775 L55.151374,2.19482 Z" id="Shape"></path>
                        <path d="M66.6240555,5.48193 C66.3743519,6.33130948 65.5507094,6.88010304 64.6688872,6.78466 C64.0672187,6.80051066 63.4889818,6.55162983 63.0875974,6.10405194 C62.6862131,5.65647405 62.5022597,5.05544753 62.5845448,4.46044 C62.5044483,3.86378048 62.687714,3.26179373 63.0868628,2.81043696 C63.4860117,2.35908018 64.0617677,2.10276675 64.6649692,2.1079 C65.9204667,2.1079 66.6778756,2.9639 66.6778756,4.3779 L66.6778756,4.688 L63.4916798,4.688 L63.4916798,4.7378 C63.4634842,5.07194014 63.5778368,5.40244775 63.8066147,5.6480407 C64.0353926,5.89363365 64.357368,6.03152392 64.6933573,6.0278 C65.12902,6.07999468 65.5531079,5.86433304 65.7668425,5.4819 L66.6240555,5.48193 Z M63.4916498,4.03076 L65.7707205,4.03076 C65.7934198,3.72516044 65.6857451,3.42420507 65.4742311,3.20205909 C65.262717,2.97991311 64.9670344,2.85723623 64.6600491,2.86426 C64.3489066,2.86036163 64.0493726,2.98202516 63.8293933,3.2016525 C63.609414,3.42127985 63.4876347,3.72025549 63.4916798,4.03076 L63.4916498,4.03076 Z" id="Shape"></path>
                        <polygon id="Shape" points="67.914785 0.437 68.8052761 0.437 68.8052761 6.69774 67.914785 6.69774"></polygon>
                    </g>
                </g>
            </g>
            <path d="M130,0 L5,0 C2.25,0 0,2.25 0,5 L0,35 C0,37.75 2.25,40 5,40 L130,40 C132.75,40 135,37.75 135,35 L135,5 C135,2.25 132.75,0 130,0" id="Fill-4"></path>
        </g>
    </g>
</svg>