<?xml version="1.0" encoding="UTF-8"?>
<svg width="49px" height="43px" viewBox="0 0 49 43" version="1.1" xmlns="http://www.w3.org/2000/svg" xmlns:xlink="http://www.w3.org/1999/xlink">
    <!-- Generator: Sketch 62 (91390) - https://sketch.com -->
    <title>Group 27 Copy 3</title>
    <desc>Created with Sketch.</desc>
    <g id="Page-1" stroke="none" stroke-width="1" fill="none" fill-rule="evenodd">
        <g id="Landing-Campañas-Mobile-Copy-10" transform="translate(-63.000000, -748.000000)" fill-rule="nonzero">
            <g id="Group-27-Copy-3" transform="translate(64.000000, 749.000000)">
                <path d="M16.6143781,-6.78625346e-13 C25.3073053,-6.78625346e-13 32.3543152,3.09392384 32.3543152,6.91047232 C32.3543152,7.46874784 32.2035294,8.01156126 31.9188628,8.5314906 L31.9170948,29.8014119 L30.335603,29.8015649 C28.0005462,32.3340254 22.345418,34.1204571 15.7399371,34.1204571 C9.13445624,34.1204571 3.47932805,32.3340254 1.14427132,29.8015649 L-7.96837504e-13,29.8014119 L-7.96837504e-13,5.61475876 L1.15081128,5.61442845 C2.53250497,2.41738362 8.93043708,-6.78625346e-13 16.6143781,-6.78625346e-13 Z" id="Combined-Shape" fill="#F2F6F8"></path>
                <path d="M-7.83702819e-13,10.2465624 L-7.83702819e-13,30.7743053 C3.53083588,35.2291332 8.26616762,37.4565472 14.2059952,37.4565472 C20.1458228,37.4565472 25.3065051,36.6260547 29.6880419,34.9650699 L32.7915357,11.0215582 C29.421451,15.0480695 23.9561951,17.0613252 16.3957679,17.0613252 C8.83534064,17.0613252 3.37008469,14.7897376 -7.83702819e-13,10.2465624 Z" id="Path-17"></path>
                <ellipse id="Oval-7" fill="#F2F6F8" cx="30.7747491" cy="26.3461757" rx="15.034812" ry="14.8520108"></ellipse>
                <path d="M27.4867517,2.56697921 C30.2774624,3.88939104 31.8844506,5.62515369 31.951573,7.38111769 C31.951573,7.40209602 31.951573,7.4246283 31.951573,7.44560663 C31.951573,7.46736194 31.951573,7.46736194 31.951573,7.48911725 C31.951573,8.74704013 31.147684,10.0267183 29.65204,11.1323541 C27.70944,11.6311722 25.9460962,12.4547659 24.3833298,13.5394233 C21.9716629,14.2115069 19.1809522,14.6240807 16.1667636,14.6240807 C11.7019423,14.6240807 7.66117637,13.7779547 4.80255363,12.4112553 C2.12318706,11.1541094 0.539099432,9.50536795 0.359843255,7.8356482 L0.359843255,7.48834027 C0.359843255,7.42385133 0.33773236,7.38034072 0.33773236,7.3368301 C0.426965612,5.60262141 2.01263259,3.88861407 4.80255363,2.56620224 C7.6603867,1.2220351 11.7011526,0.354153781 16.1667636,0.354153781 C20.6102636,0.354153781 24.6289186,1.2220351 27.4867517,2.56697921 Z" id="Path" stroke="#6680AD" stroke-width="0.984000031"></path>
                <path d="M31.9171975,10.7127545 L31.8502211,10.7127545 C31.872284,10.6910465 31.8951347,10.6701138 31.9171975,10.6476305 L31.9171975,10.7127545 Z" id="Path" fill="#6680AD"></path>
                <path d="M18.5274361,21.2946267 C17.7481461,21.3597506 16.9460054,21.4031666 16.1446527,21.4031666 C11.6887531,21.4031666 7.67883749,20.5588807 4.82721937,19.1959287 C1.97638921,17.8546848 0.39417059,16.0792809 0.39417059,14.2837196 C0.39417059,14.2620116 0.39417059,14.2403036 0.39417059,14.2185956 L0.39417059,8.03123943" id="Path" stroke="#6680AD" stroke-width="0.984000031"></path>
                <path d="M46.6847385,25.5832462 C46.6847385,33.7167335 40.4648998,39.8617167 32.2041054,39.8617167 C23.9674559,39.8617167 17.7460076,33.7167335 17.7460076,25.5832462 C17.7468124,17.448967 23.9674559,11.3039838 32.2041054,11.3039838 C40.4648998,11.3039838 46.6847385,17.448967 46.6847385,25.5832462 Z" id="Path" stroke="#6680AD" stroke-width="0.984000031"></path>
                <path d="M17.8600361,28.5652543 C17.3029502,28.6086703 16.7238014,28.6303783 16.1446527,28.6303783 C11.6887531,28.6303783 7.67883749,27.7651597 4.82721937,26.4231404 C1.97638921,25.0818965 0.39417059,23.2855599 0.39417059,21.4892233 C0.39417059,21.4682906 0.39417059,21.4458073 0.39417059,21.4458073 L0.39417059,14.2185956" id="Path" stroke="#6680AD" stroke-width="0.984000031"></path>
                <path d="M20.3318587,34.8838314 C18.9954828,35.0567201 17.6141934,35.1644848 16.1659275,35.1644848 C11.7108159,35.1644848 7.67883749,34.3209741 4.82643142,32.9572469 C1.97560125,31.6160029 0.393382633,29.8413743 0.393382633,28.0450378 L0.393382633,20.8635498" id="Path" stroke="#6680AD" stroke-width="0.984000031"></path>
                <path d="M31.2711765,27.9592046 C31.2711765,27.5765563 30.8924564,27.2660012 30.4239279,27.2660012 C29.9562466,27.2660012 29.5766793,27.5765563 29.5766793,27.9592046 C29.5766793,29.2478698 30.6611575,30.3237215 32.1184251,30.6335834 L32.1184251,30.7320183 C32.1184251,31.1146666 32.4979925,31.4252217 32.9656738,31.4252217 C33.4342023,31.4252217 33.8129224,31.1146666 33.8129224,30.7320183 L33.8129224,30.6335834 C35.2710373,30.3237215 36.3546683,29.2478698 36.3546683,27.9592046 C36.3546683,26.4306911 34.8347042,25.1863909 32.9656738,25.1863909 C32.0320058,25.1863909 31.2711765,24.5645875 31.2711765,23.7999841 C31.2711765,23.0353807 32.0320058,22.4135773 32.9656738,22.4135773 C33.900189,22.4135773 34.660171,23.0353807 34.660171,23.7999841 C34.660171,24.1826324 35.0397384,24.4931875 35.5074196,24.4931875 C35.9759481,24.4931875 36.3546683,24.1826324 36.3546683,23.7999841 C36.3546683,22.5120121 35.2710373,21.4361604 33.8129224,21.1256053 L33.8129224,21.0271704 C33.8129224,20.6445221 33.4342023,20.333967 32.9656738,20.333967 C32.4979925,20.333967 32.1184251,20.6445221 32.1184251,21.0271704 L32.1184251,21.1256053 C30.6611575,21.4361604 29.5766793,22.5120121 29.5766793,23.7999841 C29.5766793,25.3291908 31.0966433,26.5727978 32.9656738,26.5727978 C33.900189,26.5727978 34.660171,27.1946012 34.660171,27.9592046 C34.660171,28.723808 33.900189,29.3456115 32.9656738,29.3456115 C32.0320058,29.3456115 31.2711765,28.723808 31.2711765,27.9592046 Z" id="Path" fill="#8CD97E"></path>
            </g>
        </g>
    </g>
</svg>