<?xml version="1.0" encoding="UTF-8"?>
<svg width="74px" height="69px" viewBox="0 0 74 69" version="1.1" xmlns="http://www.w3.org/2000/svg" xmlns:xlink="http://www.w3.org/1999/xlink">
    <!-- Generator: Sketch 62 (91390) - https://sketch.com -->
    <title>Group 19 Copy</title>
    <desc>Created with Sketch.</desc>
    <g id="Page-1" stroke="none" stroke-width="1" fill="none" fill-rule="evenodd">
        <g id="Landing-Campañas-Desktop-Copy-25" transform="translate(-173.000000, -781.000000)">
            <g id="Group-19-Copy" transform="translate(174.000000, 782.000000)">
                <g id="Group-18">
                    <path d="M6.45599946,0.399999857 L8.63067941,0.399999857 L8.63067941,0.399999857 L39.0906309,0.399999857 L64.1617089,0.399999857 L68.5440002,0.399999857 C70.4526961,0.399999857 71.9999998,1.9473036 71.9999998,3.8559995 L71.9999998,31.7439981 C71.9999998,33.652694 70.4526961,35.1999978 68.5440002,35.1999978 L67.8501318,35.1999978 L67.8501318,35.1999978 L6.45599946,35.1999978 C4.54730356,35.1999978 2.99999982,33.652694 2.99999982,31.7439981" id="Rectangle-Copy-132" stroke="#6680AD" stroke-width="1.6" fill="#F2F6F8" transform="translate(37.499998, 17.799999) scale(1, -1) translate(-37.499998, -17.799999) "></path>
                    <g id="Group-54-Copy-4" transform="translate(0.000000, 2.800000)" stroke="#6680AD" stroke-width="1.6">
                        <rect id="Rectangle" fill="#FFFFFF" x="0" y="0" width="69.2639928" height="34.7039964" rx="3.45599964"></rect>
                        <path d="M69.2639928,0 C64.810369,0 61.1999936,3.6103754 61.1999936,8.06399916" id="Oval" transform="translate(65.231993, 4.032000) scale(1, -1) translate(-65.231993, -4.032000) "></path>
                        <path d="M69.2639928,26.6399972 C64.810369,26.6399972 61.1999936,30.2503726 61.1999936,34.7039964" id="Oval-Copy-55"></path>
                        <path d="M8.20799914,0 C3.75437539,0 0.143999985,3.6103754 0.143999985,8.06399916" id="Oval-Copy-51" transform="translate(4.176000, 4.032000) scale(-1, -1) translate(-4.176000, -4.032000) "></path>
                        <path d="M8.20799914,26.6399972 C3.75437539,26.6399972 0.143999985,30.2503726 0.143999985,34.7039964" id="Oval-Copy-56" transform="translate(4.176000, 30.671997) scale(-1, 1) translate(-4.176000, -30.671997) "></path>
                    </g>
                    <circle id="Oval-Copy-59" stroke="#6680AD" stroke-width="1.6" cx="36.5999978" cy="20.1999987" r="12.5999992"></circle>
                    <path d="M34.349998,23.9499985 C34.349998,23.3703985 33.780073,22.8999985 33.074998,22.8999985 C32.3711981,22.8999985 31.7999981,23.3703985 31.7999981,23.9499985 C31.7999981,25.9019483 33.431998,27.5315482 35.6249979,28.0008982 L35.6249979,28.1499982 C35.6249979,28.7295982 36.1961978,29.1999981 36.8999978,29.1999981 C37.6050728,29.1999981 38.1749977,28.7295982 38.1749977,28.1499982 L38.1749977,28.0008982 C40.3692726,27.5315482 41.9999975,25.9019483 41.9999975,23.9499985 C41.9999975,21.6347486 39.7126476,19.7499987 36.8999978,19.7499987 C35.4949479,19.7499987 34.349998,18.8081488 34.349998,17.6499988 C34.349998,16.4918489 35.4949479,15.549999 36.8999978,15.549999 C38.3063227,15.549999 39.4499976,16.4918489 39.4499976,17.6499988 C39.4499976,18.2295988 40.0211976,18.6999988 40.7249976,18.6999988 C41.4300725,18.6999988 41.9999975,18.2295988 41.9999975,17.6499988 C41.9999975,15.6990989 40.3692726,14.069499 38.1749977,13.5990991 L38.1749977,13.4499991 C38.1749977,12.8703991 37.6050728,12.3999991 36.8999978,12.3999991 C36.1961978,12.3999991 35.6249979,12.8703991 35.6249979,13.4499991 L35.6249979,13.5990991 C33.431998,14.069499 31.7999981,15.6990989 31.7999981,17.6499988 C31.7999981,19.9662987 34.087348,21.8499986 36.8999978,21.8499986 C38.3063227,21.8499986 39.4499976,22.7918485 39.4499976,23.9499985 C39.4499976,25.1081484 38.3063227,26.0499983 36.8999978,26.0499983 C35.4949479,26.0499983 34.349998,25.1081484 34.349998,23.9499985 Z" id="Path-Copy-12" fill="#8CD97E" fill-rule="nonzero"></path>
                    <g id="Group-57" transform="translate(19.199999, 26.199998)" stroke="#6680AD" stroke-width="1.6">
                        <path d="M13.6799997,21.5011033 C13.1929142,17.1690264 10.9129142,15.002988 6.83999986,15.002988 C6.83999986,15.002988 6.81719896,10.9648052 6.77159714,2.88843971 C6.21831712,1.25584589 5.05413765,0.439548985 3.27905873,0.439548985 C1.50397982,0.439548985 0.410960238,1.25584589 0,2.88843971 L0,18.7546631 C0.173021863,20.6836048 1.65190147,23.5800676 4.43663882,27.4440517 C4.43663882,27.4440517 4.43663882,28.4560343 4.43663882,30.4799996" id="Path-84" fill="#FFFFFF"></path>
                        <path d="M27.3599995,11.04 L27.3599995,19.3752123 C27.5284726,21.3205147 28.9684726,24.2415445 31.6799994,28.1383017 C31.6799994,28.1383017 31.6799994,29.1588677 31.6799994,31.1999996" id="Path-84-Copy" transform="translate(29.519999, 21.120000) scale(-1, 1) translate(-29.519999, -21.120000) "></path>
                        <rect id="Rectangle" fill="#F2F6F8" x="1.43999997" y="30.4799996" width="28.7999994" height="10.0799998" rx="2.99999982"></rect>
                    </g>
                </g>
            </g>
        </g>
    </g>
</svg>