<?xml version="1.0" encoding="UTF-8"?>
<svg width="34px" height="47px" viewBox="0 0 34 47" version="1.1" xmlns="http://www.w3.org/2000/svg" xmlns:xlink="http://www.w3.org/1999/xlink">
    <!-- Generator: Sketch 62 (91390) - https://sketch.com -->
    <title>Group Copy 10</title>
    <desc>Created with Sketch.</desc>
    <g id="Page-1" stroke="none" stroke-width="1" fill="none" fill-rule="evenodd">
        <g id="Landing-Campañas-Mobile-Copy-10" transform="translate(-66.000000, -924.000000)">
            <g id="Group-Copy-10" transform="translate(67.000000, 925.000000)">
                <path d="M4.56970519,2.21081081 L23.9544383,2.21081081 C25.2892772,2.21081081 26.3713779,3.29291154 26.3713779,4.62775045 L26.3713779,42.7296085 C26.3713779,44.0644474 25.2892772,45.1465481 23.9544383,45.1465481 L4.56970519,45.1465481 C3.23486628,45.1465481 2.15276555,44.0644474 2.15276555,42.7296085 L2.15276555,4.62775045 C2.15276555,3.29291154 3.23486628,2.21081081 4.56970519,2.21081081 Z" id="Rectangle-5-Copy" fill="#F2F6F8"></path>
                <path d="" id="Path-4-Copy" stroke="#979797" stroke-width="0.5"></path>
                <path d="M23.9495167,16.2004828 L23.9495167,2.93477355 C23.9495167,1.50395071 22.7896056,0.344039619 21.3587828,0.344039619 L2.59073394,0.344039619 C1.15991109,0.344039619 7.12953158e-16,1.50395071 0,2.93477355 L0,39.8889982 C1.75225262e-16,41.3198211 1.15991109,42.4797322 2.59073394,42.4797322 L21.3587828,42.4797322 C22.7896056,42.4797322 23.9495167,41.3198211 23.9495167,39.8889982 L23.9495167,27.2587344 L23.9495167,27.2587344" id="Path-5-Copy" stroke="#6680AD" stroke-width="0.957600064"></path>
                <line x1="0.429805621" y1="5.14430839" x2="23.2506154" y2="5.14430839" id="Line-Copy" stroke="#6680AD" stroke-width="0.957600064" stroke-linecap="square"></line>
                <line x1="0.430174101" y1="36.612737" x2="23.8497396" y2="36.612737" id="Line-2-Copy" stroke="#6680AD" stroke-width="0.957600064" stroke-linecap="square"></line>
                <path d="M8.97047389,2.47749241 C8.65652892,2.47749241 8.61106219,2.60057622 8.61106219,2.744174 C8.61106219,2.88777179 8.65652892,3.0108556 8.97047389,3.0108556 L14.7099471,3.0108556 C15.0238921,3.0108556 15.0693588,2.88777179 15.0693588,2.744174 C15.0693588,2.60057622 15.0238921,2.47749241 14.7099471,2.47749241 L8.97047389,2.47749241 Z" id="Shape-Copy" fill="#6680AD" fill-rule="nonzero"></path>
                <ellipse id="Oval-Copy-13" fill="#8CD97E" fill-rule="nonzero" cx="11.7056627" cy="39.4128938" rx="1.21093062" ry="1.20006719"></ellipse>
                <ellipse id="Oval-Copy-14" stroke="#6680AD" stroke-width="0.957600064" fill="#F2F6F8" cx="23.8497396" cy="22.0958937" rx="8.41755517" ry="8.25695086"></ellipse>
                <polyline id="Path-19-Copy-3" stroke="#8CD97E" stroke-width="1.10163286" stroke-linecap="round" points="20.342425 23.4116018 22.4249743 25.3845221 28.0585172 19.3435767"></polyline>
            </g>
        </g>
    </g>
</svg>