<?xml version="1.0" encoding="UTF-8"?>
<svg width="75px" height="78px" viewBox="0 0 75 78" version="1.1" xmlns="http://www.w3.org/2000/svg" xmlns:xlink="http://www.w3.org/1999/xlink">
    <!-- Generator: Sketch 62 (91390) - https://sketch.com -->
    <title>Group 23</title>
    <desc>Created with Sketch.</desc>
    <g id="Page-1" stroke="none" stroke-width="1" fill="none" fill-rule="evenodd">
        <g id="Landing-Campañas-Desktop-Copy-25" transform="translate(-1027.000000, -780.000000)">
            <g id="Group-23" transform="translate(1028.000000, 781.000000)">
                <rect id="Rectangle" fill="#F2F6F8" x="18" y="3.98699875" width="56" height="67" rx="4.5"></rect>
                <rect id="Rectangle-Copy-127" fill="#FFFFFF" x="0" y="26.4869988" width="31.5" height="49.5" rx="4.5"></rect>
                <rect id="Rectangle" stroke="#6680AD" stroke-width="1.6" x="0.312451879" y="26.3655008" width="31.0527009" height="48.9226515" rx="4.68720014"></rect>
                <path d="M31.3651528,-3.19744231e-13 L63.5896538,-3.19744231e-13 C66.178323,-3.20219762e-13 68.2768539,2.09853098 68.2768539,4.68720014 L68.2768539,60.0547518 C68.2768539,62.643421 66.178323,64.741952 63.5896538,64.741952 C54.9958456,64.741952 46.4020374,64.741952 37.8082292,64.741952 C35.6605371,64.741952 33.512845,64.741952 31.3651528,64.741952 C29.8879664,64.741952 28.4107801,64.741952 26.9335937,64.741952 C24.9864633,64.741952 23.0393329,64.741952 21.0922025,64.741952 C20.0240281,64.741952 18.9558536,64.741952 17.8876792,64.741952 C15.3546025,64.741952 13.2798146,62.7294307 13.2026541,60.1975294 L12.9093023,50.5716444 L12.9093023,50.5716444 L12.9093023,42.4392087 L12.9093023,38.3764512" id="Rectangle-Copy-124" stroke="#6680AD" stroke-width="1.6" transform="translate(40.593078, 32.370976) scale(1, -1) translate(-40.593078, -32.370976) "></path>
                <line x1="0.312451879" y1="35.0075261" x2="31.2186778" y2="35.0075261" id="Line-10" stroke="#6680AD" stroke-width="1.6" stroke-linecap="square"></line>
                <line x1="0.312451879" y1="66.499652" x2="31.2186778" y2="66.499652" id="Line-10-Copy" stroke="#6680AD" stroke-width="1.6" stroke-linecap="square"></line>
                <line x1="13.2022523" y1="8.78850027" x2="68.2768539" y2="8.78850027" id="Line-11" stroke="#6680AD" stroke-width="1.6" stroke-linecap="square"></line>
                <line x1="31.3651528" y1="56.8323017" x2="68.2768539" y2="56.8323017" id="Line-11-Copy" stroke="#6680AD" stroke-width="1.6" stroke-linecap="square"></line>
                <circle id="Oval" fill="#8CD97E" cx="15.8388024" cy="70.6009521" r="1.75770005"></circle>
                <circle id="Oval-Copy-44" fill="#8CD97E" cx="40.4466031" cy="60.6406518" r="2.05065006"></circle>
            </g>
        </g>
    </g>
</svg>