<?xml version="1.0" encoding="UTF-8"?>
<svg width="12px" height="114px" viewBox="0 0 12 114" version="1.1" xmlns="http://www.w3.org/2000/svg" xmlns:xlink="http://www.w3.org/1999/xlink">
    <!-- Generator: Sketch 51.2 (57519) - http://www.bohemiancoding.com/sketch -->
    <title>Group</title>
    <desc>Created with Sketch.</desc>
    <defs>
        <polygon id="path-1" points="0.267444 0.0894794521 8.945604 0.0894794521 8.945604 70.8988493 0.267444 70.8988493"></polygon>
        <polygon id="path-3" points="0 114 12 114 12 0 0 0"></polygon>
    </defs>
    <g id="visual" stroke="none" stroke-width="1" fill="none" fill-rule="evenodd" opacity="0.4">
        <g id="landing-tablet-copy-5" transform="translate(-10.000000, -207.000000)">
            <g id="Group" transform="translate(10.000000, 207.000000)">
                <path d="M7.95019011,109.737129 L4.06235742,111 L4.06235742,110.527985 L6.87870723,109.682974 C7.11977186,109.613758 7.33384031,109.544542 7.51596958,109.498077 C7.31520913,109.453856 7.10722434,109.392651 6.87870723,109.330805 L4.06235742,108.443495 L4.06235742,107.998398 L7.95019011,109.287866 L7.95019011,109.737129 Z M4.06235742,105.455351 L7.95019011,105.455351 L7.95019011,105.010895 L4.06235742,105.010895 L4.06235742,105.455351 Z M6.41330798,100.645161 L5.96806084,100.645161 L5.96806084,99.2509079 L7.40646388,99.2509079 C7.61673004,99.4707327 7.76235741,99.6812647 7.86273764,99.9004486 C7.96311787,100.134053 8,100.364772 8,100.603183 C8,100.924589 7.93536122,101.22132 7.77680608,101.47351 C7.61673004,101.750694 7.38060837,101.946486 7.06121673,102.077227 C6.7608365,102.215018 6.40570342,102.276543 6.01330798,102.276543 C5.6391635,102.276543 5.28897338,102.215018 4.95627376,102.077227 C4.62851711,101.946486 4.4,101.755501 4.23764259,101.496902 C4.07642586,101.252083 4,100.960158 4,100.645161 C4,100.403546 4.02205323,100.184362 4.12775665,100.000427 C4.21901141,99.8078402 4.35475285,99.6508225 4.5095057,99.5431532 C4.67338403,99.4351634 4.88365019,99.3579363 5.1460076,99.2938475 L5.27414449,99.6892758 C5.07528517,99.7354198 4.92965779,99.7969451 4.81102662,99.8690451 C4.70456274,99.9507584 4.60076046,100.053941 4.53688213,100.184362 C4.4634981,100.318628 4.43307985,100.475967 4.43307985,100.645161 C4.43307985,100.833903 4.4634981,101.006302 4.54638783,101.152104 C4.60988593,101.291177 4.71939163,101.416791 4.82015209,101.496902 C4.94714829,101.585986 5.07528517,101.655202 5.20152091,101.69718 C5.45323194,101.788827 5.71558935,101.827601 5.98631179,101.827601 C6.33307985,101.827601 6.62889734,101.788827 6.87870722,101.681799 C7.09239544,101.578295 7.278327,101.443388 7.38441065,101.244392 C7.49391635,101.052446 7.55209125,100.844478 7.55209125,100.626255 C7.55209125,100.444563 7.50874525,100.264473 7.42509506,100.077013 C7.3338403,99.8924375 7.24448669,99.7735527 7.15323194,99.6697287 L6.41330798,99.6697287 L6.41330798,100.645161 Z M4.06235742,96.452147 L7.95019011,96.452147 L7.95019011,96.0112156 L4.06235742,96.0112156 L4.06235742,96.452147 Z M7.95019011,93.1874599 L4.06235742,93.1874599 L4.06235742,92.7433241 L7.47946768,92.7433241 L7.47946768,91.1388592 L7.95019011,91.1388592 L7.95019011,93.1874599 Z M7.95019011,88.8954283 L4.06235742,87.6370434 L4.06235742,87.1679128 L7.95019011,85.8246101 L7.95019011,86.3232215 L6.77452472,86.7077548 L6.77452472,88.073809 L7.95019011,88.4384747 L7.95019011,88.8954283 Z M6.3513308,87.9555651 L6.3513308,86.8372143 L5.27414449,87.1829737 C4.94714829,87.2861568 4.67338403,87.3707541 4.4634981,87.4136937 C4.71939163,87.4476608 4.95627376,87.5136723 5.20152091,87.5934629 L6.3513308,87.9555651 Z M7.95019011,83.4017304 L4.06235742,83.4017304 L4.06235742,82.2571032 C4.06235742,82.0154881 4.07642586,81.8229011 4.11330799,81.6847896 C4.16463878,81.4998932 4.25969582,81.3351848 4.4,81.2015595 C4.56920152,81.0275582 4.79239544,80.904828 5.06045627,80.8173467 C5.32851711,80.7247383 5.6391635,80.6830805 5.98631179,80.6830805 C6.2904943,80.6830805 6.55057034,80.7170476 6.77452472,80.7830592 C7.00114069,80.832728 7.17984791,80.904828 7.33384031,80.9945524 C7.47946768,81.0935698 7.59847909,81.1893826 7.68935361,81.2893612 C7.77680608,81.400235 7.84410646,81.5354625 7.89581749,81.6847896 C7.93536122,81.8382824 7.95019011,82.0154881 7.95019011,82.2212134 L7.95019011,83.4017304 Z M7.47946768,82.9598376 L7.47946768,82.2571032 C7.47946768,82.0497757 7.4608365,81.8882717 7.42509506,81.7459944 C7.38060837,81.6235847 7.29695817,81.5354625 7.22053232,81.4617603 C7.09239544,81.3614612 6.9391635,81.2739799 6.72015209,81.2281564 C6.51368821,81.1589404 6.26768061,81.135548 5.97756654,81.135548 C5.57186312,81.135548 5.26121673,81.1893826 5.04752852,81.307947 C4.82015209,81.4197821 4.67338403,81.5463576 4.60076046,81.7078616 C4.54638783,81.8305918 4.5095057,82.0154881 4.5095057,82.275689 L4.5095057,82.9598376 L7.47946768,82.9598376 Z M6.05019011,78.132664 C5.41178707,78.132664 4.90190114,77.9833369 4.53688213,77.6955779 C4.17148289,77.4004486 4,77.0229652 4,76.5708182 C4,76.2631916 4.07642586,76.001709 4.23764259,75.7447127 C4.42395437,75.5107883 4.66425856,75.3191626 4.96539924,75.1954711 C5.27414449,75.0618458 5.63003802,75 6.00418251,75 C6.40570342,75 6.7608365,75.0721 7.07034221,75.2031617 C7.38060837,75.3415937 7.61673004,75.5220038 7.77680608,75.7677847 C7.93536122,76.0251015 8,76.2708823 8,76.5708182 C8,76.8816492 7.93536122,77.1511429 7.76235741,77.3924375 C7.57984791,77.6462294 7.3338403,77.8266396 7.02509506,77.9525742 C6.71444867,78.0759453 6.39467681,78.132664 6.05019011,78.132664 Z M6.05019011,77.6923734 C6.55057034,77.6923734 6.90608365,77.5850246 7.17414449,77.3690451 C7.44334601,77.162038 7.57984791,76.8893399 7.57984791,76.5708182 C7.57984791,76.2401196 7.44334601,75.9783166 7.17414449,75.760094 C6.89695817,75.5527665 6.51368821,75.4418928 6.00418251,75.4418928 C5.69087452,75.4418928 5.41178707,75.4873959 5.18326996,75.5876949 C4.94714829,75.667806 4.75931559,75.8107242 4.62851711,75.9831233 C4.49087452,76.1446272 4.43307985,76.3509934 4.43307985,76.5554369 C4.43307985,76.8768426 4.56920152,77.1309549 4.81102662,77.3616749 C5.06045627,77.5773339 5.47528517,77.6923734 6.05019011,77.6923734 Z" id="Fill-1" fill="#FFFFFF"></path>
                <g id="Group-5" transform="translate(1.000000, 0.000000)">
                    <mask id="mask-2" fill="white">
                        <use xlink:href="#path-1"></use>
                    </mask>
                    <g id="Clip-4"></g>
                    <path d="M8.886204,50.1457763 L5.482044,50.1457763 L5.482044,49.1015251 C5.482044,48.8541598 5.503644,48.6732557 5.533524,48.5458447 C5.585004,48.3746667 5.659884,48.2161324 5.783724,48.1036347 C5.934924,47.9402374 6.116364,47.8199589 6.363324,47.7382603 C6.599484,47.6529954 6.867324,47.6102009 7.168644,47.6102009 C7.427484,47.6102009 7.661484,47.6416484 7.855164,47.69579 C8.061804,47.7483105 8.230284,47.8199589 8.355924,47.9133288 C8.489124,47.997621 8.584524,48.0851553 8.665524,48.1846849 C8.748324,48.2861598 8.799804,48.4054658 8.834724,48.5458447 C8.886204,48.7047032 8.886204,48.8651826 8.886204,49.0444658 L8.886204,50.1457763 Z M8.489124,49.7427945 L8.489124,49.0937443 C8.489124,48.8885251 8.468244,48.7290183 8.419644,48.6080913 C8.385444,48.5036986 8.324244,48.4054658 8.246844,48.3432192 C8.139564,48.2388265 8.005284,48.1769041 7.816644,48.1146575 C7.643844,48.060516 7.427484,48.0384703 7.151004,48.0384703 C6.801804,48.0384703 6.530724,48.0958539 6.340644,48.19279 C6.150204,48.2936164 6.021324,48.4255662 5.951484,48.5815068 C5.910444,48.6891416 5.887404,48.8651826 5.887404,49.1015251 L5.887404,49.7427945 L8.489124,49.7427945 Z M8.886204,47.0467397 L5.482044,47.0467397 L5.482044,44.8259635 L5.887404,44.8259635 L5.887404,46.647 L6.932124,46.647 L6.932124,44.938137 L7.332444,44.938137 L7.332444,46.647 L8.489124,46.647 L8.489124,44.7591781 L8.886204,44.7591781 L8.886204,47.0467397 Z M7.690284,40.8194886 L7.816644,40.411968 C8.183124,40.4865342 8.454564,40.6483105 8.665524,40.8580685 C8.855964,41.099274 8.945604,41.3547443 8.945604,41.6860776 C8.945604,42.0083333 8.886204,42.2732055 8.731044,42.4862055 C8.584524,42.6917489 8.368164,42.8554703 8.074044,42.9644018 C7.793964,43.0652283 7.488684,43.1200183 7.151004,43.1200183 C6.816204,43.1200183 6.504444,43.0603653 6.242004,42.9329543 C5.979204,42.8240228 5.771844,42.6525205 5.633964,42.4161781 C5.503644,42.1983151 5.426244,41.9541918 5.426244,41.6633836 C5.426244,41.3751689 5.512644,41.1119178 5.685084,40.8940548 C5.865084,40.6914292 6.107364,40.5390548 6.418044,40.4612466 L6.530724,40.8532055 C6.271524,40.9280959 6.086484,41.0373516 5.996844,41.165411 C5.865084,41.3083836 5.810004,41.4763196 5.810004,41.6860776 C5.810004,41.9227443 5.882364,42.1208311 6.003684,42.2732055 C6.116364,42.4284977 6.297804,42.5409954 6.508044,42.6029178 C6.720804,42.6684064 6.937164,42.6917489 7.151004,42.6917489 C7.453764,42.6917489 7.703964,42.6606256 7.918524,42.5873562 C8.139564,42.51279 8.308044,42.388621 8.416044,42.2297626 C8.519724,42.0702557 8.558244,41.8968082 8.558244,41.7162283 C8.558244,41.4889635 8.498124,41.2924977 8.355924,41.1339635 C8.204004,40.975105 7.980444,40.8580685 7.690284,40.8194886 Z M7.233804,40.0268174 C6.669324,40.0268174 6.220044,39.8916256 5.900004,39.6111918 C5.590044,39.3440502 5.426244,38.993589 5.426244,38.5624018 C5.426244,38.2793744 5.503644,38.0193653 5.651244,37.7969635 C5.797764,37.5677534 6.003684,37.3978721 6.289164,37.2769452 C6.548004,37.1518037 6.854364,37.0976621 7.199604,37.0976621 C7.540164,37.0976621 7.855164,37.1518037 8.119404,37.279863 C8.390844,37.4166758 8.601084,37.5881781 8.748324,37.8167397 C8.886204,38.0381689 8.945604,38.2975297 8.945604,38.5624018 C8.945604,38.8506164 8.886204,39.1106256 8.713764,39.3440502 C8.558244,39.5726119 8.355924,39.7392511 8.091324,39.8562877 C7.816644,39.9726758 7.531524,40.0268174 7.233804,40.0268174 Z M7.237404,39.6079498 C7.652484,39.6079498 7.970364,39.5262511 8.212644,39.3284886 C8.436924,39.1132192 8.558244,38.8616393 8.558244,38.5624018 C8.558244,38.2638128 8.436924,38.0067215 8.204004,37.8118767 C7.970364,37.6147626 7.626204,37.5213927 7.191324,37.5213927 C6.926724,37.5213927 6.677964,37.5564064 6.467004,37.6406986 C6.253884,37.7311507 6.100524,37.8481872 5.996844,38.0067215 C5.865084,38.1672009 5.810004,38.3494018 5.810004,38.5624018 C5.810004,38.8460776 5.934924,39.0872831 6.141564,39.2937991 C6.363324,39.5106895 6.729444,39.6079498 7.237404,39.6079498 Z M8.886204,36.5854247 L5.482044,36.5854247 L5.482044,36.1840639 L8.489124,36.1840639 L8.489124,34.6716667 L8.886204,34.6716667 L8.886204,36.5854247 Z M7.233804,34.3085616 C6.669324,34.3085616 6.220044,34.1704521 5.900004,33.8958539 C5.590044,33.6280639 5.426244,33.2769543 5.426244,32.8441461 C5.426244,32.5604703 5.503644,32.2962466 5.651244,32.0825982 C5.797764,31.8540365 6.003684,31.6750776 6.289164,31.5476667 C6.548004,31.4338721 6.854364,31.3716256 7.199604,31.3716256 C7.540164,31.3716256 7.855164,31.4338721 8.119404,31.5703607 C8.390844,31.6796164 8.601084,31.8777032 8.748324,32.0907032 C8.886204,32.3364475 8.945604,32.584137 8.945604,32.8441461 C8.945604,33.1394932 8.886204,33.3917215 8.713764,33.6170411 C8.558244,33.8433333 8.355924,34.020347 8.091324,34.1386804 C7.816644,34.2592831 7.531524,34.3085616 7.233804,34.3085616 Z M7.237404,33.8958539 C7.652484,33.8958539 7.970364,33.7930822 8.212644,33.5865662 C8.436924,33.3917215 8.558244,33.1394932 8.558244,32.8441461 C8.558244,32.5416667 8.436924,32.2900868 8.204004,32.0907032 C7.970364,31.8971553 7.626204,31.7921142 7.191324,31.7921142 C6.926724,31.7921142 6.677964,31.8352329 6.467004,31.9081781 C6.253884,32.0018721 6.100524,32.1253927 5.996844,32.2900868 C5.865084,32.456726 5.810004,32.6411963 5.810004,32.8441461 C5.810004,33.1268493 5.934924,33.3839406 6.141564,33.5865662 C6.363324,33.7930822 6.729444,33.8958539 7.237404,33.8958539 Z M8.886204,30.8671689 L5.482044,30.8671689 L5.482044,30.2566986 L7.901244,29.5317854 L8.416044,29.3823288 C8.278164,29.3602831 8.102124,29.2857169 7.855164,29.2283333 L5.482044,28.4888311 L5.482044,27.9383379 L8.886204,27.9383379 L8.886204,28.3351598 L6.038604,28.3351598 L8.886204,29.2283333 L8.886204,29.5817123 L5.996844,30.4784521 L8.886204,30.4784521 L8.886204,30.8671689 Z M8.886204,27.3009589 L5.482044,27.3009589 L5.482044,26.1383744 C5.482044,25.9111096 5.521284,25.7250183 5.590044,25.5797763 C5.659884,25.4413425 5.763924,25.3272237 5.910444,25.2575205 C6.051564,25.1764703 6.202764,25.1255708 6.363324,25.1255708 C6.504444,25.1255708 6.643404,25.1764703 6.772284,25.2416347 C6.902244,25.3116621 6.995844,25.4160548 7.087284,25.556758 C7.147404,25.3667763 7.237404,25.2416347 7.385004,25.1255708 C7.531524,25.0334977 7.716204,24.982274 7.901244,24.982274 C8.067204,24.982274 8.212644,25.0085342 8.355924,25.0649452 C8.489124,25.1255708 8.601084,25.2079178 8.665524,25.2967489 C8.748324,25.3855799 8.799804,25.498726 8.834724,25.6378082 C8.886204,25.7775388 8.886204,25.9380183 8.886204,26.1348082 L8.886204,27.3009589 Z M6.926724,26.9044612 L6.926724,26.2285023 C6.926724,26.0469498 6.902244,25.9175936 6.884964,25.8333014 C6.854364,25.7399315 6.798564,25.6621233 6.698124,25.6002009 C6.625764,25.556758 6.530724,25.5379543 6.418044,25.5379543 C6.297804,25.5379543 6.202764,25.5538402 6.107364,25.6002009 C6.021324,25.6494795 5.961924,25.7250183 5.934924,25.8174155 C5.900004,25.9017078 5.887404,26.060242 5.887404,26.2787534 L5.887404,26.9044612 L6.926724,26.9044612 Z M8.489124,26.9044612 L8.489124,26.1348082 C8.489124,26.0048037 8.489124,25.9017078 8.480844,25.852105 C8.454564,25.7587352 8.419644,25.6809269 8.376804,25.6190046 C8.333244,25.5538402 8.264124,25.498726 8.204004,25.4572283 C8.102124,25.4254566 8.018964,25.409895 7.901244,25.409895 C7.781724,25.409895 7.670124,25.4286986 7.569684,25.498726 C7.480044,25.5538402 7.413804,25.6313242 7.376004,25.7302055 C7.349724,25.8287626 7.323804,25.9921598 7.323804,26.1853836 L7.323804,26.9044612 L8.489124,26.9044612 Z M5.482044,24.351379 L8.886204,24.351379 L8.886204,23.9483973 L5.482044,23.9483973 L5.482044,24.351379 Z M8.886204,23.5674612 L5.482044,22.3906119 L5.482044,21.948726 L8.886204,20.7005525 L8.886204,21.154758 L7.855164,21.5159178 L7.855164,22.7952146 L8.886204,23.1375708 L8.886204,23.5674612 Z M7.497324,22.6788265 L7.497324,21.6449498 L6.548004,21.9591005 C6.253884,22.0605753 6.031764,22.1351416 5.832684,22.1824749 C6.055164,22.2191096 6.289164,22.2709817 6.504444,22.3377671 L7.497324,22.6788265 Z M2.631564,70.8988493 L2.605644,70.5136986 C2.778444,70.4910046 2.923884,70.4517763 3.024324,70.3866119 C3.130884,70.3165845 3.216924,70.2105708 3.286764,70.0757032 C3.347244,69.9473196 3.390804,69.7839224 3.390804,69.6046393 C3.390804,69.4568037 3.355884,69.3141553 3.317364,69.1922557 C3.260844,69.0680868 3.188484,68.9918995 3.114324,68.9299772 C3.003444,68.878105 2.923884,68.8395251 2.799324,68.8395251 C2.712924,68.8395251 2.605644,68.8593014 2.518884,68.9299772 C2.458764,68.9763379 2.372724,69.0680868 2.328804,69.2048995 C2.294964,69.2856256 2.242404,69.4726895 2.173644,69.7531233 C2.101284,70.0393927 2.014884,70.2232146 1.953684,70.3318219 C1.867284,70.4910046 1.763604,70.6073927 1.639764,70.6696393 C1.518444,70.7471233 1.363284,70.77079 1.199124,70.77079 C1.034244,70.77079 0.887724,70.727347 0.737604,70.646621 C0.572724,70.5561689 0.469764,70.4329726 0.380124,70.2650365 C0.310284,70.0935342 0.267444,69.9042009 0.267444,69.6827717 C0.267444,69.4726895 0.310284,69.2700639 0.396324,69.0995342 C0.475164,68.9254384 0.590364,68.789274 0.763164,68.6959041 C0.915444,68.5999406 1.086444,68.5558493 1.285524,68.5480685 L1.319364,68.9478082 C1.112724,68.9559132 0.933084,69.0382603 0.836244,69.145895 C0.725364,69.2700639 0.659844,69.4415662 0.659844,69.6746667 C0.659844,69.9346758 0.716724,70.1058539 0.818604,70.2105708 C0.915444,70.3318219 1.034244,70.3866119 1.181844,70.3866119 C1.302084,70.3866119 1.405764,70.3425205 1.475964,70.2650365 C1.553364,70.1950091 1.639764,69.9787671 1.720764,69.6552146 C1.810764,69.3297169 1.876284,69.1037489 1.941444,68.9763379 C2.035044,68.7970548 2.156364,68.668347 2.294964,68.5749772 C2.424204,68.5098128 2.597004,68.4514566 2.778444,68.4514566 C2.945844,68.4514566 3.130884,68.5098128 3.286764,68.5999406 C3.445524,68.6842329 3.563604,68.8236393 3.667284,68.9918995 C3.753684,69.1695616 3.796524,69.3682968 3.796524,69.592968 C3.796524,69.8695114 3.753684,70.1058539 3.658644,70.288379 C3.563604,70.4676621 3.428244,70.6180913 3.243204,70.727347 C3.079404,70.8330365 2.871684,70.8910685 2.631564,70.8988493 Z M0.331164001,65.8789224 L0.331164001,65.4791826 L2.294964,65.4791826 C2.631564,65.4791826 2.903004,65.5099817 3.114324,65.58779 C3.317364,65.6503607 3.477204,65.7745297 3.615084,65.9696986 C3.727404,66.1476849 3.796524,66.385 3.796524,66.6758082 C3.796524,66.9666164 3.736044,67.2003653 3.623724,67.379 C3.528684,67.5689817 3.355884,67.6941233 3.156804,67.7797123 C2.940444,67.8575205 2.657844,67.8912374 2.294964,67.8912374 L0.331164001,67.8912374 L0.331164001,67.4837169 L2.294964,67.4837169 C2.597004,67.4837169 2.799324,67.459726 2.940444,67.4136895 C3.079404,67.3640868 3.200724,67.2784977 3.260844,67.166 C3.347244,67.0372922 3.390804,66.8888082 3.390804,66.7140639 C3.390804,66.4157991 3.317364,66.1950183 3.165804,66.0808995 C3.003444,65.9489498 2.717964,65.8789224 2.294964,65.8789224 L0.331164001,65.8789224 Z M3.736044,64.7957671 L0.331164001,64.7957671 L0.331164001,63.6373973 C0.331164001,63.4396347 0.348444001,63.2885571 0.358884001,63.180274 C0.383364001,63.03179 0.440244001,62.8998402 0.517644001,62.7905845 C0.595404001,62.7017534 0.708084001,62.6194064 0.863244001,62.5587808 C0.991404001,62.4919954 1.138284,62.468653 1.316124,62.468653 C1.599444,62.468653 1.862244,62.551 2.052684,62.7095342 C2.251404,62.8651507 2.355084,63.175411 2.355084,63.606274 L2.355084,64.408347 L3.736044,64.408347 L3.736044,64.7957671 Z M1.953684,64.408347 L1.953684,63.606274 C1.953684,63.3358904 1.897164,63.1566073 1.786284,63.0473516 C1.682604,62.9312877 1.527084,62.8839543 1.333764,62.8839543 C1.181844,62.8839543 1.078164,62.915726 0.961884,62.9744064 C0.863244,63.0473516 0.784044,63.1251598 0.763164,63.2344155 C0.737604,63.2963379 0.737604,63.4286119 0.737604,63.606274 L0.737604,64.408347 L1.953684,64.408347 Z M3.736044,61.9288584 L0.331164001,61.9288584 L0.331164001,59.7074338 L0.737604001,59.7074338 L0.737604001,61.5284703 L1.768644,61.5284703 L1.768644,59.8189589 L2.182284,59.8189589 L2.182284,61.5284703 L3.347244,61.5284703 L3.347244,59.6455114 L3.736044,59.6455114 L3.736044,61.9288584 Z M3.736044,59.0694064 L0.331164001,59.0694064 L0.331164001,57.7054932 C0.331164001,57.445484 0.358884001,57.2279452 0.422604001,57.0927534 C0.475164001,56.9442694 0.586764001,56.8405251 0.737604001,56.7468311 C0.898164001,56.6567032 1.078164,56.6223379 1.259244,56.6223379 C1.506204,56.6223379 1.717524,56.6849087 1.867284,56.8405251 C2.035044,56.9834977 2.143764,57.1887169 2.191284,57.4850365 C2.242404,57.3832374 2.294964,57.2947306 2.355084,57.2438311 C2.476404,57.1186895 2.631564,57.0120274 2.799324,56.9027717 L3.736044,56.3730274 L3.736044,56.8820228 L3.024324,57.2947306 C2.820204,57.4039863 2.657844,57.513242 2.554164,57.5894292 C2.458764,57.6562146 2.367324,57.7336986 2.328804,57.7803836 C2.282724,57.8423059 2.260044,57.9129817 2.242404,57.9703653 C2.216484,58.0277489 2.216484,58.0945342 2.216484,58.1989269 L2.216484,58.6654521 L3.736044,58.6654521 L3.736044,59.0694064 Z M1.838484,58.6654521 L1.838484,57.7959452 C1.838484,57.6043425 1.810764,57.4610457 1.768644,57.359895 C1.720764,57.2561507 1.660644,57.1738037 1.565604,57.1186895 C1.466964,57.0723288 1.363284,57.0379635 1.259244,57.0379635 C1.112724,57.0379635 0.961884,57.0927534 0.863244,57.1932557 C0.763164,57.2947306 0.708084,57.4691507 0.708084,57.6944703 L0.708084,58.6654521 L1.838484,58.6654521 Z M0.331164001,55.9236849 L3.736044,55.9236849 L3.736044,55.5080594 L0.331164001,55.5080594 L0.331164001,55.9236849 Z M3.736044,54.8000046 L0.331164001,54.8000046 L0.331164001,54.381137 L3.003444,52.7760183 L0.331164001,52.7760183 L0.331164001,52.3811416 L3.736044,52.3811416 L3.736044,52.8000091 L1.060524,54.4041553 L3.736044,54.4041553 L3.736044,54.8000046 Z M3.736044,50.9196438 L0.737604001,50.9196438 L0.737604001,51.9269361 L0.331164001,51.9269361 L0.331164001,49.501589 L0.737604001,49.501589 L0.737604001,50.5069361 L3.736044,50.5069361 L3.736044,50.9196438 Z M3.736044,49.0700776 L0.331164001,49.0700776 L0.331164001,46.8522192 L0.737604001,46.8522192 L0.737604001,48.6667717 L1.768644,48.6667717 L1.768644,46.9737945 L2.182284,46.9737945 L2.182284,48.6667717 L3.347244,48.6667717 L3.347244,46.7821918 L3.736044,46.7821918 L3.736044,49.0700776 Z M3.736044,46.2206758 L0.331164001,46.2206758 L0.331164001,45.7920822 L3.003444,44.2002557 L0.331164001,44.2002557 L0.331164001,43.8105662 L3.736044,43.8105662 L3.736044,44.221653 L1.060524,45.8313105 L3.736044,45.8313105 L3.736044,46.2206758 Z M3.736044,43.1200183 L0.331164001,43.1200183 L0.331164001,42.0702557 C0.331164001,41.822242 0.348444001,41.6507397 0.380124001,41.5148995 C0.422604001,41.3359406 0.496764001,41.1958858 0.613044001,41.0606941 C0.771444001,40.9050776 0.961884001,40.7847991 1.199124,40.7040731 C1.440684,40.6295068 1.717524,40.5799041 2.014884,40.5799041 C2.268684,40.5799041 2.501604,40.621726 2.712924,40.6609543 C2.899404,40.7261187 3.079404,40.7847991 3.200724,40.8784932 C3.347244,40.9563014 3.424644,41.0558311 3.511044,41.1621689 C3.580164,41.246137 3.632364,41.3751689 3.675204,41.5259224 C3.718764,41.6633836 3.736044,41.822242 3.736044,42.0209772 L3.736044,43.1200183 Z M3.347244,42.7154155 L3.347244,42.0679863 C3.347244,41.8604977 3.317364,41.6971005 3.260844,41.5881689 C3.231324,41.4763196 3.165804,41.3751689 3.105324,41.3129224 C2.985804,41.2195525 2.848284,41.1339635 2.657844,41.096032 C2.484324,41.0292466 2.268684,41.0088219 2.014884,41.0088219 C1.648404,41.0088219 1.380564,41.0558311 1.181844,41.165411 C1.005444,41.2659132 0.863244,41.3858676 0.797724,41.541484 C0.763164,41.6588447 0.737604,41.8371553 0.737604,42.0702557 L0.737604,42.7154155 L3.347244,42.7154155 Z M3.736044,40.0119041 L0.331164001,40.0119041 L0.331164001,37.7969635 L0.737604001,37.7969635 L0.737604001,39.6079498 L1.768644,39.6079498 L1.768644,37.9182146 L2.182284,37.9182146 L2.182284,39.6079498 L3.347244,39.6079498 L3.347244,37.7311507 L3.736044,37.7311507 L3.736044,40.0119041 Z M3.736044,37.1676895 L0.331164001,37.1676895 L0.331164001,36.7569269 L3.003444,35.1414338 L0.331164001,35.1414338 L0.331164001,34.7556347 L3.736044,34.7556347 L3.736044,35.1719087 L1.060524,36.7724886 L3.736044,36.7724886 L3.736044,37.1676895 Z M2.527884,31.8848356 L2.657844,31.4698584 C3.024324,31.5476667 3.317364,31.7172237 3.502404,31.9350868 C3.692484,32.1604064 3.796524,32.4363014 3.796524,32.7504521 C3.796524,33.0694658 3.718764,33.3421187 3.563604,33.5440959 C3.416004,33.7736301 3.200724,33.9243836 2.923884,34.0326667 C2.631564,34.1341416 2.328804,34.1853653 2.014884,34.1853653 C1.648404,34.1853653 1.340604,34.1341416 1.086444,33.994411 C0.818604,33.8896941 0.613044,33.7058721 0.475164,33.4883333 C0.348444,33.2610685 0.267444,33.0026804 0.267444,32.7397534 C0.267444,32.4363014 0.348444,32.1714292 0.521244,31.9665342 C0.708084,31.7480228 0.949644,31.6050502 1.267884,31.5210822 L1.363284,31.9081781 C1.117044,32.0018721 0.933084,32.0907032 0.829404,32.2271918 C0.708084,32.3782694 0.651204,32.5416667 0.651204,32.7504521 C0.651204,32.9838767 0.716724,33.1865023 0.845964,33.3388767 C0.973764,33.4931963 1.138284,33.6102329 1.340604,33.6799361 C1.553364,33.7373196 1.786284,33.7736301 2.014884,33.7736301 C2.294964,33.7736301 2.545164,33.7373196 2.760804,33.6595114 C2.985804,33.5784612 3.139524,33.4617489 3.243204,33.2918676 C3.347244,33.1394932 3.407364,32.9650731 3.407364,32.7789817 C3.407364,32.5416667 3.347244,32.367895 3.188484,32.1967169 C3.049524,32.0443425 2.825604,31.9350868 2.527884,31.8848356 Z M0.331164001,30.9102877 L3.736044,30.9102877 L3.736044,30.5027671 L0.331164001,30.5027671 L0.331164001,30.9102877 Z M3.736044,30.1215068 L0.331164001,28.9368767 L0.331164001,28.4985571 L3.736044,27.2390365 L3.736044,27.7136667 L2.712924,28.0657489 L2.712924,29.3602831 L3.736044,29.6874018 L3.736044,30.1215068 Z M2.337804,29.2283333 L2.337804,28.1873242 L1.392084,28.5141187 C1.112724,28.6068402 0.863244,28.685621 0.685404,28.7348995 C0.898164,28.7734795 1.117044,28.8237306 1.340604,28.9015388 L2.337804,29.2283333 Z M3.736044,25.7091324 L0.331164001,25.7091324 L0.331164001,23.6420274 L0.737604001,23.6420274 L0.737604001,25.3116621 L1.786284,25.3116621 L1.786284,23.8660502 L2.191284,23.8660502 L2.191284,25.3116621 L3.736044,25.3116621 L3.736044,25.7091324 Z M0.331164001,23.0442009 L3.736044,23.0442009 L3.736044,22.6395982 L0.331164001,22.6395982 L0.331164001,23.0442009 Z M3.736044,21.9176027 L0.331164001,21.9176027 L0.331164001,21.5159178 L3.003444,19.8965342 L0.331164001,19.8965342 L0.331164001,19.5016575 L3.736044,19.5016575 L3.736044,19.9156621 L1.060524,21.5356941 L3.736044,21.5356941 L3.736044,21.9176027 Z M3.736044,19.1622192 L0.331164001,17.9733744 L0.331164001,17.543484 L3.736044,16.2888265 L3.736044,16.7469224 L2.712924,17.1200776 L2.712924,18.3967808 L3.736044,18.7362192 L3.736044,19.1622192 Z M2.337804,18.2719635 L2.337804,17.2325753 L1.392084,17.549968 C1.112724,17.6527397 0.863244,17.73379 0.685404,17.7675068 C0.898164,17.8271598 1.117044,17.8641187 1.340604,17.9354429 L2.337804,18.2719635 Z M3.736044,15.9730548 L0.331164001,15.9730548 L0.331164001,15.5496484 L3.003444,13.9451781 L0.331164001,13.9451781 L0.331164001,13.552895 L3.736044,13.552895 L3.736044,13.9733836 L1.060524,15.5762329 L3.736044,15.5762329 L3.736044,15.9730548 Z M2.527884,10.6671826 L2.657844,10.2719817 C3.024324,10.3679452 3.317364,10.5086484 3.502404,10.729105 C3.692484,10.9579909 3.796524,11.218 3.796524,11.5415525 C3.796524,11.8748311 3.718764,12.142621 3.563604,12.352379 C3.416004,12.5598676 3.200724,12.718726 2.923884,12.8185799 C2.631564,12.926863 2.328804,12.9835982 2.014884,12.9835982 C1.648404,12.9835982 1.340604,12.926863 1.086444,12.8075571 C0.818604,12.6794977 0.613044,12.5128584 0.475164,12.2859178 C0.348444,12.05379 0.267444,11.8096667 0.267444,11.5292329 C0.267444,11.2274018 0.348444,10.9784155 0.521244,10.7576347 C0.708084,10.5501461 0.949644,10.4104155 1.267884,10.3215845 L1.363284,10.7261872 C1.117044,10.8072374 0.933084,10.8957443 0.829404,11.0309361 C0.708084,11.1683973 0.651204,11.3317945 0.651204,11.5415525 C0.651204,11.7814612 0.716724,11.9840868 0.845964,12.1364612 C0.973764,12.2953196 1.138284,12.4074932 1.340604,12.4697397 C1.553364,12.5349041 1.786284,12.5789954 2.014884,12.5789954 C2.294964,12.5789954 2.545164,12.5349041 2.760804,12.4570959 C2.985804,12.3731279 3.139524,12.2518767 3.243204,12.0923699 C3.347244,11.9399954 3.407364,11.7655753 3.407364,11.573 C3.407364,11.3428174 3.347244,11.1606164 3.188484,10.9972192 C3.049524,10.8260411 2.825604,10.729105 2.527884,10.6671826 Z M0.331164001,9.70398174 L3.736044,9.70398174 L3.736044,9.29646119 L0.331164001,9.29646119 L0.331164001,9.70398174 Z M3.736044,8.57349315 L0.331164001,8.57349315 L0.331164001,6.3553105 L0.737604001,6.3553105 L0.737604001,8.17342922 L1.768644,8.17342922 L1.768644,6.47072603 L2.182284,6.47072603 L2.182284,8.17342922 L3.347244,8.17342922 L3.347244,6.27750228 L3.736044,6.27750228 L3.736044,8.57349315 Z M3.736044,5.7143653 L0.331164001,5.7143653 L0.331164001,4.35888128 C0.331164001,4.07844749 0.358884001,3.87744292 0.422604001,3.7279863 C0.475164001,3.58209589 0.586764001,3.46959817 0.737604001,3.38692694 C0.898164001,3.30457991 1.078164,3.26275799 1.259244,3.26275799 C1.506204,3.26275799 1.717524,3.33278539 1.867284,3.46959817 C2.035044,3.60868037 2.143764,3.82621918 2.191284,4.12967123 C2.242404,4.02106393 2.294964,3.93061187 2.355084,3.88360274 C2.476404,3.76883562 2.631564,3.64726027 2.799324,3.55356621 L3.736044,3.01539269 L3.736044,3.52600913 L3.024324,3.91991324 C2.820204,4.03986758 2.657844,4.14847489 2.554164,4.22628311 C2.458764,4.30084932 2.367324,4.36374429 2.328804,4.41626484 C2.282724,4.48142922 2.260044,4.54821461 2.242404,4.60657078 C2.216484,4.65293151 2.216484,4.73073973 2.216484,4.83675342 L2.216484,5.30976256 L3.736044,5.30976256 L3.736044,5.7143653 Z M1.838484,5.30976256 L1.838484,4.43993151 C1.838484,4.24962557 1.810764,4.09887215 1.768644,4.00550228 C1.720764,3.89300457 1.660644,3.81843836 1.565604,3.76883562 C1.466964,3.71696347 1.363284,3.67546575 1.259244,3.67546575 C1.112724,3.67546575 0.961884,3.7279863 0.863244,3.83108219 C0.763164,3.94649772 0.708084,4.10989498 0.708084,4.33521461 L0.708084,5.30976256 L1.838484,5.30976256 Z M3.736044,2.95347032 L0.331164001,1.7746758 L0.331164001,1.34348858 L3.736044,0.0894794521 L3.736044,0.551465753 L2.712924,0.908086758 L2.712924,2.19354338 L3.736044,2.5203379 L3.736044,2.95347032 Z M2.337804,2.07812785 L2.337804,1.02609589 L1.392084,1.36229224 C1.112724,1.46538813 0.863244,1.5273105 0.685404,1.57464384 C0.898164,1.61614155 1.117044,1.66250228 1.340604,1.73642009 L2.337804,2.07812785 Z" id="Fill-3" fill="#FFFFFF" mask="url(#mask-2)"></path>
                </g>
                <mask id="mask-4" fill="white">
                    <use xlink:href="#path-3"></use>
                </mask>
                <g id="Clip-7"></g>
                <path d="M0,114 L1.44413755,114 L1.44413755,73 L0,73 L0,114 Z M10.5522202,114 L12,114 L12,73 L10.5522202,73 L10.5522202,114 Z" id="Fill-6" fill="#FFFFFF" mask="url(#mask-4)"></path>
            </g>
        </g>
    </g>
</svg>