<?xml version="1.0" encoding="UTF-8"?>
<svg width="239px" height="28px" viewBox="0 0 239 28" version="1.1" xmlns="http://www.w3.org/2000/svg" xmlns:xlink="http://www.w3.org/1999/xlink">
    <!-- Generator: Sketch 51.2 (57519) - http://www.bohemiancoding.com/sketch -->
    <title>logo/2ยบ copy@3x</title>
    <desc>Created with Sketch.</desc>
    <defs>
        <linearGradient x1="87.7535302%" y1="86.3735419%" x2="-7.99743261%" y2="-5.8582233%" id="linearGradient-1">
            <stop stop-color="#3E5FA6" offset="0%"></stop>
            <stop stop-color="#3D5EA3" offset="17%"></stop>
            <stop stop-color="#3B599B" offset="28%"></stop>
            <stop stop-color="#37528D" offset="36%"></stop>
            <stop stop-color="#314879" offset="44%"></stop>
            <stop stop-color="#2B3C62" offset="50%"></stop>
        </linearGradient>
        <linearGradient x1="87.7663671%" y1="86.3735419%" x2="-7.98459564%" y2="-5.8582233%" id="linearGradient-2">
            <stop stop-color="#3E5FA6" offset="0%"></stop>
            <stop stop-color="#3D5EA3" offset="17%"></stop>
            <stop stop-color="#3B599B" offset="28%"></stop>
            <stop stop-color="#37528D" offset="36%"></stop>
            <stop stop-color="#314879" offset="44%"></stop>
            <stop stop-color="#2B3C62" offset="50%"></stop>
        </linearGradient>
        <linearGradient x1="16.1617458%" y1="16.2137913%" x2="63.7355584%" y2="63.7272494%" id="linearGradient-3">
            <stop stop-color="#B4281D" offset="0%"></stop>
            <stop stop-color="#B1281E" offset="35%"></stop>
            <stop stop-color="#A92721" offset="56%"></stop>
            <stop stop-color="#9B2526" offset="74%"></stop>
            <stop stop-color="#87222D" offset="89%"></stop>
            <stop stop-color="#85222E" offset="90%"></stop>
        </linearGradient>
        <linearGradient x1="50.0183352%" y1="2.70391395%" x2="50.0183352%" y2="131.894234%" id="linearGradient-4">
            <stop stop-color="#3E5FA6" offset="0%"></stop>
            <stop stop-color="#3D5EA3" offset="20%"></stop>
            <stop stop-color="#3B599B" offset="32%"></stop>
            <stop stop-color="#37528D" offset="42%"></stop>
            <stop stop-color="#314879" offset="51%"></stop>
            <stop stop-color="#2B3C62" offset="58%"></stop>
        </linearGradient>
        <linearGradient x1="47.5074635%" y1="48.5892064%" x2="100.967655%" y2="60.4279475%" id="linearGradient-5">
            <stop stop-color="#C20D19" offset="13%"></stop>
            <stop stop-color="#C51A25" offset="20%"></stop>
            <stop stop-color="#CE3D46" offset="33%"></stop>
            <stop stop-color="#DC757C" offset="51%"></stop>
            <stop stop-color="#F0C2C5" offset="73%"></stop>
            <stop stop-color="#FFFFFF" offset="89%"></stop>
        </linearGradient>
        <linearGradient x1="10.3125472%" y1="49.9231738%" x2="88.6456289%" y2="49.9231738%" id="linearGradient-6">
            <stop stop-color="#C20D19" offset="0%"></stop>
            <stop stop-color="#F2CB12" offset="100%"></stop>
        </linearGradient>
        <linearGradient x1="50.0030613%" y1="-0.778371444%" x2="50.0030613%" y2="35.6584793%" id="linearGradient-7">
            <stop stop-color="#D19918" offset="0%"></stop>
            <stop stop-color="#D8A317" offset="11%"></stop>
            <stop stop-color="#E6B914" offset="43%"></stop>
            <stop stop-color="#EFC613" offset="73%"></stop>
            <stop stop-color="#F2CB12" offset="100%"></stop>
        </linearGradient>
        <linearGradient x1="27.0609025%" y1="24.3532212%" x2="46.8164238%" y2="60.1882914%" id="linearGradient-8">
            <stop stop-color="#D19918" offset="0%"></stop>
            <stop stop-color="#D8A317" offset="9%"></stop>
            <stop stop-color="#E6B914" offset="35%"></stop>
            <stop stop-color="#EFC613" offset="60%"></stop>
            <stop stop-color="#F2CB12" offset="82%"></stop>
            <stop stop-color="#F2CB12" offset="100%"></stop>
        </linearGradient>
    </defs>
    <g id="visual" stroke="none" stroke-width="1" fill="none" fill-rule="evenodd">
        <g id="landing-mobile-copy-2" transform="translate(-42.000000, -16.000000)">
            <g id="logo/2ยบ" transform="translate(31.000000, 7.000000)">
                <g id="_Grupo_" stroke-width="1" fill-rule="evenodd" transform="translate(189.208153, 13.790581)">
                    <g id="_Grupo_2" transform="translate(7.739283, 0.000000)" fill="#3E5FA6" fill-rule="nonzero">
                        <g id="_Grupo_3">
                            <g id="_Grupo_4">
                                <g id="_Grupo_5">
                                    <g id="_Grupo_6">
                                        <path d="M2.01683416,2.09224462 L4.38944432,2.09224462 C4.395801,2.1643778 4.39811484,2.2368097 4.39637503,2.30920103 C4.41166654,2.8974304 4.19273466,3.46769161 3.7876284,3.89482933 C3.38677715,4.3163182 2.82489942,4.54681848 2.24323707,4.52838824 C1.34087496,4.52723935 0.52723375,3.98548607 0.178881944,3.15386203 C-0.169469862,2.32223799 0.0154356004,1.36300362 0.648020596,0.720110668 C1.06454653,0.297204123 1.63676302,0.063944099 2.23053079,0.0750115279 C3.17772667,0.0750115279 3.94703454,0.53662093 4.25545076,1.3155868 L3.80033469,1.47484204 C3.49884917,0.867825676 2.92937653,0.551623236 2.23053079,0.551623236 C1.77073227,0.54306803 1.32865625,0.728698291 1.01303755,1.06285565 C0.352557596,1.76203391 0.355603341,2.85543553 1.01996825,3.55093033 C1.34439368,3.88273923 1.7917547,4.06569124 2.25594336,4.05639262 C2.67089299,4.068604 3.07392175,3.91683376 3.3775619,3.63402002 C3.68122069,3.35120675 3.87031403,2.96680712 3.90891568,2.55385402 L2.0133688,2.55385402 L2.01683416,2.09224462 Z" id="_Trazado_compuesto_"></path>
                                        <path d="M8.18284831,1.28673621 L8.14588457,1.74834561 C8.08356231,1.74467671 8.02107789,1.74467671 7.95875563,1.74834561 C7.15017378,1.74834561 6.68812701,2.34151369 6.68812701,3.23126582 L6.68812701,4.44645257 L6.1960472,4.44645257 L6.1960472,1.29250633 L6.68812701,1.29250633 L6.68812701,2.06570208 C6.98229679,1.52715777 7.40583966,1.25788562 7.95875563,1.25788562 C8.034503,1.25575004 8.11011756,1.26548496 8.18284831,1.28673621 Z" id="_Trazado_compuesto_2"></path>
                                        <path d="M12.5907745,1.29250633 L12.5907745,4.4383744 L12.0986947,4.4383744 L12.0986947,3.92367992 C11.8283973,4.31950998 11.4321922,4.51800202 10.906614,4.51800202 C10.5597093,4.53235564 10.2232806,4.39749138 9.98252049,4.14756048 C9.74426052,3.88140336 9.61985907,3.53258046 9.63598541,3.17587269 L9.63598541,1.29250633 L10.1292203,1.29250633 L10.1292203,3.08932092 C10.1292203,3.67787291 10.4757554,4.06793286 11.0001785,4.06793286 C11.6724566,4.06793286 12.0963845,3.60632346 12.0963845,2.80773919 L12.0963845,1.29250633 L12.5907745,1.29250633 Z" id="_Trazado_compuesto_3"></path>
                                        <path d="M17.4491963,1.68256627 C17.7621911,1.9972005 17.9296498,2.42799848 17.9112431,2.87121048 C17.9291138,3.31672439 17.7619019,3.74981081 17.4491963,4.06793286 C17.1591881,4.36743707 16.7585171,4.53439922 16.3414392,4.52954226 C15.796224,4.52954226 15.3803819,4.33682033 15.084672,3.95253051 L15.084672,5.5381588 L14.5983677,5.5381588 L14.5983677,1.29250633 L15.084672,1.29250633 L15.084672,1.7968146 C15.3803819,1.40790868 15.796224,1.21980285 16.3414392,1.21980285 C16.759039,1.21344329 17.1604249,1.3811215 17.4491963,1.68256627 Z M17.1026612,3.75980858 C17.5552799,3.25326072 17.5552799,2.48800622 17.1026612,1.98145836 C16.6396584,1.52659423 15.8961806,1.52968483 15.4369826,1.9883825 C15.1983844,2.21817361 15.0700723,2.53928071 15.084672,2.87005646 C15.0737254,3.18980623 15.1930185,3.50032609 15.4152883,3.73065013 C15.637558,3.96097417 15.9438073,4.091417 16.2640463,4.09216735 C16.5772896,4.10173402 16.8806378,3.9819289 17.1026612,3.76096261 L17.1026612,3.75980858 Z" id="_Trazado_compuesto_4"></path>
                                        <path d="M22.2128985,1.68833639 C22.5377486,1.99207611 22.7154522,2.42119008 22.7003579,2.86544036 C22.7144813,3.313223 22.5372309,3.74585865 22.2128985,4.0552386 C21.8970913,4.36294854 21.4698553,4.52951696 21.0289037,4.516848 C20.5834552,4.52977348 20.1514669,4.36346158 19.8298923,4.0552386 C19.5106075,3.74305155 19.3367577,3.31155873 19.3505188,2.86544036 C19.3357359,2.42286401 19.5100289,1.99488652 19.8298923,1.68833639 C20.1514669,1.3801134 20.5834552,1.2138015 21.0289037,1.22672699 C21.4698553,1.21405803 21.8970913,1.38062645 22.2128985,1.68833639 Z M21.8663634,3.74711432 C22.1007248,3.51491032 22.2264953,3.19491798 22.2128985,2.86544036 C22.2197334,2.5455106 22.0972851,2.23631723 21.8731981,2.00766524 C21.6491111,1.77901324 21.3422788,1.65018075 21.021973,1.65025361 C20.7025132,1.6450384 20.3947079,1.77004407 20.1694967,1.99646066 C19.9328433,2.22277818 19.804586,2.53954698 19.817186,2.86659439 C19.8077523,3.19083202 19.9308503,3.50493414 20.1581355,3.73657616 C20.3854208,3.96821818 20.6973046,4.09743572 21.021973,4.0944754 C21.3398522,4.10089767 21.6461123,3.97508207 21.8675186,3.74711432 L21.8663634,3.74711432 Z" id="_Trazado_compuesto_5"></path>
                                    </g>
                                </g>
                            </g>
                        </g>
                    </g>
                    <g id="_Grupo_7" transform="translate(0.000000, 6.462532)" fill-rule="nonzero">
                        <g id="_Grupo_8">
                            <g id="_Grupo_9">
                                <g id="_Grupo_10">
                                    <g id="_Grupo_11" transform="translate(7.854795, 1.038621)" fill="url(#linearGradient-1)">
                                        <polygon id="_Trazado_" points="0.032343274 2.45922409 6.66386955 9.09370522 9.03070414 6.72564899 2.39802274 0.0911678569"></polygon>
                                    </g>
                                    <g id="_Grupo_12" fill="#3E5FA6">
                                        <g id="_Grupo_13">
                                            <path d="M9.66139798,0.530850813 C9.34698068,0.216125255 8.92017514,0.039263257 8.4750929,0.039263257 C8.03001065,0.039263257 7.60320512,0.216125255 7.28878781,0.530850813 L0.0392739755,7.76427015 L2.40495344,10.1323264 L8.46123149,4.07139493 C9.08971765,3.44172991 9.94319413,3.08783829 10.8332641,3.08783829 C11.7233341,3.08783829 12.5768106,3.44172991 13.2052967,4.07139493 L9.66139798,0.530850813 Z" id="_Trazado_2"></path>
                                        </g>
                                    </g>
                                    <g id="_Grupo_14" transform="translate(39.273976, 1.038621)" fill="url(#linearGradient-2)">
                                        <polygon id="_Trazado_3" points="0.0773928341 2.45922409 6.71007423 9.09370522 9.0757537 6.72564899 2.44422742 0.0911678569"></polygon>
                                    </g>
                                    <g id="_Grupo_15" transform="translate(31.419180, 0.000000)" fill="#3E5FA6">
                                        <g id="_Grupo_16">
                                            <path d="M9.70298219,0.530850813 C9.38856489,0.216125255 8.96175935,0.039263257 8.51667711,0.039263257 C8.07159486,0.039263257 7.64478933,0.216125255 7.33037202,0.530850813 L0.0808581849,7.76427015 L2.44769277,10.1323264 L8.5028157,4.07139493 C9.13134807,3.44137598 9.98507238,3.08725951 10.8754259,3.08725951 C11.7657794,3.08725951 12.6195037,3.44137598 13.248036,4.07139493 L9.70298219,0.530850813 Z" id="_Trazado_4"></path>
                                        </g>
                                    </g>
                                </g>
                                <g id="_Grupo_17" transform="translate(15.825102, 0.000000)" fill="url(#linearGradient-3)">
                                    <polygon id="_Trazado_5" points="9.10463162 6.67371793 2.47195022 0.0392367992 0.106270757 2.40729303 6.73779704 9.04292819"></polygon>
                                </g>
                                <g id="_Grupo_18" transform="translate(19.521476, 0.000000)" fill="#B4281D">
                                    <g id="_Grupo_19">
                                        <path d="M3.63399785,9.64071237 C3.94861251,9.95550791 4.37560924,10.1323985 4.8208805,10.1323985 C5.26615175,10.1323985 5.69314849,9.95550791 6.00776314,9.64071237 L13.257277,2.40729303 L10.8904424,0.0392367992 L4.83416434,6.10016825 C4.20563197,6.7301872 3.35190766,7.08430367 2.46155417,7.08430367 C1.57120069,7.08430367 0.717476373,6.7301872 0.0889440034,6.10016825 L3.63399785,9.64071237 Z" id="_Trazado_6"></path>
                                    </g>
                                </g>
                            </g>
                        </g>
                        <g id="_Grupo_20" transform="translate(50.016563, 0.000000)" fill="url(#linearGradient-4)">
                            <rect id="_Trazado_7" x="0.095874705" y="0.0150023056" width="3.15000386" height="7.72503335"></rect>
                        </g>
                        <g id="_Grupo_21" transform="translate(50.016563, 3.808278)" fill="#3E5FA6">
                            <g id="_Grupo_22">
                                <path d="M0.0993400558,4.72457223 C0.10061507,5.59537836 0.807908104,6.30045227 1.67954001,6.29981432 L10.5831813,6.31250858 L10.5831813,3.1666405 L3.25396438,3.1666405 C2.41669326,3.16694662 1.61359287,2.83495036 1.02133616,2.24368711 C0.429079446,1.65242387 0.096181005,0.85032685 0.095874705,0.0138482821 L0.0993400558,4.72457223 Z" id="_Trazado_8"></path>
                            </g>
                        </g>
                    </g>
                </g>
                <path d="M43.4589642,24.0452338 C42.8284656,24.2442021 42.1734934,24.3552672 41.5125921,24.3752845 C40.0305771,24.3752845 39.7210058,23.0747 39.7210058,21.9853018 C39.7210058,20.2992735 40.3343729,19.4464501 41.5449354,19.4464501 C41.8853323,19.4410724 42.2243441,19.4909602 42.548732,19.5941651 L43.6149049,20.0223078 L43.6368522,19.6830249 L43.6368522,18.6224773 L43.4936177,18.5613141 C43.1228251,18.4043669 42.1502167,18.0408495 41.1221626,18.0408495 C38.9516979,18.0408495 37.5482308,19.5964732 37.5482308,22.0003041 C37.5482308,24.2898867 38.9008728,25.8293541 40.9200172,25.8293541 C41.7990611,25.8293541 42.6053327,25.628554 43.8078095,25.1127055 L43.9995589,25.0284618 L43.6888324,23.9806084 L43.4589642,24.0452338 Z" id="Shape" fill="#243571" fill-rule="nonzero"></path>
                <path d="M18.2970521,20.1596366 C19.2477134,19.7661146 19.7016743,19.0575442 19.7016743,17.918523 C19.7016743,16.8106604 19.1772512,15.956683 18.2600884,15.5920116 C17.6178434,15.3277402 17.0171826,15.2642689 15.1897876,15.2642689 L11.3201459,15.2642689 L11.3201459,16.3698234 L12.5376391,16.5486971 L12.5376391,25.677023 L15.6137155,25.677023 C17.1153675,25.677023 17.7576125,25.5835471 18.4402866,25.2696527 C19.4566123,24.8228805 20.1025595,23.8074793 20.0759322,22.6984883 C20.0759322,21.3505889 19.4706509,20.5312322 18.2970521,20.1596366 Z M14.709259,16.6098603 L15.3087646,16.6098603 C16.1092607,16.6098603 16.7387994,16.6098603 17.1257636,16.937603 C17.3856649,17.1603295 17.5300545,17.528463 17.5300545,17.9762241 C17.5300545,19.0148453 17.2123973,19.4222156 15.9891285,19.5433881 L15.1123948,19.6357099 C15.1123948,19.6276318 14.709259,20.3096597 14.709259,20.3096597 L14.709259,16.6098603 Z M17.2020013,23.9344475 C16.7168522,24.301427 15.9925939,24.3302776 15.0962231,24.3302776 L14.709259,24.3302776 L14.709259,20.9062898 L14.7600841,20.915522 L15.4785668,20.915522 C16.260581,20.915522 16.8924299,20.9397565 17.2955658,21.2617291 C17.6270843,21.5398487 17.8165235,21.9979961 17.8165235,22.5484653 C17.8107479,23.1381713 17.5889655,23.6447876 17.2020013,23.9344475 Z" id="Shape" fill="#243571" fill-rule="nonzero"></path>
                <path d="M79.3750148,20.1596366 C80.3268311,19.7661146 80.7784818,19.0575442 80.7784818,17.918523 C80.7784818,16.8106604 80.2540588,15.956683 79.338051,15.5920116 C78.695806,15.3277402 78.0939901,15.2642689 76.2677502,15.2642689 L72.3981085,15.2642689 L72.3981085,16.3698234 L73.6144467,16.5486971 L73.6144467,25.677023 L76.690523,25.677023 C78.1991058,25.677023 78.8355752,25.5835471 79.5182493,25.2696527 C80.535978,24.8226478 81.1822606,23.8053514 81.1538949,22.6950263 C81.1538949,21.3505889 80.5486136,20.5312322 79.3750148,20.1596366 Z M75.7872216,16.6098603 L76.3878824,16.6098603 C77.1860682,16.6098603 77.8179172,16.6098603 78.2037262,16.937603 C78.4647826,17.1603295 78.606862,17.528463 78.606862,17.9762241 C78.606862,19.0148453 78.2892049,19.4222156 77.065936,19.5433881 L76.1892023,19.6357099 C76.1892023,19.6276318 75.7872216,20.3096597 75.7872216,20.3096597 L75.7872216,16.6098603 Z M78.2799639,23.9344475 C77.7936597,24.301427 77.0682463,24.3302776 76.1741858,24.3302776 L75.7872216,24.3302776 L75.7872216,20.9062898 L75.8380468,20.915522 L76.5507539,20.915522 C77.3339232,20.915522 77.9634619,20.9397565 78.3677528,21.2617291 C78.7015816,21.5398487 78.8887106,21.9979961 78.8887106,22.5484653 C78.8944861,23.1381713 78.6634628,23.6447876 78.2799639,23.9344475 Z" id="Shape" fill="#243571" fill-rule="nonzero"></path>
                <path d="M34.4640686,18.0385414 C33.8322197,18.0385414 33.024793,18.262422 32.1053199,18.6444038 C32.0914585,18.4736083 32.0614254,18.0535437 32.0614254,18.0535437 L28.9264381,18.4516818 L28.9264381,19.5503122 L30.081555,19.5503122 L30.081555,25.677023 L32.1399734,25.677023 C32.1399734,25.677023 32.1573001,20.2600367 32.1573001,19.9496043 C32.6695525,19.7680905 33.2069404,19.6672553 33.7502064,19.6507123 C34.0805698,19.6507123 34.3046625,19.7130295 34.4328805,19.8422802 C34.6304055,20.0419262 34.6269401,20.4342942 34.6223197,20.8889795 L34.6223197,25.677023 L36.7015301,25.677023 L36.7015301,20.7816553 C36.7015301,19.6472502 36.6518601,19.2745006 36.2914636,18.8117372 C35.8941034,18.2993507 35.2807363,18.0385414 34.4640686,18.0385414 Z" id="Shape" fill="#243571" fill-rule="nonzero"></path>
                <path d="M48.0343823,18.0385414 C45.7241485,18.0385414 44.2906483,19.538772 44.2906483,21.9414489 C44.2906483,24.3741305 45.6894949,25.8270461 48.0343823,25.8270461 C50.3365303,25.8270461 51.7677202,24.3268155 51.7677202,21.9264466 C51.7677202,19.491457 50.3734941,18.0385414 48.0343823,18.0385414 Z M48.021676,24.4803006 C47.3517082,24.4803006 46.4622682,24.2183373 46.4622682,21.9414489 C46.4622682,19.7014893 47.2592989,19.4025972 48.0343823,19.4025972 C48.7055052,19.4025972 49.5949453,19.6657146 49.5949453,21.9299087 C49.5949453,24.1941028 48.8013799,24.4803006 48.021676,24.4803006 Z" id="Shape" fill="#243571" fill-rule="nonzero"></path>
                <path d="M102.153921,18.0385414 C99.8436867,18.0385414 98.4101866,19.538772 98.4101866,21.9414489 C98.4101866,24.3741305 99.8101883,25.8270461 102.153921,25.8270461 C104.454914,25.8270461 105.886103,24.3268155 105.886103,21.9264466 C105.886103,19.491457 104.491877,18.0385414 102.153921,18.0385414 Z M102.138904,24.4803006 C101.467781,24.4803006 100.581806,24.2183373 100.581806,21.9414489 C100.581806,19.7014893 101.376527,19.4025972 102.153921,19.4025972 C102.822733,19.4025972 103.714484,19.6657146 103.714484,21.9299087 C103.714484,24.1941028 102.920918,24.4803006 102.138904,24.4803006 Z" id="Shape" fill="#243571" fill-rule="nonzero"></path>
                <path d="M110.849641,24.2448798 L109.389573,24.4652983 C109.064985,24.4652983 108.978351,24.3810546 108.927526,24.301427 C108.876701,24.2217994 108.875546,24.1756384 108.875546,23.5951646 C108.875546,23.5316933 108.875546,19.9622986 108.875546,19.5503122 L110.936275,19.5503122 L110.936275,18.2808864 L108.875546,18.2808864 L108.875546,16.2948119 L108.620265,16.3167383 L106.796336,16.4690694 L106.796336,23.5570818 C106.796336,24.3452799 106.862177,24.8461261 107.197161,25.2408021 C107.513663,25.629708 107.997657,25.8108897 108.71845,25.8108897 C109.376867,25.8108897 110.131158,25.6470184 110.955912,25.3192757 L111.160367,25.2396481 L110.849641,24.2448798 Z" id="Shape" fill="#243571" fill-rule="nonzero"></path>
                <path d="M85.9037357,18.0385414 C83.5935018,18.0385414 82.1588466,19.538772 82.1588466,21.9414489 C82.1588466,24.3741305 83.5600034,25.8270461 85.9037357,25.8270461 C88.2058837,25.8270461 89.6359184,24.3268155 89.6359184,21.9264466 C89.6370736,19.491457 88.2405372,18.0385414 85.9037357,18.0385414 Z M85.8887191,24.4803006 C85.2210616,24.4803006 84.3316215,24.2183373 84.3316215,21.9414489 C84.3316215,19.7014893 85.126342,19.4025972 85.9037357,19.4025972 C86.5725484,19.4025972 87.4631435,19.6657146 87.4631435,21.9299087 C87.4631435,24.1941028 86.6684231,24.4803006 85.8887191,24.4803006 Z" id="Shape" fill="#243571" fill-rule="nonzero"></path>
                <path d="M95.4946715,18.6374796 C94.9996213,18.3645762 94.4429144,18.2227503 93.8775078,18.2254932 C91.8086934,18.2254932 90.3370744,19.8711307 90.3370744,22.1791778 C90.3370744,24.3902868 91.5014323,25.7797311 93.3669461,25.7797311 C93.8486299,25.7797311 94.314142,25.6527885 95.4357605,25.2027193 L95.4357605,25.7924254 C95.4357605,27.0803156 94.9667831,27.4507571 93.3565501,27.4507571 C92.521898,27.4415525 91.6907211,27.3417199 90.8776691,27.1530191 L90.8776691,28.3993645 C92.4243707,28.7398014 93.0631504,28.8378934 93.8520952,28.8378934 C94.8558918,28.8378934 95.7176091,28.67056 96.3275108,28.3416633 C97.2319674,27.8604355 97.5669513,27.1795616 97.5669513,25.8766691 L97.5669513,18.3258933 L95.4946715,18.3258933 L95.4946715,18.6374796 Z M95.4380708,24.1767924 C95.1207284,24.2327623 94.799254,24.2620999 94.4770135,24.2644982 C93.2225565,24.2644982 92.5375722,23.4566818 92.5375722,21.9679915 C92.5375722,20.422754 93.3103454,19.5306938 94.6652976,19.5306938 C94.9245784,19.5287286 95.1834215,19.5523078 95.4380708,19.6010892 L95.4380708,24.1767924 Z" id="Shape" fill="#243571" fill-rule="nonzero"></path>
                <path d="M27.8822124,18.3743623 L25.8549822,18.3743623 L25.8549822,18.6836406 C25.3715292,18.4145444 24.8270486,18.2738843 24.2736271,18.2751162 C22.247552,18.2751162 20.8082763,19.9138296 20.8082763,22.2137985 C20.8082763,24.4168293 21.9495319,25.8005035 23.7757717,25.8005035 C24.2470594,25.8005035 24.8604265,25.5870092 25.8006917,25.0480802 L25.8006917,25.677023 L25.8388105,25.6700989 C25.8388105,25.6989494 25.8388105,25.7231839 25.8388105,25.7231839 L28.7196722,25.433524 L28.7196722,24.2067971 L27.8810573,24.2067971 L27.8822124,18.3743623 Z M25.8596027,24.2379557 C25.535366,24.2948293 25.2069417,24.3245525 24.8777533,24.3268155 C23.5967286,24.3268155 22.8978829,23.5074588 22.8978829,22.0037662 C22.8978829,20.4412184 23.6891379,19.538772 25.0718129,19.538772 C25.3362811,19.5369109 25.6002478,19.5620452 25.8596027,19.6137835 L25.8596027,24.2379557 Z" id="Shape" fill="#243571" fill-rule="nonzero"></path>
                <path d="M118.514997,18.3743623 L116.490077,18.3743623 L116.490077,18.6836406 C116.00714,18.4143006 115.462966,18.273617 114.909877,18.2751162 C112.882647,18.2751162 111.444526,19.9138296 111.444526,22.2137985 C111.444526,24.4168293 112.583471,25.8005035 114.412021,25.8005035 C114.882154,25.8005035 115.493211,25.5870092 116.436941,25.0480802 L116.436941,25.677023 L116.473905,25.6700989 C116.473905,25.6989494 116.473905,25.7231839 116.473905,25.7231839 L119.354767,25.433524 L119.354767,24.2067971 L118.514997,24.2067971 L118.514997,18.3743623 Z M116.493542,24.2379557 C116.16893,24.2949308 115.840114,24.3246545 115.510538,24.3268155 C114.232978,24.3268155 113.530667,23.5074588 113.530667,22.0037662 C113.530667,20.4412184 114.321922,19.538772 115.705752,19.538772 C115.970223,19.5368625 116.234194,19.5619973 116.493542,19.6137835 L116.493542,24.2379557 Z" id="Shape" fill="#243571" fill-rule="nonzero"></path>
                <polygon id="Shape" fill="#243571" fill-rule="nonzero" points="117.568956 16.5048442 117.078031 14.9284481 116.860869 15.0149998 113.625387 16.3271246 113.909546 17.2664997"></polygon>
                <path d="M61.7063463,14.776117 L61.6023857,14.7876572 L61.3551907,14.8176618 L58.6198738,15.1638689 L58.6198738,16.0870877 L59.6282909,16.0870877 C59.6282909,16.252113 59.6282909,18.2797323 59.6282909,18.4897646 C58.8197091,18.215107 57.6819189,17.9796862 56.6388483,18.3305094 C55.2053482,18.8117372 54.3967663,20.1053975 54.3574924,21.9749156 C54.3159082,23.66556 55.1914868,25.0573124 56.5857129,25.5143057 C57.6103016,25.8512806 58.9687191,25.4739149 59.7230105,25.1127055 C59.7299412,25.2604205 59.747268,25.7220299 59.747268,25.7220299 L60.1018888,25.6908713 L62.5079974,25.3573585 L62.5079974,24.4341397 L61.6231778,24.4341397 C61.6231778,24.2471879 61.7063463,14.776117 61.7063463,14.776117 Z M59.6271358,24.1756384 C58.6949564,24.4272155 57.663437,24.6141674 56.9923141,23.8086589 C56.6018846,23.3412794 56.5244917,22.6407872 56.5244917,21.9276006 C56.5244917,21.845665 56.5244917,21.7648833 56.5244917,21.6829476 C56.5418185,20.8970576 56.7555151,20.3927494 57.1540305,19.9426802 C57.7904999,19.2260316 58.87862,19.3656684 59.6744956,19.738418 C59.6825814,19.738418 59.6317563,24.0267694 59.6317563,24.1767924 L59.6271358,24.1756384 Z" id="Shape" fill="#243571" fill-rule="nonzero"></path>
                <path d="M66.6502467,18.0477736 C66.2019682,18.0288617 65.7538609,18.0890215 65.3264827,18.2254932 C63.8028835,18.7217233 62.9423214,20.0546205 62.9007372,21.9806857 C62.8556876,23.7232612 63.7867118,25.1554044 65.2687269,25.626246 C66.5774743,26.0428485 68.4949684,25.5893172 69.7089963,24.9280617 L69.774838,24.893441 L69.4283029,23.8386636 L68.7490942,24.0533119 C67.7637794,24.3256615 66.4966162,24.8276617 65.684569,23.8848245 C65.2479348,23.3759001 65.1867136,22.6084745 65.1844033,21.996842 L69.2088307,22.0764697 L69.8118017,22.0764697 L69.8187324,21.9910719 C69.833749,21.8133523 69.8429899,21.6390948 69.8429899,21.4694533 C69.8429899,17.9727621 66.7853954,18.0523897 66.6502467,18.0477736 Z M65.2375387,20.963991 C65.2571757,20.8335863 65.3114662,19.3264316 66.6571774,19.3264316 C68.025991,19.3264316 68.0433177,20.7989656 68.0641098,20.963991 L65.2375387,20.963991 Z" id="Shape" fill="#243571" fill-rule="nonzero"></path>
                <path d="M142.481363,9.4606847 C135.163697,9.58647326 129.112039,14.6884112 128.850983,21.7037201 C128.657046,26.8732134 131.618183,31.6444864 136.33919,33.7694503 C141.060196,35.8944142 146.599269,34.9491555 150.346554,31.3790531 C152.656788,29.1771763 152.563223,25.3008113 150.725432,27.0595432 C148.592961,29.0806303 145.732485,30.1533859 142.795555,30.0334617 C136.91832,29.8234295 132.332505,25.0827009 132.553133,19.4464501 C132.757588,14.2164156 137.947529,10.0769333 142.594564,9.82766417 L142.710076,9.45953068 L142.481363,9.4606847 Z" id="Shape" fill="url(#linearGradient-5)" fill-rule="nonzero"></path>
                <path d="M143.501331,9.83112624 C149.405134,10.1865655 154.268176,15.2123379 137.082346,20.2323401 C139.764341,20.7719967 142.337193,21.7556978 144.694567,23.1427874 C159.406136,15.6704852 151.037314,9.43298814 142.712386,9.45953068 L142.596874,9.82766417 C142.898168,9.81114657 143.200173,9.81230258 143.501331,9.83112624 Z" id="Shape" fill="#F2CB12" fill-rule="nonzero"></path>
                <path d="M136.263368,12.4576837 C138.111555,10.9193704 140.411393,9.9465286 142.591099,9.82766417 C142.894245,9.80976707 143.198185,9.80976707 143.501331,9.82766417 C146.397209,10.0030757 149.045892,11.2978901 148.959258,13.1743323 L150.40431,11.4721477 C148.471799,10.1911816 145.589782,9.45376056 142.712386,9.46183872 L142.481363,9.46183872 C139.88777,9.49172225 137.346085,10.1918428 135.103631,11.4940741 L136.263368,12.4576837 Z" id="Shape" fill="url(#linearGradient-6)" fill-rule="nonzero"></path>
                <path d="M149.797873,29.2856545 C149.797873,29.2187211 149.554144,27.5546192 149.554144,27.5546192 C148.959258,23.6090129 149.785167,19.7799629 155.83567,19.4695306 C147.069487,15.2584988 141.240767,19.2895029 136.969145,20.2311861 C140.856113,20.7147219 149.050513,25.1057814 149.797873,29.2856545 Z" id="Shape" fill="url(#linearGradient-7)" fill-rule="nonzero"></path>
                <path d="M152.706458,20.6316322 C148.971965,22.1687915 149.356619,26.4271383 149.712395,28.9221371 C149.781702,29.1240912 150.157115,30.6797149 149.294242,32.3022719 C148.219984,34.1279371 146.483843,35.5012251 143.134004,36.3979014 C151.722298,36.7914234 161.545413,28.5551576 152.706458,20.6316322 Z" id="Shape" fill="url(#linearGradient-8)" fill-rule="nonzero"></path>
                <path d="M172.605657,12.7711935 L172.605657,35.0111501" id="Shape" stroke="#222220" stroke-width="0.618851115"></path>
            </g>
        </g>
    </g>
</svg>