<?xml version="1.0" encoding="UTF-8"?>
<svg width="40px" height="40px" viewBox="0 0 40 40" version="1.1" xmlns="http://www.w3.org/2000/svg" xmlns:xlink="http://www.w3.org/1999/xlink">
    <!-- Generator: Sketch 51.3 (57544) - http://www.bohemiancoding.com/sketch -->
    <title>logo</title>
    <desc>Created with Sketch.</desc>
    <defs>
        <linearGradient x1="28.5955376%" y1="44.4035565%" x2="87.1535448%" y2="57.3710305%" id="linearGradient-1">
            <stop stop-color="#ED1C24" offset="0%"></stop>
            <stop stop-color="#8B0304" offset="100%"></stop>
        </linearGradient>
        <linearGradient x1="10.3215998%" y1="49.9533251%" x2="88.6510422%" y2="49.9533251%" id="linearGradient-2">
            <stop stop-color="#ED1C24" offset="0%"></stop>
            <stop stop-color="#FFCB05" offset="100%"></stop>
        </linearGradient>
        <linearGradient x1="50.0021978%" y1="-0.786073229%" x2="50.0021978%" y2="35.6584867%" id="linearGradient-3">
            <stop stop-color="#E39717" offset="0%"></stop>
            <stop stop-color="#E8A116" offset="12.36%"></stop>
            <stop stop-color="#F4B710" offset="43.44%"></stop>
            <stop stop-color="#FCC509" offset="73.21%"></stop>
            <stop stop-color="#FFCB05" offset="100%"></stop>
        </linearGradient>
        <linearGradient x1="27.0427298%" y1="24.3674127%" x2="46.8081566%" y2="60.2040022%" id="linearGradient-4">
            <stop stop-color="#E39717" offset="0%"></stop>
            <stop stop-color="#E8A116" offset="10.13%"></stop>
            <stop stop-color="#F4B710" offset="35.61%"></stop>
            <stop stop-color="#FCC509" offset="60%"></stop>
            <stop stop-color="#FFCB05" offset="82.0950255%"></stop>
            <stop stop-color="#FFCB05" offset="99.7708068%"></stop>
        </linearGradient>
    </defs>
    <g id="New-Landing" stroke="none" stroke-width="1" fill="none" fill-rule="evenodd">
        <g id="M-NLanding-CA-Copy" transform="translate(-22.000000, -3654.000000)" fill-rule="nonzero">
            <g id="logo" transform="translate(22.000000, 3654.000000)">
                <path d="M19.6528749,0.00586657514 C9.1120806,0.19359698 0.397974353,7.70867973 0.013106114,18.033852 C-0.366017823,28.3648908 7.52665323,37.0591551 17.6423692,37.4463491 C22.7892638,37.6458127 27.5225687,35.6570437 30.9863829,32.2896296 C34.3180781,29.0454135 34.1802149,23.3372359 31.5320916,25.9243955 C28.6197304,28.7696845 24.5470203,30.4709913 20.1066748,30.3067272 C11.6395735,29.9957987 5.03362613,23.0145743 5.34956274,14.7133704 C5.64252215,7.01055729 13.1216034,0.915185721 19.8137154,0.545591488 L19.9860444,0 C19.8769027,0.00586657514 19.7677609,0.00586657514 19.6528749,0.00586657514 Z" id="icon" fill="url(#linearGradient-1)"></path>
                <path d="M21.1301364,0.54588232 C29.6265737,1.07405794 36.6199276,8.4743852 11.8936313,15.8747125 C18.1928131,17.1423339 22.8454874,20.1646722 22.8454874,20.1646722 C44.0148686,9.15514489 31.9729902,-0.0351108594 19.9942184,0.000100848408 L19.8221096,0.54588232 C20.2638555,0.51653923 20.6998645,0.51653923 21.1301364,0.54588232 Z" id="icon" fill="#FFCB05"></path>
                <path d="M10.7690294,4.43734754 C13.4380652,2.15971485 16.751351,0.719967752 19.897822,0.542949667 C20.3407439,0.519347256 20.7779135,0.519347256 21.2093309,0.54885027 C25.3854515,0.808476795 29.1991815,2.72617272 29.0841369,5.49945605 L31.1721972,2.97989864 C28.3823645,1.08580513 24.2235006,-0.011707 20.070389,9.42056741e-05 L19.7367595,9.42056741e-05 C15.8252416,0.0709014398 12.1668219,1.15071176 9.09512985,3.01530226 L10.7690294,4.43734754 Z" id="icon" fill="url(#linearGradient-2)"></path>
                <path d="M30.2407433,29.25073 C30.2349936,29.1510714 29.8900106,26.706505 29.8900106,26.706505 C29.033303,20.8969959 30.2292438,15.2692172 38.9458124,14.8060979 C26.3021882,8.60967895 17.8961043,14.5422957 11.738159,15.9316536 C17.3441316,16.6409882 29.1597968,23.1012093 30.2407433,29.25073 Z" id="icon" fill="url(#linearGradient-3)"></path>
                <path d="M34.407392,16.4983682 C29.0190326,18.7660521 29.571095,25.046244 30.0886535,28.7297616 C30.1921652,29.0293779 30.7327264,31.3205611 29.4848352,33.7116164 C27.9379103,36.4022879 25.4306267,38.4349787 20.6000804,39.7509403 C32.9812307,40.3384232 47.1508332,28.1892773 34.407392,16.4983682 Z" id="icon" fill="url(#linearGradient-4)"></path>
            </g>
        </g>
    </g>
</svg>